<?xml version="1.0" encoding="UTF-8"?>
<svg version="1.1" xmlns="http://www.w3.org/2000/svg" width="512" height="512">
<path d="M0 0 C1.75829499 0.00056958 1.75829499 0.00056958 3.55211109 0.00115067 C4.20497718 -0.00000318 4.85784326 -0.00115702 5.53049317 -0.00234583 C7.74537543 -0.00501884 9.96018679 -0.00048477 12.17506546 0.00394398 C13.76810163 0.00350842 15.36113773 0.00263379 16.95417345 0.00135481 C21.35293065 -0.00089309 25.75166374 0.00313515 30.15041786 0.00813287 C34.88595919 0.01243298 39.62149905 0.01099127 44.35704178 0.0102306 C52.56873598 0.00970508 60.78042227 0.01285476 68.99211448 0.01846844 C80.86498763 0.02657972 92.73785693 0.02919828 104.61073255 0.03045643 C123.87155382 0.03264754 143.13237087 0.03930921 162.39318985 0.04875904 C181.1083589 0.05793165 199.82352681 0.06501322 218.53869766 0.06926686 C220.26777401 0.06966094 220.26777401 0.06966094 222.0317812 0.07006299 C227.81436207 0.07136798 233.59694294 0.0726317 239.37952381 0.07387489 C287.38660487 0.08424933 335.39368133 0.10186924 383.40075821 0.1241985 C385.00559054 3.1609353 386.60837816 6.19874682 388.2108168 9.23674732 C388.88805046 10.51814972 388.88805046 10.51814972 389.5789656 11.82543904 C392.87955886 18.08632424 396.01950012 24.40402545 399.02575821 30.8116985 C403.71255204 40.68952696 408.55280394 50.48147022 413.46325821 60.2491985 C418.51666678 70.30496663 423.50251238 80.38297259 428.29260391 90.56780201 C430.83669608 95.94970239 433.48474896 101.26416415 436.22107071 106.54997975 C436.87936201 107.83077528 437.53740297 109.11169951 438.1951918 110.39275318 C439.16184928 112.27507434 440.1333252 114.15378345 441.12371963 116.02373463 C442.03746742 117.74904208 442.93047193 119.48528656 443.82263321 121.22185475 C444.34438125 122.21709156 444.8661293 123.21232838 445.40368789 124.23772389 C446.59511361 127.68684881 446.38696658 129.63888315 445.40075821 133.1241985 C443.36169571 135.616386 443.36169571 135.616386 440.77575821 137.9991985 C437.77278607 140.85413679 434.83424584 143.65343997 432.15075821 146.8116985 C428.68589231 150.86229173 425.04788715 154.73857425 421.40075821 158.6241985 C416.06739252 164.29864463 416.06739252 164.29864463 410.90075821 170.1241985 C406.95913029 174.70609085 402.79339695 179.07953265 398.66125625 183.48870045 C394.58863425 187.83879184 390.5722222 192.23282009 386.59997696 196.67497975 C382.70478738 201.01296174 378.75232091 205.29872424 374.80798477 209.59197193 C372.50367274 212.10096956 370.20231 214.61266907 367.90075821 217.1241985 C365.12882644 220.14902211 362.35621113 223.17320447 359.58044571 226.194511 C355.3530907 230.79769614 351.13549738 235.40833625 346.96325821 240.0616985 C342.96558448 244.51706654 338.90874936 248.91503369 334.8424086 253.30754811 C331.83679748 256.557852 328.85523897 259.82716924 325.90075821 263.1241985 C321.46705106 268.07010286 316.961324 272.94706504 312.45153946 277.82341725 C306.24759059 284.53204069 300.06389028 291.2588354 293.96325821 298.0616985 C289.5067811 303.02657941 284.98127759 307.92554801 280.45153946 312.82341725 C274.24759059 319.53204069 268.06389028 326.2588354 261.96325821 333.0616985 C257.5067811 338.02657941 252.98127759 342.92554801 248.45153946 347.82341725 C242.24759059 354.53204069 236.06389028 361.2588354 229.96325821 368.0616985 C225.5067811 373.02657941 220.98127759 377.92554801 216.45153946 382.82341725 C213.53223868 385.9801953 210.6203523 389.14367848 207.71325821 392.3116985 C206.82122696 393.28236256 205.92919571 394.25302662 205.01013321 395.25310475 C203.27472375 397.16257473 201.55576396 399.08712906 199.85388321 401.02654225 C199.06497696 401.92501881 198.27607071 402.82349537 197.46325821 403.7491985 C196.42878555 404.94415943 196.42878555 404.94415943 195.37341446 406.163261 C193.45829425 408.06700425 191.87600106 409.09423167 189.40075821 410.1241985 C184.54373913 405.36630226 179.82770497 400.56283861 175.39685196 395.4054485 C172.86614267 392.51320931 170.26226371 389.69341862 167.65075821 386.8741985 C167.13481094 386.3170818 166.61886368 385.7599651 166.08728164 385.18596607 C165.03771258 384.05284194 163.98807055 382.91978539 162.93835586 381.78679615 C159.19973705 377.74424389 155.48668787 373.67814545 151.76843399 369.61687428 C150.37496669 368.09604974 148.97988069 366.57672525 147.58435196 365.05779225 C143.35552345 360.45345902 139.13672735 355.84143254 134.96325821 351.1866985 C130.5067811 346.22181758 125.98127759 341.32284898 121.45153946 336.42497975 C115.24759059 329.7163563 109.06389028 322.9895616 102.96325821 316.1866985 C98.5067811 311.22181758 93.98127759 306.32284898 89.45153946 301.42497975 C83.24759059 294.7163563 77.06389028 287.9895616 70.96325821 281.1866985 C66.5067811 276.22181758 61.98127759 271.32284898 57.45153946 266.42497975 C51.24759059 259.7163563 45.06389028 252.9895616 38.96325821 246.1866985 C34.96558448 241.73133046 30.90874936 237.33336331 26.8424086 232.94084889 C23.83679748 229.69054499 20.85523897 226.42122775 17.90075821 223.1241985 C13.46705106 218.17829414 8.961324 213.30133195 4.45153946 208.42497975 C-1.75240941 201.7163563 -7.93610972 194.9895616 -14.03674179 188.1866985 C-18.4932189 183.22181758 -23.01872241 178.32284898 -27.54846054 173.42497975 C-34.48528396 165.92386437 -41.37771797 158.38492218 -48.19689804 150.77654225 C-50.02631908 148.75674244 -51.86661389 146.75041271 -53.72033554 144.75310475 C-54.25924423 144.17230152 -54.79815293 143.5914983 -55.35339218 142.99309498 C-56.40943876 141.85687858 -57.46713895 140.72219617 -58.52673203 139.58928639 C-59.8983185 138.11389188 -61.24962684 136.61971777 -62.59924179 135.1241985 C-63.23088242 134.46162037 -63.86252304 133.79904225 -64.51330429 133.116386 C-66.17258562 130.07238069 -65.44920389 128.50379859 -64.59924179 125.1241985 C-63.03607536 121.46907305 -61.23075454 117.94682544 -59.41955429 114.40935475 C-58.89215653 113.36259068 -58.36475876 112.31582661 -57.82137924 111.23734242 C-56.12986604 107.88325801 -54.42761106 104.53477507 -52.72424179 101.1866985 C-50.51490751 96.82523475 -48.31012233 92.46148663 -46.10705429 88.09685475 C-45.5599379 87.01439472 -45.01282151 85.9319347 -44.44912583 84.81667286 C-40.32934074 76.64056625 -36.34828534 68.4046782 -32.42083603 60.13477284 C-28.85812329 52.63792031 -25.18480648 45.20320104 -21.44351059 37.79415089 C-16.18255192 27.37310958 -10.98556622 16.93133744 -6.07336289 6.34001881 C-3.19687882 0.15275514 -3.19687882 0.15275514 0 0 Z " fill="#3399FF" transform="translate(65.59924179315567,50.875801503658295)"/>
<path d="M0 0 C1.12206027 0.00436926 1.12206027 0.00436926 2.26678842 0.00882679 C3.45025847 0.00754515 3.45025847 0.00754515 4.657637 0.00623763 C7.32172381 0.00458042 9.98574872 0.0101081 12.6498298 0.01555592 C14.55143095 0.01583776 16.45303219 0.01568011 18.35463327 0.01511341 C23.53417038 0.01482534 28.71368455 0.02072368 33.89321631 0.02768737 C39.29979281 0.03391925 44.70636978 0.03452458 50.11294931 0.03571278 C60.35876045 0.03882659 70.60456097 0.04704064 80.85036743 0.05706227 C94.69010185 0.07030667 108.52983915 0.07572291 122.3695783 0.08156449 C144.18622934 0.0909805 166.00285797 0.11089908 187.81950754 0.12908131 C187.81950754 43.02908131 187.81950754 85.92908131 187.81950754 130.12908131 C144.58950754 130.12908131 101.35950754 130.12908131 56.81950754 130.12908131 C61.43950754 139.69908131 66.05950754 149.26908131 70.81950754 159.12908131 C77.61380721 173.72673506 77.61380721 173.72673506 80.34294504 179.64080006 C84.26393113 188.11896938 88.26160779 196.560798 92.25700754 205.00408131 C97.49423097 216.0740911 102.71199692 227.15251213 107.88200754 238.25408131 C112.83578525 248.89112345 117.81807201 259.5143627 122.81950754 270.12908131 C128.10654585 281.34994452 133.36903807 292.5817899 138.60560983 303.8262859 C143.49394101 314.31985915 148.4319376 324.78951053 153.38200754 335.25408131 C159.548454 348.29230136 165.67429586 361.34768563 171.72185129 374.44158131 C173.61198071 378.53332669 175.51662628 382.61761036 177.44021982 386.69368702 C178.3083927 388.53472771 179.17326783 390.37727946 180.03703684 392.2203899 C181.11956256 394.52831114 182.20801359 396.83346495 183.30315012 399.13542897 C183.78034494 400.15684986 184.25753977 401.17827076 184.74919504 402.23064381 C185.38703928 403.58150074 185.38703928 403.58150074 186.03776926 404.95964772 C186.29574289 405.6755608 186.55371652 406.39147389 186.81950754 407.12908131 C186.48950754 407.78908131 186.15950754 408.44908131 185.81950754 409.12908131 C181.30297217 404.71812728 176.96969326 400.22906973 172.85075754 395.44548756 C170.30609256 392.54359076 167.6920591 389.71052336 165.06950754 386.87908131 C164.55364084 386.32204518 164.03777414 385.76500904 163.50627512 385.19109303 C162.45662144 384.0578905 161.40689804 382.92475256 160.3571052 381.79167897 C156.61848638 377.7491267 152.9054372 373.68302827 149.18718332 369.62175709 C147.79371602 368.10093255 146.39863003 366.58160806 145.00310129 365.06267506 C140.77427278 360.45834183 136.55547668 355.84631536 132.38200754 351.19158131 C127.92553043 346.2267004 123.40002692 341.32773179 118.87028879 336.42986256 C112.66633993 329.72123911 106.48263961 322.99444441 100.38200754 316.19158131 C95.92553043 311.2267004 91.40002692 306.32773179 86.87028879 301.42986256 C80.66633993 294.72123911 74.48263961 287.99444441 68.38200754 281.19158131 C63.92553043 276.2267004 59.40002692 271.32773179 54.87028879 266.42986256 C48.66633993 259.72123911 42.48263961 252.99444441 36.38200754 246.19158131 C32.38433381 241.73621327 28.32749869 237.33824612 24.26115793 232.9457317 C21.25554681 229.6954278 18.2739883 226.42611056 15.31950754 223.12908131 C10.88580039 218.18317695 6.38007334 213.30621477 1.87028879 208.42986256 C-4.33366007 201.72123911 -10.51736039 194.99444441 -16.61799246 188.19158131 C-21.07446957 183.2267004 -25.59997308 178.32773179 -30.12971121 173.42986256 C-37.06653463 165.92874718 -43.95896864 158.389805 -50.77814871 150.78142506 C-52.60756975 148.76162525 -54.44786456 146.75529552 -56.30158621 144.75798756 C-56.8404949 144.17718434 -57.37940359 143.59638111 -57.93464285 142.99797779 C-58.99068943 141.86176139 -60.04838962 140.72707899 -61.1079827 139.5941692 C-62.47956917 138.11877469 -63.83087751 136.62460058 -65.18049246 135.12908131 C-65.81213309 134.46650318 -66.44377371 133.80392506 -67.09455496 133.12126881 C-68.75383629 130.0772635 -68.03045455 128.5086814 -67.18049246 125.12908131 C-65.61732602 121.47395586 -63.8120052 117.95170825 -62.00080496 114.41423756 C-61.47340719 113.36747349 -60.94600943 112.32070942 -60.40262991 111.24222523 C-58.71111671 107.88814083 -57.00886172 104.53965788 -55.30549246 101.19158131 C-53.09615818 96.83011756 -50.89137299 92.46636945 -48.68830496 88.10173756 C-48.14118857 87.01927754 -47.59407217 85.93681751 -47.03037649 84.82155567 C-42.91059141 76.64544906 -38.92953601 68.40956101 -35.0020867 60.13965565 C-31.43937396 52.64280313 -27.76605715 45.20808386 -24.02476126 37.7990337 C-18.76380258 27.37799239 -13.56681689 16.93622025 -8.65461355 6.34490162 C-5.71268522 0.01686855 -5.71268522 0.01686855 0 0 Z " fill="#98EDFF" transform="translate(68.18049246072769,50.870918691158295)"/>
<path d="M0 0 C63.36 0 126.72 0 192 0 C203.30431457 21.47819767 203.30431457 21.47819767 207.625 30.6875 C212.31179383 40.56532847 217.15204574 50.35727172 222.0625 60.125 C227.11526537 70.17948822 232.08821414 80.26137645 236.89404297 90.43701172 C239.45538629 95.838042 242.08883938 101.19670716 244.78515625 106.53125 C245.10901306 107.17306213 245.43286987 107.81487427 245.76654053 108.47613525 C247.36368502 111.63906082 248.96779161 114.79816392 250.58251953 117.95214844 C251.44466064 119.65419434 251.44466064 119.65419434 252.32421875 121.390625 C252.84072998 122.40157227 253.35724121 123.41251953 253.8894043 124.45410156 C255 127 255 127 255 130 C239.46883978 131.04351638 223.94371771 131.81082978 208.38580704 132.27973557 C201.15339587 132.50367038 193.94329562 132.80731319 186.72509766 133.31933594 C136.00726787 136.84609939 136.00726787 136.84609939 117.99549341 121.66905546 C107.49428905 112.45566693 98.43146345 101.83082539 89.9118042 90.7901001 C86.90187504 86.95740886 83.73102036 83.80246093 79.99365616 80.68860626 C76.4449355 77.68287636 73.21338154 74.35225801 69.93164062 71.06103516 C69.16969391 70.30084076 68.40774719 69.54064636 67.62271118 68.75741577 C65.13138726 66.27045626 62.64369492 63.7799013 60.15625 61.2890625 C58.41905073 59.55253733 56.68170308 57.8161606 54.94421387 56.07992554 C51.3182786 52.45545947 47.69414592 48.82920319 44.07128906 45.20166016 C39.41608454 40.54072892 34.75636506 35.88434128 30.09531403 31.22925758 C26.51461578 27.65216056 22.9362874 24.07270054 19.35868835 20.49250412 C17.64012658 18.7732734 15.92081653 17.05479034 14.20075989 15.33705521 C11.80915438 12.94797222 9.4207487 10.555737 7.03320312 8.16259766 C6.31641388 7.44783264 5.59962463 6.73306763 4.8611145 5.99664307 C4.21637177 5.34908051 3.57162903 4.70151794 2.90734863 4.03433228 C2.34254036 3.46914698 1.77773209 2.90396168 1.19580841 2.32164955 C0 1 0 1 0 0 Z " fill="#3398FE" transform="translate(257,51)"/>
<path d="M0 0 C43.23 0 86.46 0 131 0 C131.33 92.4 131.66 184.8 132 280 C131.34 280 130.68 280 130 280 C129.58097412 279.0291748 129.16194824 278.05834961 128.73022461 277.05810547 C124.5129983 267.32875405 120.10311468 257.70701491 115.5625 248.125 C114.8657248 246.65001664 114.16919762 245.17491609 113.47290039 243.69970703 C112.03270276 240.64895722 110.59146509 237.59870228 109.14941406 234.54882812 C105.73640235 227.32847727 102.33732896 220.1015647 98.9375 212.875 C98.27116278 211.45898253 97.60482163 210.04296691 96.93847656 208.62695312 C87.81155776 189.22973836 78.69197844 169.82941635 69.6875 150.375 C64.13907271 138.39081299 58.48918379 126.45616866 52.82556152 114.52612305 C47.46184249 103.22577914 42.15013864 91.90401588 36.90014648 80.55029297 C32.86110763 71.82667509 28.76770663 63.12966828 24.65725708 54.43951416 C13.09244581 29.98941475 13.09244581 29.98941475 7.92697144 18.97454834 C7.31459011 17.6701106 6.70094544 16.36626513 6.08596802 15.06304932 C5.24142294 13.27279441 4.4018369 11.4802026 3.5625 9.6875 C3.08941406 8.68074219 2.61632812 7.67398438 2.12890625 6.63671875 C1 4 1 4 0 0 Z " fill="#66CCFF" transform="translate(125,181)"/>
<path d="M0 0 C41.25 0 82.5 0 125 0 C122.7176062 3.80398967 121.30261952 5.91251146 118.25 8.8125 C115.678856 11.31866924 113.21057847 13.8356825 110.875 16.5625 C107.36272954 20.64935849 103.68685883 24.57148232 100 28.5 C94.6666497 34.17446008 94.6666497 34.17446008 89.5 40 C85.55837208 44.58189235 81.39263874 48.95533415 77.26049805 53.36450195 C73.18787604 57.71459335 69.171464 62.10862159 65.19921875 66.55078125 C61.30402917 70.88876325 57.3515627 75.17452574 53.40722656 79.46777344 C51.10291453 81.97677106 48.80155179 84.48847057 46.5 87 C43.72806824 90.02482361 40.95545292 93.04900597 38.1796875 96.0703125 C33.95233249 100.67349765 29.73473917 105.28413776 25.5625 109.9375 C21.56482627 114.39286804 17.50799115 118.79083519 13.44165039 123.18334961 C10.43603927 126.43365351 7.45448076 129.70297075 4.5 133 C0.06629286 137.94590436 -4.4394342 142.82286654 -8.94921875 147.69921875 C-15.15316761 154.4078422 -21.33686793 161.1346369 -27.4375 167.9375 C-31.89397711 172.90238091 -36.41948062 177.80134952 -40.94921875 182.69921875 C-47.15316761 189.4078422 -53.33686793 196.1346369 -59.4375 202.9375 C-63.89397711 207.90238091 -68.41948062 212.80134952 -72.94921875 217.69921875 C-79.15316761 224.4078422 -85.33686793 231.1346369 -91.4375 237.9375 C-95.89397711 242.90238091 -100.41948062 247.80134952 -104.94921875 252.69921875 C-107.86851828 255.85599546 -110.78070788 259.01920427 -113.6875 262.1875 C-114.57695312 263.156875 -115.46640625 264.12625 -116.3828125 265.125 C-119.69682887 268.76547172 -122.96630651 272.44461877 -126.22265625 276.13671875 C-128 278 -128 278 -130 279 C-128.12028013 272.95048485 -125.87521432 267.26350536 -123.11328125 261.56640625 C-122.7393222 260.78380936 -122.36536316 260.00121246 -121.98007202 259.19490051 C-121.17858947 257.51910616 -120.37473556 255.8444442 -119.56869507 254.1708374 C-118.28886807 251.51343115 -117.01528436 248.85311455 -115.7434082 246.19189453 C-114.4353134 243.45494356 -113.12691107 240.71814633 -111.81663513 237.98223877 C-107.73727863 229.46349409 -103.70425628 220.92340458 -99.6875 212.375 C-99.36077301 211.68020538 -99.03404602 210.98541077 -98.69741821 210.26956177 C-93.82543835 199.90886713 -88.97845914 189.53661195 -84.14212036 179.15924072 C-79.49082246 169.17953947 -74.81519862 159.21147627 -70.125 149.25 C-69.79245209 148.54365417 -69.45990417 147.83730835 -69.11727905 147.10955811 C-66.06061138 140.61759419 -63.00239244 134.12636169 -59.94287109 127.63574219 C-57.89873762 123.29914665 -55.85525844 118.96224342 -53.8125 114.625 C-53.47751495 113.91377991 -53.14252991 113.20255981 -52.7973938 112.4697876 C-47.82800752 101.91601651 -42.9034014 91.34243503 -38.00317383 80.75634766 C-33.19189379 70.37873 -28.30414984 60.03786408 -23.41085815 49.69873047 C-17.89432943 38.04106647 -12.42817849 26.36135976 -7.02148438 14.65234375 C-6.28768555 13.06486328 -6.28768555 13.06486328 -5.5390625 11.4453125 C-4.90798584 10.07656982 -4.90798584 10.07656982 -4.26416016 8.68017578 C-2.88894733 5.76455462 -1.44166966 2.88333932 0 0 Z " fill="#65CBFF" transform="translate(387,181)"/>
<path d="M0 0 C41.25 0 82.5 0 125 0 C132.9504069 16.4687 140.86364992 32.91289359 148.5234375 49.51171875 C152.44442359 57.98988807 156.44210025 66.4317167 160.4375 74.875 C165.67472343 85.94500979 170.89248938 97.02343082 176.0625 108.125 C181.01627771 118.76204215 185.99856447 129.38528139 191 140 C196.28703831 151.22086322 201.54953053 162.45270859 206.78610229 173.69720459 C211.67443347 184.19077784 216.61243006 194.66042922 221.5625 205.125 C227.72894646 218.16322005 233.85478832 231.21860433 239.90234375 244.3125 C241.79247317 248.40424538 243.69711874 252.48852905 245.62071228 256.56460571 C246.48888516 258.4056464 247.35376029 260.24819815 248.2175293 262.09130859 C249.30005502 264.39922983 250.38850605 266.70438364 251.48364258 269.00634766 C251.9608374 270.02776855 252.43803223 271.04918945 252.9296875 272.1015625 C253.56753174 273.45241943 253.56753174 273.45241943 254.21826172 274.83056641 C254.47623535 275.54647949 254.73420898 276.26239258 255 277 C254.67 277.66 254.34 278.32 254 279 C249.48346463 274.58904597 245.15018572 270.09998842 241.03125 265.31640625 C238.48658502 262.41450946 235.87255156 259.58144205 233.25 256.75 C232.7341333 256.19296387 232.2182666 255.63592773 231.68676758 255.06201172 C230.6371139 253.92880919 229.5873905 252.79567125 228.53759766 251.66259766 C224.79897884 247.6200454 221.08592966 243.55394696 217.36767578 239.49267578 C215.97420848 237.97185124 214.57912249 236.45252676 213.18359375 234.93359375 C208.95476524 230.32926052 204.73596914 225.71723405 200.5625 221.0625 C196.10602289 216.09761909 191.58051938 211.19865048 187.05078125 206.30078125 C180.84683239 199.5921578 174.66313207 192.8653631 168.5625 186.0625 C164.10602289 181.09761909 159.58051938 176.19865048 155.05078125 171.30078125 C148.84683239 164.5921578 142.66313207 157.8653631 136.5625 151.0625 C132.10602289 146.09761909 127.58051938 141.19865048 123.05078125 136.30078125 C116.84683239 129.5921578 110.66313207 122.8653631 104.5625 116.0625 C100.56482627 111.60713196 96.50799115 107.20916481 92.44165039 102.81665039 C89.43603927 99.56634649 86.45448076 96.29702925 83.5 93 C79.06629286 88.05409564 74.5605658 83.17713346 70.05078125 78.30078125 C63.84683239 71.5921578 57.66313207 64.8653631 51.5625 58.0625 C47.10602289 53.09761909 42.58051938 48.19865048 38.05078125 43.30078125 C31.1133534 35.79901227 24.21601563 28.26299306 17.40234375 20.6484375 C15.5772455 18.63637797 13.73755038 16.64474166 11.87890625 14.6640625 C11.33999756 14.087771 10.80108887 13.51147949 10.24584961 12.91772461 C9.19184412 11.79259479 8.1342464 10.67081571 7.07250977 9.55297852 C4.17845339 6.45910016 2.21825022 3.6970837 0 0 Z " fill="#98EDFF" transform="translate(0,181)"/>
<path d="M0 0 C63.03 0 126.06 0 191 0 C189.09679796 3.80640408 188.08442898 5.02585945 184.97119141 7.65771484 C177.63123257 14.1071272 170.8157624 21.07332502 163.92713547 27.99769974 C161.41459388 30.52314411 158.8988199 33.04532939 156.38223267 35.56674194 C151.0436568 40.91667506 145.70903756 46.27054254 140.375 51.625 C134.18173095 57.84194416 127.98681056 64.05722423 121.78764725 70.26829147 C119.31960517 72.74277435 116.85461449 75.22026893 114.38973999 77.69790649 C112.86593304 79.22534839 111.34198415 80.7526487 109.81787109 82.27978516 C109.14233688 82.96048569 108.46680267 83.64118622 107.77079773 84.34251404 C103.89243146 88.22130456 99.89628987 91.89616686 95.74445152 95.48041534 C93.81493839 97.16120642 91.98168768 98.90931734 90.18603516 100.73217773 C89.55243073 101.37231308 88.91882629 102.01244843 88.26602173 102.67198181 C87.61362518 103.33581375 86.96122864 103.99964569 86.2890625 104.68359375 C84.86601296 106.11926706 83.44283223 107.55481034 82.01953125 108.99023438 C79.80556407 111.22918599 77.59324756 113.4697262 75.38330078 115.71264648 C73.23119197 117.89477043 71.07305801 120.07078648 68.9140625 122.24609375 C67.9172496 123.26309608 67.9172496 123.26309608 66.90029907 124.30064392 C66.2856076 124.91871414 65.67091614 125.53678436 65.03759766 126.17358398 C64.49769196 126.72094711 63.95778625 127.26831024 63.40151978 127.83226013 C62 129 62 129 60 129 C52.21662947 113.03394525 44.50141165 97.04487782 37.05786133 80.91699219 C32.95212621 72.02796688 28.78620741 63.16887199 24.59738159 54.3187561 C19.17915362 42.87009569 13.76399657 31.41986371 8.41015625 19.94091797 C7.58679634 18.17704958 6.76024309 16.41467292 5.93359375 14.65234375 C5.44117187 13.59402344 4.94875 12.53570312 4.44140625 11.4453125 C4.01545166 10.53281738 3.58949707 9.62032227 3.15063477 8.68017578 C1.93634203 5.85172137 0.97337871 2.92013614 0 0 Z " fill="#66CCFF" transform="translate(64,51)"/>
<path d="M0 0 C7.87470011 6.74974295 7.87470011 6.74974295 10.74913025 9.63560486 C11.40349564 10.29004074 12.05786102 10.94447662 12.73205566 11.6187439 C13.42367798 12.31553253 14.11530029 13.01232117 14.82788086 13.73022461 C15.95130638 14.85584053 15.95130638 14.85584053 17.09742737 16.00419617 C18.7130278 17.62358321 20.32747259 19.24412385 21.94087029 20.86570549 C24.49941057 23.43708402 27.06112686 26.00526049 29.62367249 28.57264709 C35.98631498 34.94861491 42.34350506 41.33001021 48.7008667 47.71124268 C54.07939899 53.10955555 59.46000707 58.50578335 64.84335518 63.8992939 C67.35792099 66.42030709 69.86943734 68.94433099 72.38084412 71.4684906 C73.93465475 73.02593655 75.48860752 74.58324071 77.04272461 76.14038086 C78.07712173 77.18252747 78.07712173 77.18252747 79.13241577 78.24572754 C83.03359916 82.1473294 87.04820288 85.84792036 91.22489262 89.45269489 C93.36182341 91.31539005 95.39098101 93.26401392 97.39648438 95.26708984 C98.1566687 96.02412201 98.91685303 96.78115417 99.70007324 97.56112671 C100.88494324 98.74903305 100.88494324 98.74903305 102.09375 99.9609375 C102.92588013 100.7921109 103.75801025 101.6232843 104.61535645 102.47964478 C106.35775501 104.22136729 108.09890928 105.96433539 109.83886719 107.70849609 C112.51643628 110.39146946 115.19936304 113.06900317 117.8828125 115.74609375 C119.57844616 117.44238736 121.27377005 119.13899069 122.96875 120.8359375 C123.77485718 121.64002045 124.58096436 122.44410339 125.41149902 123.27255249 C126.51394958 124.37973129 126.51394958 124.37973129 127.63867188 125.50927734 C128.28960815 126.16100922 128.94054443 126.81274109 129.61120605 127.48422241 C131 129 131 129 131 130 C87.77 130 44.54 130 0 130 C0 87.1 0 44.2 0 0 Z " fill="#65CBFF" transform="translate(256,51)"/>
<path d="M0 0 C2.35667853 2.94995012 4.0508039 5.91002158 5.6796875 9.3125 C6.18918945 10.37267334 6.69869141 11.43284668 7.22363281 12.52514648 C8.04105957 14.24519897 8.04105957 14.24519897 8.875 16 C9.45651767 17.21631714 10.03822709 18.43254262 10.62011719 19.64868164 C15.09803125 29.02643878 19.48180327 38.4475266 23.84130859 47.88085938 C28.3418511 57.61219586 32.9130355 67.30913813 37.5 77 C43.40839567 89.48359813 49.27077045 101.98707422 55.06640625 114.5234375 C55.55882813 115.58820313 56.05125 116.65296875 56.55859375 117.75 C56.98454834 118.67296875 57.41050293 119.5959375 57.84936523 120.546875 C58.57677325 122.09769098 59.34051561 123.63241704 60.15258789 125.140625 C61 127 61 127 61 130 C20.08 130 -20.84 130 -63 130 C-62.20231377 126.01156887 -61.53104198 123.69558571 -59.76611328 120.20751953 C-59.30117462 119.2810965 -58.83623596 118.35467346 -58.35720825 117.400177 C-57.85003265 116.40444672 -57.34285706 115.40871643 -56.8203125 114.3828125 C-56.29291473 113.33463348 -55.76551697 112.28645447 -55.22213745 111.20651245 C-53.52874885 107.84312004 -51.82735171 104.48386345 -50.125 101.125 C-47.9160283 96.75423475 -45.71068827 92.38165309 -43.5078125 88.0078125 C-42.96069611 86.92226074 -42.41357971 85.83670898 -41.84988403 84.71826172 C-37.73606706 76.52982513 -33.75346371 68.28447626 -29.82159424 60.00741577 C-26.25830872 52.51194316 -22.58511556 45.07811311 -18.8442688 37.66995239 C-13.58331012 27.24891108 -8.38632443 16.80713895 -3.47412109 6.21582031 C-1.0920676 1.0920676 -1.0920676 1.0920676 0 0 Z " fill="#CBF6FF" transform="translate(63,51)"/>
<path d="M0 0 C2.5683771 2.30459327 3.95891602 4.57830063 5.4609375 7.6730957 C5.9257251 8.62291824 6.3905127 9.57274078 6.86938477 10.55134583 C7.61466431 12.09794136 7.61466431 12.09794136 8.375 13.67578125 C8.89956787 14.75135788 9.42413574 15.82693451 9.96459961 16.93510437 C11.6488923 20.39143671 13.32472402 23.85178961 15 27.3125 C16.64204872 30.69137763 18.28586471 34.06939028 19.93009949 37.44720459 C21.01930223 39.68484471 22.10777154 41.92284198 23.19551086 44.16119385 C27.19454529 52.38038008 31.26457963 60.56203908 35.36503601 68.73100281 C38.42280833 74.82788017 41.4101987 80.95242153 44.3125 87.125 C47.39790985 93.64767986 50.54976386 100.13081362 53.8046875 106.5703125 C54.12731064 107.20965729 54.44993378 107.84900208 54.78233337 108.50772095 C56.3738237 111.65929503 57.97235506 114.8070082 59.58129883 117.94970703 C60.1564624 119.08520996 60.73162598 120.22071289 61.32421875 121.390625 C61.84072998 122.40157227 62.35724121 123.41251953 62.8894043 124.45410156 C64 127 64 127 64 130 C23.08 130 -17.84 130 -60 130 C-57.98776127 123.96328382 -55.96978142 118.45778101 -53.2265625 112.79296875 C-52.86682343 112.0388118 -52.50708435 111.28465485 -52.13644409 110.50764465 C-51.36853796 108.89911361 -50.598312 107.29168827 -49.82592773 105.68530273 C-47.7721191 101.41359788 -45.73528168 97.13379489 -43.6953125 92.85546875 C-43.28819031 92.00298553 -42.88106812 91.15050232 -42.46160889 90.27218628 C-39.08890583 83.20513576 -35.78045072 76.11039425 -32.5 69 C-25.50553181 53.86505818 -18.34794746 38.80797962 -11.19735718 23.74636841 C-7.44577675 15.83991293 -3.72112179 7.92082626 0 0 Z " fill="#2E6BE6" transform="translate(448,51)"/>
</svg>
