<?xml version="1.0" encoding="UTF-8"?>
<svg version="1.1" xmlns="http://www.w3.org/2000/svg" width="512" height="512">
<path d="M0 0 C0.84039609 -0.00453111 1.68079218 -0.00906223 2.54665482 -0.01373065 C5.36710653 -0.0264068 8.18736594 -0.02475221 11.00784302 -0.02310181 C13.02823129 -0.02908503 15.04861728 -0.0358901 17.06900024 -0.04345703 C22.56073883 -0.0611448 28.05241512 -0.06581357 33.54417944 -0.0670886 C38.1267666 -0.06898649 42.70933921 -0.07634272 47.29192078 -0.08343279 C58.10250912 -0.09972477 68.91306413 -0.10460099 79.72366333 -0.10317993 C90.8799594 -0.10197815 102.03606213 -0.12308541 113.19230926 -0.15466726 C122.766936 -0.18080712 132.3414995 -0.19154819 141.91616166 -0.19026911 C147.63628375 -0.18975882 153.35623405 -0.19547912 159.07632065 -0.21662521 C164.45586534 -0.23596904 169.83507367 -0.23615838 175.21463013 -0.22159195 C177.18911352 -0.21949799 179.16361775 -0.22423955 181.13806534 -0.23631287 C183.83365137 -0.2517283 186.52807222 -0.24248191 189.22363281 -0.22705078 C190.00496263 -0.23733791 190.78629246 -0.24762503 191.59129894 -0.25822389 C198.30062231 -0.17334822 202.30196921 2.58400872 206.91452026 7.18917847 C207.46679794 7.7358165 208.01907562 8.28245453 208.58808899 8.84565735 C209.17117325 9.43279007 209.75425751 10.01992279 210.35501099 10.62484741 C210.98665665 11.25298843 211.61830231 11.88112946 212.26908875 12.52830505 C214.34215514 14.59261469 216.4078738 16.66409921 218.47317505 18.73617554 C219.91683223 20.17848467 221.36078613 21.62049687 222.80502319 23.06222534 C225.82413461 26.07839399 228.83961335 29.09813596 231.85256958 32.12045288 C235.7150281 35.99432582 239.58642331 39.85912359 243.46056747 43.72130585 C246.44098695 46.69450138 249.41663031 49.67244015 252.39084625 52.65184021 C253.81673627 54.07906417 255.24411288 55.50480453 256.67299652 56.92903137 C258.66693208 58.91789082 260.65434903 60.91304365 262.64016724 62.91000366 C263.23134842 63.49713638 263.8225296 64.0842691 264.43162537 64.68919373 C269.34819809 69.65701936 270.98716222 72.4600558 270.99606895 79.45881462 C271.00251785 80.7380014 271.00896674 82.01718818 271.01561105 83.3351382 C271.01266867 84.75770728 271.00953322 86.18027596 271.00622559 87.60284424 C271.00996099 89.11169955 271.01456207 90.62055294 271.01995623 92.12940323 C271.0322152 96.28178029 271.03192237 100.43407695 271.02956748 104.58646798 C271.02916005 109.0623679 271.0401914 113.53824179 271.04968262 118.01412964 C271.06630925 126.78539615 271.07179291 135.55663578 271.07290737 144.32791673 C271.07385702 151.45592101 271.07796314 158.58391641 271.08430862 165.71191788 C271.10192525 185.91143121 271.11114679 206.11092327 271.10964768 226.31044434 C271.10956776 227.39984677 271.10948785 228.4892492 271.10940552 229.61166382 C271.10932376 230.70239296 271.10924199 231.79312209 271.10915776 232.91690363 C271.10834464 250.59858239 271.12748757 268.280176 271.15568225 285.96183012 C271.18438941 304.10773094 271.19822375 322.25359021 271.1964947 340.39951432 C271.19583007 350.59091227 271.20135441 360.78222095 271.2228508 370.97359848 C271.24103405 379.64997652 271.24543346 388.32622483 271.23183195 397.00261365 C271.22528794 401.43070826 271.22523656 405.85855377 271.24253845 410.28662491 C271.25821115 414.33935846 271.25546543 418.39164423 271.23797019 422.44436647 C271.23488744 423.91137149 271.23858051 425.37840945 271.24969034 426.84537564 C271.26378536 428.83832344 271.25084946 430.83140763 271.23657799 432.82435417 C271.23723009 434.48541594 271.23723009 434.48541594 271.23789537 436.18003452 C270.42119764 441.232106 267.36629556 444.88820847 263.81704712 448.44314575 C263.27040909 448.99542343 262.72377106 449.54770111 262.16056824 450.11671448 C261.57343552 450.69979874 260.9863028 451.282883 260.38137817 451.88363647 C259.43916664 452.83110497 259.43916664 452.83110497 258.47792053 453.79771423 C256.41361089 455.87078062 254.34212637 457.93649929 252.27005005 460.00180054 C250.82774092 461.44545772 249.38572872 462.88941162 247.94400024 464.33364868 C244.9278316 467.3527601 241.90808962 470.36823884 238.88577271 473.38119507 C235.01189976 477.24365358 231.147102 481.1150488 227.28491974 484.98919296 C224.3117242 487.96961244 221.33378544 490.9452558 218.35438538 493.91947174 C216.92716141 495.34536175 215.50142106 496.77273836 214.07719421 498.20162201 C212.08833477 500.19555757 210.09318194 502.18297452 208.09622192 504.16879272 C207.5090892 504.75997391 206.92195648 505.35115509 206.31703186 505.96025085 C200.69577263 511.52351572 197.30371171 512.56569777 189.4776001 512.53485107 C188.63720401 512.53938219 187.79680792 512.5439133 186.93094528 512.54858172 C184.11049357 512.56125788 181.29023416 512.55960328 178.46975708 512.55795288 C176.4493688 512.56393611 174.42898282 512.57074118 172.40859985 512.57830811 C166.91686126 512.59599587 161.42518498 512.60066465 155.93342066 512.60193968 C151.3508335 512.60383756 146.76826088 512.6111938 142.18567932 512.61828387 C131.37509098 512.63457585 120.56453597 512.63945207 109.75393677 512.63803101 C98.59764069 512.63682923 87.44153797 512.65793648 76.28529084 512.68951833 C66.7106641 512.71565819 57.1361006 512.72639927 47.56143844 512.72512019 C41.84131634 512.7246099 36.12136605 512.7303302 30.40127945 512.75147629 C25.02173475 512.77082011 19.64252643 512.77100945 14.26296997 512.75644302 C12.28848658 512.75434907 10.31398235 512.75909063 8.33953476 512.77116394 C5.64394872 512.78657937 2.94952787 512.77733299 0.25396729 512.76190186 C-0.52736254 512.77218898 -1.30869236 512.78247611 -2.11369884 512.79307497 C-8.82302221 512.7081993 -12.82436911 509.95084235 -17.43692017 505.34567261 C-17.98919785 504.79903458 -18.54147552 504.25239655 -19.11048889 503.68919373 C-19.69357315 503.102061 -20.27665741 502.51492828 -20.87741089 501.91000366 C-21.50905655 501.28186264 -22.14070221 500.65372162 -22.79148865 500.00654602 C-24.86455504 497.94223638 -26.93027371 495.87075186 -28.99557495 493.79867554 C-30.43923213 492.3563664 -31.88318603 490.91435421 -33.3274231 489.47262573 C-36.34653451 486.45645708 -39.36201325 483.43671511 -42.37496948 480.41439819 C-46.237428 476.54052525 -50.10882321 472.67572748 -53.98296738 468.81354523 C-56.96338686 465.84034969 -59.93903022 462.86241093 -62.91324615 459.88301086 C-64.33913617 458.4557869 -65.76651278 457.03004654 -67.19539642 455.6058197 C-69.18933199 453.61696026 -71.17674893 451.62180742 -73.16256714 449.62484741 C-73.75374832 449.03771469 -74.3449295 448.45058197 -74.95402527 447.84565735 C-79.87059799 442.87783171 -81.50956212 440.07479528 -81.51846886 433.07603645 C-81.52491775 431.79684967 -81.53136664 430.51766289 -81.53801095 429.19971287 C-81.53506857 427.7771438 -81.53193313 426.35457511 -81.52862549 424.93200684 C-81.53236089 423.42315152 -81.53696197 421.91429814 -81.54235613 420.40544784 C-81.5546151 416.25307079 -81.55432227 412.10077412 -81.55196738 407.94838309 C-81.55155995 403.47248318 -81.56259131 398.99660929 -81.57208252 394.52072144 C-81.58870915 385.74945493 -81.59419281 376.97821529 -81.59530728 368.20693435 C-81.59625692 361.07893007 -81.60036304 353.95093467 -81.60670853 346.8229332 C-81.62432515 326.62341987 -81.63354669 306.4239278 -81.63204758 286.22440673 C-81.63196767 285.13500431 -81.63188775 284.04560188 -81.63180542 282.92318726 C-81.63172366 281.83245812 -81.6316419 280.74172898 -81.63155766 279.61794744 C-81.63074455 261.93626869 -81.64988748 244.25467507 -81.67808215 226.57302095 C-81.70678931 208.42712013 -81.72062366 190.28126087 -81.7188946 172.13533676 C-81.71822997 161.94393881 -81.72375432 151.75263012 -81.7452507 141.56125259 C-81.76343395 132.88487455 -81.76783336 124.20862624 -81.75423186 115.53223743 C-81.74768785 111.10414282 -81.74763647 106.6762973 -81.76493835 102.24822617 C-81.78061105 98.19549261 -81.77786533 94.14320685 -81.76037009 90.0904846 C-81.75728734 88.62347958 -81.76098041 87.15644162 -81.77209024 85.68947543 C-81.78618526 83.69652764 -81.77324936 81.70344344 -81.75897789 79.7104969 C-81.75941263 78.60312239 -81.75984736 77.49574787 -81.76029527 76.35481656 C-80.94359754 71.30274508 -77.88869546 67.6466426 -74.33944702 64.09170532 C-73.79280899 63.53942764 -73.24617096 62.98714996 -72.68296814 62.4181366 C-72.09583542 61.83505234 -71.5087027 61.25196808 -70.90377808 60.6512146 C-70.27563705 60.01956894 -69.64749603 59.38792328 -69.00032043 58.73713684 C-66.9360108 56.66407045 -64.86452628 54.59835178 -62.79244995 52.53305054 C-61.35014082 51.08939336 -59.90812862 49.64543946 -58.46640015 48.20120239 C-55.4502315 45.18209097 -52.43048952 42.16661224 -49.40817261 39.15365601 C-45.53429967 35.29119749 -41.6695019 31.41980228 -37.80731964 27.54565811 C-34.8341241 24.56523863 -31.85618534 21.58959527 -28.87678528 18.61537933 C-27.44956132 17.18948932 -26.02382096 15.76211271 -24.59959412 14.33322906 C-22.61073467 12.3392935 -20.61558184 10.35187656 -18.61862183 8.36605835 C-17.73792274 7.47928658 -17.73792274 7.47928658 -16.83943176 6.57460022 C-11.21817253 1.01133535 -7.82611162 -0.0308467 0 0 Z " fill="#6AE52D" transform="translate(161.26119995117188,-0.267425537109375)"/>
<path d="M0 0 C5.08741451 1.48909187 7.97230177 4.55353498 11.59448242 8.22216797 C12.23573563 8.85977051 12.87698883 9.49737305 13.53767395 10.15429688 C15.6510691 12.25959945 17.75343193 14.37554874 19.85546875 16.4921875 C21.32275648 17.95999396 22.79056285 19.42728214 24.25886536 20.89407349 C27.33251892 23.96781672 30.40094241 27.04665873 33.46557617 30.12939453 C37.39474544 34.08126047 41.33490119 38.02194827 45.27880383 41.95910454 C48.31004499 44.98700502 51.33627767 48.01987027 54.36092567 51.05435562 C55.81207185 52.50935158 57.26456967 53.96300075 58.71843529 55.41527939 C60.74850606 57.44497948 62.77195769 59.48105255 64.79370117 61.51904297 C65.69685562 62.41848129 65.69685562 62.41848129 66.61825562 63.33609009 C67.44454216 64.17300385 67.44454216 64.17300385 68.28752136 65.02682495 C68.76589038 65.50724684 69.2442594 65.98766872 69.73712444 66.48264885 C72.86142932 70.23651642 73.25112253 73.36167754 73.25726891 78.19138908 C73.2637178 79.47057587 73.27016669 80.74976265 73.276811 82.06771266 C73.27386862 83.49028174 73.27073317 84.91285043 73.26742554 86.3354187 C73.27116094 87.84427402 73.27576202 89.3531274 73.28115618 90.8619777 C73.29341515 95.01435475 73.29312232 99.16665141 73.29076743 103.31904244 C73.29036 107.79494236 73.30139135 112.27081625 73.31088257 116.7467041 C73.3275092 125.51797061 73.33299286 134.28921024 73.33410732 143.06049119 C73.33505697 150.18849547 73.33916309 157.31649087 73.34550858 164.44449234 C73.3631252 184.64400567 73.37234674 204.84349773 73.37084763 225.0430188 C73.37076772 226.13242123 73.3706878 227.22182366 73.37060547 228.34423828 C73.37052371 229.43496742 73.37044195 230.52569656 73.37035771 231.64947809 C73.36954459 249.33115685 73.38868752 267.01275046 73.4168822 284.69440459 C73.44558936 302.84030541 73.45942371 320.98616467 73.45769465 339.13208878 C73.45703002 349.32348673 73.46255437 359.51479541 73.48405075 369.70617294 C73.502234 378.38255098 73.50663341 387.0587993 73.4930319 395.73518811 C73.48648789 400.16328272 73.48643652 404.59112824 73.5037384 409.01919937 C73.5194111 413.07193293 73.51666538 417.12421869 73.49917014 421.17694093 C73.49608739 422.64394595 73.49978046 424.11098391 73.51089029 425.57795011 C73.52498531 427.5708979 73.51204941 429.5639821 73.49777794 431.55692863 C73.49821267 432.66430315 73.49864741 433.77167766 73.49909532 434.91260898 C72.68212518 439.96636556 69.6234697 443.62175667 66.07824707 447.18244934 C65.53160904 447.73617218 64.98497101 448.28989502 64.42176819 448.86039734 C63.83463547 449.44505264 63.24750275 450.02970795 62.64257812 450.63208008 C62.0144371 451.26533203 61.38629608 451.89858398 60.73912048 452.55102539 C58.67494681 454.62902626 56.60350233 456.6995888 54.53125 458.76953125 C53.08901333 460.21565682 51.64700003 461.66200519 50.2052002 463.10856628 C47.1891867 466.13202585 44.16934702 469.15160073 41.14697266 472.16870117 C37.27134548 476.03851659 33.40724178 479.91961767 29.54611969 483.80389881 C26.57454191 486.7901883 23.59608772 489.76954363 20.61558533 492.74692345 C19.18747414 494.17554849 17.76172938 495.60654314 16.33839417 497.03992653 C14.35181095 499.03881527 12.35596157 501.02796811 10.35742188 503.01489258 C9.47672279 503.90705727 9.47672279 503.90705727 8.57823181 504.81724548 C5.78459428 507.5750358 3.86350503 509.27555327 0 510 C-0.36125977 509.4831665 -0.72251953 508.96633301 -1.09472656 508.43383789 C-7.37973812 499.44404799 -13.6676162 490.45650813 -20 481.5 C-24.94611614 474.50404504 -29.86302849 467.48799631 -34.77148438 460.46557617 C-38.66265128 454.90144503 -42.5759446 449.35346873 -46.5 443.8125 C-50.42484187 438.26766877 -54.29882286 432.69786481 -58 427 C-56.56083251 423.5573274 -54.83666954 421.79837917 -51.91742706 419.50800896 C-21.52689573 395.12917236 -21.52689573 395.12917236 -7.8976059 359.92321968 C-6.98795969 348.82545742 -6.92944638 337.76521521 -7.15814018 326.63970804 C-7.21970631 322.63307704 -7.21113322 318.63353687 -7.16804504 314.62701035 C-7.15729534 313.61447778 -7.15729534 313.61447778 -7.14632848 312.58149 C-7.13142828 311.208082 -7.11635555 309.83467587 -7.10111266 308.46127163 C-6.96962615 295.72250114 -7.09811479 282.99714944 -7.32209665 270.26034282 C-7.50595185 259.44758586 -7.45670319 248.65614384 -7.24316406 237.84423828 C-2.23642095 167.90576235 -2.23642095 167.90576235 -27.9423461 106.96663249 C-36.68910514 98.03019904 -46.91274845 90.74734679 -58 85 C-56.72314545 81.72071671 -55.41628233 78.88892096 -53.41796875 75.98828125 C-52.90476074 75.23973877 -52.39155273 74.49119629 -51.86279297 73.7199707 C-51.30994629 72.92550537 -50.75709961 72.13104004 -50.1875 71.3125 C-49.6114502 70.4774292 -49.03540039 69.6423584 -48.44189453 68.78198242 C-43.96049148 62.31310573 -39.36853386 55.92749207 -34.73925781 49.56396484 C-30.76857836 44.09679214 -26.91144941 38.56158713 -23.10205078 32.98120117 C-18.25854106 25.89238504 -13.29348068 18.89078702 -8.33203125 11.88427734 C-5.53926716 7.93366275 -2.76855268 3.96760895 0 0 Z " fill="#43CB28" transform="translate(359,1)"/>
<path d="M0 0 C0 112.86 0 225.72 0 342 C-55.13995757 342 -55.13995757 342 -70.453125 326.8125 C-70.93116986 326.35473804 -71.40921473 325.89697609 -71.9017458 325.42534256 C-97.2179551 300.94130474 -96.63893007 265.41486828 -97.23604372 232.3537302 C-97.47305626 216.93042488 -97.25516937 201.51527182 -96.95524424 186.0946312 C-96.74948649 175.3068606 -96.78726051 164.54224692 -96.99707031 153.75488281 C-99.0531795 44.92571283 -99.0531795 44.92571283 -74.85748601 19.48723125 C-73.4084129 18.03287157 -71.93592158 16.60738318 -70.453125 15.1875 C-69.55575371 14.29749298 -68.65838242 13.40748596 -67.73381805 12.49050903 C-47.91168656 -5.86213475 -27.13604665 0 0 0 Z " fill="#98FE32" transform="translate(256,85)"/>
<path d="M0 0 C3.57524242 1.43009697 5.91334269 2.44944264 8.94140625 4.546875 C9.67907227 5.05452393 10.41673828 5.56217285 11.17675781 6.08520508 C11.96405273 6.6345874 12.75134766 7.18396973 13.5625 7.75 C14.39749023 8.32709717 15.23248047 8.90419434 16.09277344 9.4987793 C18.73280413 11.32643596 21.36723138 13.16190035 24 15 C24.8151709 15.5686377 25.6303418 16.13727539 26.47021484 16.72314453 C30.56880161 19.58445334 34.66261746 22.45248676 38.75390625 25.32421875 C44.38628832 29.27532463 50.03685234 33.20008311 55.6875 37.125 C62.76362103 42.04323089 69.83123873 46.97300797 76.875 51.9375 C77.58873779 52.43975098 78.30247559 52.94200195 79.0378418 53.45947266 C83.87840115 56.87840115 83.87840115 56.87840115 85 58 C85.10697536 59.33081138 85.14572478 60.66719072 85.15656757 62.00225067 C85.16595901 62.86954032 85.17535044 63.73682998 85.18502647 64.63040113 C85.19029906 65.59408629 85.19557166 66.55777144 85.20100403 67.55065918 C85.21498585 69.07374781 85.21498585 69.07374781 85.22925013 70.62760592 C85.2591923 74.05835644 85.2816609 77.48911368 85.30395508 80.91992188 C85.32330203 83.36849174 85.34292615 85.81705942 85.36280823 88.265625 C85.53637918 110.64456955 85.62998566 133.0242068 85.70387745 155.40367889 C85.71394598 158.39997927 85.7241969 161.39627896 85.73461914 164.39257812 C85.73720136 165.13730552 85.73978359 165.88203292 85.74244406 166.64932781 C85.78553674 178.7036431 85.87393018 190.75720436 85.97996906 202.81111234 C86.08792769 215.18593046 86.15031185 227.56035738 86.16973227 239.93563509 C86.18187873 246.884382 86.21456619 253.83173952 86.29932594 260.78001404 C86.3790912 267.32041129 86.39789291 273.85898039 86.37558556 280.39996338 C86.3772891 282.79900179 86.39952151 285.19812791 86.44392395 287.59675598 C86.77911196 306.68209148 86.77911196 306.68209148 82.37546349 311.37313843 C79.51517055 313.78460455 76.38009884 315.40429157 73 317 C71.65782069 317.90299768 70.32869569 318.82679859 69.03125 319.79296875 C67.85579703 320.59354488 66.67869582 321.39170606 65.5 322.1875 C64.125765 323.12421254 62.75209398 324.06175287 61.37890625 325 C60.66750488 325.48597656 59.95610352 325.97195313 59.22314453 326.47265625 C55.27604237 329.18439259 51.35770782 331.93709394 47.4375 334.6875 C2.76633572 366 2.76633572 366 0 366 C0 245.22 0 124.44 0 0 Z " fill="#6AE52D" transform="translate(80,73)"/>
<path d="M0 0 C1.26694423 -0.00256327 1.26694423 -0.00256327 2.55948329 -0.00517833 C5.39396912 -0.00847656 8.22821903 0.00253597 11.06268311 0.01345825 C13.0928039 0.01402229 15.1229251 0.01370594 17.15304565 0.01257324 C22.6691974 0.01199846 28.1852625 0.02377318 33.70139408 0.03772116 C39.46429571 0.05020751 45.22719924 0.05139736 50.9901123 0.05377197 C61.90519941 0.05999291 72.82024655 0.07641203 83.73531604 0.09647095 C96.16080164 0.11881087 108.58628912 0.12981858 121.0117898 0.13986182 C146.57402381 0.16077771 172.13622231 0.19596562 197.69842529 0.24050903 C196.51572642 3.26443352 195.37899557 5.96537903 193.51873779 8.63113403 C193.09101074 9.24891724 192.66328369 9.86670044 192.22259521 10.50320435 C191.76086914 11.15901489 191.29914307 11.81482544 190.82342529 12.49050903 C190.3365625 13.19014771 189.84969971 13.88978638 189.3480835 14.61062622 C187.80425504 16.82490181 186.25261282 19.03349438 184.69842529 21.24050903 C184.21518799 21.92757935 183.73195068 22.61464966 183.23406982 23.32254028 C180.78345913 26.80415494 178.3265281 30.28124387 175.86639404 33.75613403 C172.45957634 38.57204316 169.07828125 43.40565613 165.69842529 48.24050903 C160.77312568 55.28459631 155.83189645 62.31706734 150.86834717 69.33425903 C150.19835693 70.28171997 150.19835693 70.28171997 149.51483154 71.24832153 C149.073806 71.83774033 148.63278046 72.42715912 148.1783905 73.03443909 C146.61444006 75.22768483 146.61444006 75.22768483 145.5526886 77.83146667 C143.92191933 81.05786289 142.54957937 82.98765081 139.69842529 85.24050903 C134.25906968 86.11108555 129.12244628 85.65211879 123.66148376 85.11373138 C118.90122235 84.66411903 114.12826797 84.44229771 109.35418701 84.18997192 C107.85617491 84.10570859 107.85617491 84.10570859 106.32789993 84.01974297 C66.54912666 81.03124914 66.54912666 81.03124914 32.04466629 97.77551842 C28.30140197 101.23461604 24.88770213 104.93478747 21.57342529 108.80300903 C21.11189812 109.34092197 20.65037094 109.87883492 20.17485809 110.43304825 C14.56117153 117.05193685 9.41901961 123.95621462 4.69842529 131.24050903 C0.27084897 129.57794147 -3.18749172 127.27895951 -6.92657471 124.42800903 C-12.62915987 120.16450631 -18.41130282 116.05310983 -24.30157471 112.05300903 C-31.41333556 107.21811313 -38.49545353 102.3438113 -45.55157471 97.42800903 C-46.49847168 96.76841187 -47.44536865 96.1088147 -48.42095947 95.42922974 C-50.3677862 94.07272794 -52.3144804 92.71603591 -54.26104736 91.35916138 C-59.58472845 87.64959782 -64.91213682 83.9453935 -70.23907471 80.24050903 C-72.18570515 78.88636517 -74.13232126 77.53220069 -76.07891846 76.17800903 C-76.89610352 75.60953247 -77.71328857 75.04105591 -78.55523682 74.45535278 C-79.13152832 74.05445435 -79.70781982 73.65355591 -80.30157471 73.24050903 C-78.81248284 68.15309453 -75.74803972 65.26820726 -72.07940674 61.64602661 C-71.4418042 61.00477341 -70.80420166 60.3635202 -70.14727783 59.70283508 C-68.04197526 57.58943993 -65.92602597 55.4870771 -63.80938721 53.38504028 C-62.34158075 51.91775255 -60.87429257 50.44994618 -59.40750122 48.98164368 C-56.33375799 45.90799011 -53.25491597 42.83956662 -50.17218018 39.77493286 C-46.22031424 35.84576359 -42.27962643 31.90560785 -38.34247017 27.96170521 C-35.31456969 24.93046404 -32.28170444 21.90423137 -29.24721909 18.87958336 C-27.79222313 17.42843719 -26.33857395 15.97593936 -24.88629532 14.52207375 C-22.85659523 12.49200297 -20.82052216 10.46855134 -18.78253174 8.44680786 C-17.88309341 7.54365341 -17.88309341 7.54365341 -16.96548462 6.62225342 C-16.40754211 6.07139572 -15.84959961 5.52053802 -15.27474976 4.95298767 C-14.55411693 4.23543415 -14.55411693 4.23543415 -13.81892586 3.50338459 C-9.50617553 -0.08607259 -5.44002248 -0.04012215 0 0 Z " fill="#44CC29" transform="translate(161.30157470703125,-0.240509033203125)"/>
<path d="M0 0 C5.08804314 1.48998368 7.98223265 4.55718091 11.61035156 8.22216797 C12.25321106 8.85977051 12.89607056 9.49737305 13.55841064 10.15429688 C15.67674779 12.25945289 17.78394926 14.37536638 19.890625 16.4921875 C21.36038079 17.95992227 22.83058166 19.42721148 24.3012085 20.89407349 C27.37921319 23.96765758 30.45173166 27.0465971 33.52050781 30.12939453 C37.45703031 34.08302349 41.40688671 38.02301275 45.36093521 41.95910454 C48.39804938 44.98538681 51.42799251 48.01876742 54.45580292 51.05435562 C55.90968271 52.51023826 57.36579875 53.96389123 58.82416534 55.41527939 C60.85919503 57.44270308 62.88438051 59.47947282 64.90722656 61.51904297 C65.81577393 62.41848129 65.81577393 62.41848129 66.74267578 63.33609009 C69.51945438 66.15561811 71.27350487 68.10045839 72 72 C70.77604167 72.85677083 69.55208333 73.71354167 68.328125 74.5703125 C67.12965942 75.40925049 67.12965942 75.40925049 65.90698242 76.26513672 C64.10769648 77.52462035 62.30837914 78.78405912 60.5090332 80.04345703 C56.01442265 83.1894118 51.52017368 86.33587769 47.02734375 89.484375 C37.23759072 96.34352574 27.4330792 103.18102254 17.61767578 110.00341797 C8.06290412 116.64675436 -1.47116329 123.31953423 -11 130 C-14.48972003 128.50469676 -16.73465395 126.50808338 -19.40136719 123.82568359 C-20.2619574 122.96494232 -21.12254761 122.10420105 -22.00921631 121.21737671 C-22.92914368 120.28712677 -23.84907104 119.35687683 -24.796875 118.3984375 C-25.75479097 117.43678914 -26.71315114 116.47558306 -27.67193604 115.51480103 C-30.18835125 112.99076718 -32.69870107 110.46078409 -35.20782471 107.92950439 C-37.77162441 105.3452081 -40.34112918 102.76659801 -42.91015625 100.1875 C-47.94569457 95.13054303 -52.9748456 90.06727744 -58 85 C-56.72314545 81.72071671 -55.41628233 78.88892096 -53.41796875 75.98828125 C-52.90476074 75.23973877 -52.39155273 74.49119629 -51.86279297 73.7199707 C-51.30994629 72.92550537 -50.75709961 72.13104004 -50.1875 71.3125 C-49.6114502 70.4774292 -49.03540039 69.6423584 -48.44189453 68.78198242 C-43.96049148 62.31310573 -39.36853386 55.92749207 -34.73925781 49.56396484 C-30.76857836 44.09679214 -26.91144941 38.56158713 -23.10205078 32.98120117 C-18.25854106 25.89238504 -13.29348068 18.89078702 -8.33203125 11.88427734 C-5.53926716 7.93366275 -2.76855268 3.96760895 0 0 Z " fill="#33991F" transform="translate(359,1)"/>
<path d="M0 0 C3.7395146 1.43368096 6.6132979 3.01416738 9.8125 5.4375 C14.29277401 8.76485016 18.82856975 11.9784968 23.4375 15.125 C29.50531928 19.27574856 35.54365061 23.46604904 41.5625 27.6875 C50.01398274 33.61435304 58.48237023 39.51648231 66.95922852 45.40698242 C72.98139765 49.59246251 78.99465671 53.79041192 85 58 C83.51001632 63.08804314 80.44281909 65.98223265 76.77783203 69.61035156 C76.14022949 70.25321106 75.50262695 70.89607056 74.84570312 71.55841064 C72.74054711 73.67674779 70.62463362 75.78394926 68.5078125 77.890625 C67.04007773 79.36038079 65.57278852 80.83058166 64.10592651 82.3012085 C61.03234242 85.37921319 57.9534029 88.45173166 54.87060547 91.52050781 C50.91697651 95.45703031 46.97698725 99.40688671 43.04089546 103.36093521 C40.01461319 106.39804938 36.98123258 109.42799251 33.94564438 112.45580292 C32.48976174 113.90968271 31.03610877 115.36579875 29.58472061 116.82416534 C27.55729692 118.85919503 25.52052718 120.88438051 23.48095703 122.90722656 C22.88133148 123.5129248 22.28170593 124.11862305 21.66390991 124.74267578 C18.84438189 127.51945438 16.89954161 129.27350487 13 130 C12.63874023 129.4831665 12.27748047 128.96633301 11.90527344 128.43383789 C5.62026188 119.44404799 -0.6676162 110.45650813 -7 101.5 C-11.94611614 94.50404504 -16.86302849 87.48799631 -21.77148438 80.46557617 C-25.66265128 74.90144503 -29.5759446 69.35346873 -33.5 63.8125 C-37.42484187 58.26766877 -41.29882286 52.69786481 -45 47 C-43.50469676 43.51027997 -41.50808338 41.26534605 -38.82568359 38.59863281 C-37.96494232 37.7380426 -37.10420105 36.87745239 -36.21737671 35.99078369 C-35.28712677 35.07085632 -34.35687683 34.15092896 -33.3984375 33.203125 C-32.43678914 32.24520903 -31.47558306 31.28684886 -30.51480103 30.32806396 C-27.99076718 27.81164875 -25.46078409 25.30129893 -22.92950439 22.79217529 C-20.3452081 20.22837559 -17.76659801 17.65887082 -15.1875 15.08984375 C-10.13054303 10.05430543 -5.06727744 5.0251544 0 0 Z " fill="#33991F" transform="translate(346,381)"/>
<path d="M0 0 C3.48972003 1.49530324 5.73465395 3.49191662 8.40136719 6.17431641 C9.2619574 7.03505768 10.12254761 7.89579895 11.00921631 8.78262329 C11.92914368 9.71287323 12.84907104 10.64312317 13.796875 11.6015625 C14.75479097 12.56321086 15.71315114 13.52441694 16.67193604 14.48519897 C19.18835125 17.00923282 21.69870107 19.53921591 24.20782471 22.07049561 C26.77162441 24.6547919 29.34112918 27.23340199 31.91015625 29.8125 C36.94569457 34.86945697 41.9748456 39.93272256 47 45 C45.59531921 48.63958694 44.04757263 51.62177544 41.796875 54.81640625 C41.15331055 55.73534668 40.50974609 56.65428711 39.84667969 57.60107422 C39.15477539 58.57834473 38.46287109 59.55561523 37.75 60.5625 C37.03489258 61.58102051 36.31978516 62.59954102 35.58300781 63.64892578 C34.10681569 65.75091629 32.62861296 67.85149616 31.1484375 69.95068359 C28.58273524 73.59223146 26.0316285 77.24381746 23.48144531 80.89624023 C18.1995797 88.45782816 12.88911111 95.9990243 7.56445312 103.53051758 C1.34547779 112.33203721 -4.82585347 121.16700491 -11 130 C-16.08804314 128.51001632 -18.98223265 125.44281909 -22.61035156 121.77783203 C-23.25321106 121.14022949 -23.89607056 120.50262695 -24.55841064 119.84570312 C-26.67674779 117.74054711 -28.78394926 115.62463362 -30.890625 113.5078125 C-32.36038079 112.04007773 -33.83058166 110.57278852 -35.3012085 109.10592651 C-38.37921319 106.03234242 -41.45173166 102.9534029 -44.52050781 99.87060547 C-48.45703031 95.91697651 -52.40688671 91.97698725 -56.36093521 88.04089546 C-59.39804938 85.01461319 -62.42799251 81.98123258 -65.45580292 78.94564438 C-66.90968271 77.48976174 -68.36579875 76.03610877 -69.82416534 74.58472061 C-71.85919503 72.55729692 -73.88438051 70.52052718 -75.90722656 68.48095703 C-76.5129248 67.88133148 -77.11862305 67.28170593 -77.74267578 66.66390991 C-80.51945438 63.84438189 -82.27350487 61.89954161 -83 58 C-72.57457896 50.69095793 -62.14061443 43.3943929 -51.6875 36.125 C-50.73335205 35.46145508 -49.7792041 34.79791016 -48.79614258 34.11425781 C-43.87412692 30.69203787 -38.95104429 27.27135778 -34.02734375 23.8515625 C-22.65149226 15.9477683 -11.30156539 8.00970004 0 0 Z " fill="#44CC29" transform="translate(164,381)"/>
<path d="M0 0 C7.1775 -0.350625 14.355 -0.70125 21.75 -1.0625 C23.99006836 -1.21726807 26.23013672 -1.37203613 28.53808594 -1.53149414 C42.24122308 -2.08360492 42.24122308 -2.08360492 47.0725708 1.56533813 C50.79019156 5.5550698 53.40444835 10.10785488 55.90258789 14.92868042 C57.30011813 17.56646045 58.97203308 19.93203462 60.7421875 22.33203125 C61.78680038 23.82528161 62.83107641 25.31876768 63.875 26.8125 C64.4510498 27.63596924 65.02709961 28.45943848 65.62060547 29.30786133 C68.01127711 32.72537472 70.40111522 36.14347068 72.79101562 39.56152344 C74.56871112 42.10372513 76.34675817 44.64568044 78.125 47.1875 C78.70169434 48.0120166 79.27838867 48.8365332 79.87255859 49.68603516 C83.21634617 54.46327925 86.57382173 59.23049056 89.94384766 63.98925781 C103 82.43255805 103 82.43255805 103 85 C69.01 85 35.02 85 0 85 C0 56.95 0 28.9 0 0 Z " fill="#43CB28" transform="translate(256,427)"/>
<path d="M0 0 C33.99 0 67.98 0 103 0 C100.74964668 5.6258833 100.74964668 5.6258833 98.8203125 8.390625 C98.39258545 9.0084082 97.9648584 9.62619141 97.52416992 10.26269531 C97.06244385 10.91850586 96.60071777 11.57431641 96.125 12.25 C95.39470581 13.29945801 95.39470581 13.29945801 94.6496582 14.37011719 C93.10582975 16.58439278 91.55418753 18.79298535 90 21 C89.5167627 21.68707031 89.03352539 22.37414062 88.53564453 23.08203125 C86.08503384 26.5636459 83.62810281 30.04073484 81.16796875 33.515625 C77.76115105 38.33153413 74.37985596 43.1651471 71 48 C66.07470039 55.04408727 61.13347116 62.07655831 56.16992188 69.09375 C55.72326172 69.72539063 55.27660156 70.35703125 54.81640625 71.0078125 C54.34485107 71.63413574 53.8732959 72.26045898 53.38745117 72.90576172 C51.89038421 75.01609062 51.89038421 75.01609062 50.90356445 77.69189453 C49.27554467 81.10358691 48.1044817 82.78958954 45 85 C37.57927224 86.71955352 29.59375817 85.92498667 22.0625 85.625 C14.781875 85.41875 7.50125 85.2125 0 85 C0 56.95 0 28.9 0 0 Z " fill="#43CB28" transform="translate(256,0)"/>
<path d="M0 0 C33.99 0 67.98 0 103 0 C103 28.05 103 56.1 103 85 C95.8225 85.350625 88.645 85.70125 81.25 86.0625 C77.88989746 86.2946521 77.88989746 86.2946521 74.46191406 86.53149414 C60.75877692 87.08360492 60.75877692 87.08360492 55.9274292 83.43466187 C52.20980844 79.4449302 49.59555165 74.89214512 47.09741211 70.07131958 C45.69988187 67.43353955 44.02796692 65.06796538 42.2578125 62.66796875 C41.21319962 61.17471839 40.16892359 59.68123232 39.125 58.1875 C38.5489502 57.36403076 37.97290039 56.54056152 37.37939453 55.69213867 C34.98872289 52.27462528 32.59888478 48.85652932 30.20898438 45.43847656 C28.43128888 42.89627487 26.65324183 40.35431956 24.875 37.8125 C24.0099585 36.5757251 24.0099585 36.5757251 23.12744141 35.31396484 C19.78365383 30.53672075 16.42617827 25.76950944 13.05615234 21.01074219 C0 2.56744195 0 2.56744195 0 0 Z " fill="#6AE52D" transform="translate(153,0)"/>
</svg>
