<?xml version="1.0" encoding="UTF-8"?>
<svg version="1.1" xmlns="http://www.w3.org/2000/svg" width="512" height="512">
<path d="M0 0 C0.94641959 -0.00453111 1.89283919 -0.00906223 2.86793816 -0.01373065 C6.05313125 -0.02643522 9.23815467 -0.02475038 12.42337036 -0.02310181 C14.70138775 -0.02908327 16.9794031 -0.03588792 19.25741577 -0.04345703 C25.45573406 -0.06116297 31.65399718 -0.06581434 37.85233831 -0.0670886 C43.02150628 -0.06898483 48.1906613 -0.07633917 53.3598243 -0.08343279 C64.85562082 -0.0988001 76.35138578 -0.10476914 87.84719108 -0.10342209 C88.8821508 -0.10330222 88.8821508 -0.10330222 89.9380188 -0.10317993 C90.62883337 -0.10309817 91.31964794 -0.10301641 92.03139628 -0.10293217 C103.22790936 -0.10211921 114.42428793 -0.12125846 125.62076209 -0.14945666 C137.11425217 -0.17817473 148.60765924 -0.19163115 160.10118783 -0.19026911 C166.5551385 -0.18975841 173.00893701 -0.1955016 179.46285629 -0.21662521 C185.5318241 -0.23594571 191.6004936 -0.23617438 197.66947174 -0.22159195 C199.89915781 -0.21949507 202.12886224 -0.22425672 204.35851669 -0.23631287 C207.39821928 -0.25168673 210.43688321 -0.2425089 213.4765625 -0.22705078 C214.80569666 -0.24248147 214.80569666 -0.24248147 216.16168201 -0.25822389 C220.26179757 -0.21202352 222.33265676 -0.0708082 225.87120247 2.17635155 C230.67457941 7.21341381 230.20050734 12.00163079 230.17776489 18.64242554 C230.19387817 19.57570679 230.20999146 20.50898804 230.22659302 21.47055054 C230.23032985 26.74696254 230.10224347 30.86513467 226.86526489 35.26742554 C220.86526489 38.26742554 220.86526489 38.26742554 203.86526489 38.26742554 C203.86526489 50.80742554 203.86526489 63.34742554 203.86526489 76.26742554 C205.35026489 75.77242554 205.35026489 75.77242554 206.86526489 75.26742554 C212.48126406 74.8991633 216.04192479 75.05186547 220.86526489 78.26742554 C224.78794217 82.14769549 226.70505506 85.37694957 227.17776489 90.95492554 C227.03469389 98.60030689 222.69847933 103.8947879 217.41760254 109.03503418 C216.70262604 109.71049286 215.98764954 110.38595154 215.25100708 111.08187866 C214.48964447 111.81812469 213.72828186 112.55437073 212.94384766 113.31292725 C211.29896242 114.90264682 209.6498847 116.48803764 207.99706268 118.06950378 C205.37845286 120.5809844 202.77820332 123.11012112 200.18295288 125.64572144 C192.80690113 132.85133668 185.4213181 140.04602838 177.97073364 147.1746521 C173.40551906 151.54515237 168.88086003 155.9542924 164.37970734 160.39070129 C162.66379873 162.06716773 160.93340229 163.72894385 159.18828583 165.37498474 C148.20582974 175.00555702 148.20582974 175.00555702 143.72340775 188.23339081 C143.84324391 191.33530392 144.23180599 194.22731673 144.86526489 197.26742554 C145.46806274 197.35894897 146.0708606 197.45047241 146.69192505 197.54476929 C169.62994826 201.21402845 192.18460574 214.72063983 209.86526489 229.26742554 C213.58914006 225.59801289 217.15249072 221.81447825 220.67776489 217.95492554 C222.73644584 215.72220983 224.80033776 213.49436347 226.86526489 211.26742554 C227.55878052 210.51719116 228.25229614 209.76695679 228.96682739 208.99398804 C232.83869695 204.95735807 237.01690161 201.33887972 241.36526489 197.82992554 C241.88725464 197.39204712 242.40924438 196.9541687 242.947052 196.50302124 C247.30126636 193.09675493 250.48924277 192.46331298 255.86526489 192.26742554 C258.25588989 192.68539429 258.25588989 192.68539429 260.11526489 193.45492554 C260.73917114 193.69598022 261.36307739 193.93703491 262.00588989 194.18539429 C265.57082764 196.2599484 267.51542631 198.25843164 268.87698364 202.18539429 C269.21149536 203.80381226 269.21149536 203.80381226 269.55276489 205.45492554 C269.78350708 206.52098022 270.01424927 207.58703491 270.25198364 208.68539429 C271.62532118 216.7067352 272.09978327 224.70565952 272.42776489 232.82992554 C272.47094849 233.83861694 272.51413208 234.84730835 272.55862427 235.88656616 C272.66356107 238.34675128 272.7657219 240.80701729 272.86526489 243.26742554 C273.40715454 242.9708606 273.94904419 242.67429565 274.50735474 242.3687439 C295.92971487 230.7147815 324.54451915 215.73535096 349.86526489 218.26742554 C355.49955197 220.50171179 358.28684376 223.60276966 361.79885864 228.46273804 C364.94585365 236.73945017 362.16918967 244.90800801 359.36526489 252.89242554 C359.00577759 253.94131958 358.64629028 254.99021362 358.27590942 256.07089233 C355.16951491 264.89172743 351.35133438 273.07916819 346.86526489 281.26742554 C346.38702271 282.20973022 345.90878052 283.15203491 345.41604614 284.12289429 C338.59564868 297.35329281 329.40700695 310.72568348 318.86526489 321.26742554 C319.53581909 321.34783081 320.20637329 321.42823608 320.89724731 321.51107788 C323.9499874 321.88115498 327.00133738 322.26168353 330.05276489 322.64242554 C331.63541138 322.83191772 331.63541138 322.83191772 333.25003052 323.02523804 C334.27161255 323.15414429 335.29319458 323.28305054 336.34573364 323.41586304 C337.28312378 323.531073 338.22051392 323.64628296 339.18630981 323.76498413 C343.31573235 324.53946254 346.10264934 325.48302096 349.05276489 328.51742554 C352.20770517 333.30423148 353.33662121 337.56190355 352.86526489 343.26742554 C349.16443624 350.64891484 343.62187418 356.97214186 338.00979614 362.96664429 C336.08488592 365.03180297 334.28787283 367.15477703 332.49026489 369.32992554 C328.82475399 373.57465632 324.52981562 376.9384717 320.12307739 380.38461304 C317.79817018 382.06785907 317.79817018 382.06785907 316.86526489 384.26742554 C318.04604614 384.71473022 319.22682739 385.16203491 320.44338989 385.62289429 C322.00098534 386.23279612 323.55826046 386.84351648 325.11526489 387.45492554 C325.89256958 387.74689819 326.66987427 388.03887085 327.47073364 388.33969116 C332.14891542 390.19896854 335.2202101 391.76331415 337.86526489 396.26742554 C338.58010864 398.76742554 338.58010864 398.76742554 338.80276489 401.26742554 C338.89428833 402.09242554 338.98581177 402.91742554 339.08010864 403.76742554 C338.72363564 407.91547508 336.7790357 410.38364334 333.84182739 413.22445679 C311.48648789 430.86363663 281.65861341 444.72182626 252.61135864 444.24398804 C243.14459936 443.78767968 243.14459936 443.78767968 234.91995239 447.64242554 C232.64800623 450.74557152 230.76961746 453.92883254 228.86526489 457.26742554 C223.77250189 463.56683622 218.13795036 469.15906797 211.86526489 474.26742554 C211.13678345 474.87239868 211.13678345 474.87239868 210.39358521 475.48959351 C191.6006072 491.0480874 170.49465273 502.06634309 146.86526489 508.26742554 C146.07184692 508.47915405 145.27842896 508.69088257 144.46096802 508.9090271 C120.14616512 515.09059061 91.04363293 514.93188916 66.86526489 508.26742554 C65.42932983 507.87273071 65.42932983 507.87273071 63.96438599 507.47006226 C34.90538153 499.18156171 12.01541736 484.45196849 -9.13473511 463.26742554 C-9.79215698 462.64480835 -10.44957886 462.02219116 -11.12692261 461.38070679 C-14.97234396 457.70282454 -17.47914083 454.58675037 -19.88473511 449.82992554 C-21.64768723 447.21534417 -22.90613012 445.57197848 -26.03952026 444.79525757 C-30.2040981 444.33764201 -34.36377414 444.38394928 -38.54879761 444.37680054 C-66.41507256 444.24005751 -95.54612918 432.53078811 -117.13473511 415.26742554 C-117.85403198 414.76855835 -118.57332886 414.26969116 -119.31442261 413.75570679 C-122.87080107 411.14912418 -124.54152739 409.25887313 -125.25973511 404.82992554 C-125.40303638 400.34987537 -124.48792804 397.13880746 -122.13473511 393.26742554 C-116.84419905 388.53378801 -109.71908144 386.65107614 -103.13473511 384.26742554 C-105.74280296 381.61106013 -108.37395576 379.0211885 -111.15036011 376.54086304 C-138.22721068 352.3426698 -138.22721068 352.3426698 -139.44723511 340.14242554 C-138.97289658 334.26062783 -136.67407448 329.15397218 -132.13473511 325.26742554 C-130.17697144 324.66732788 -130.17697144 324.66732788 -127.96676636 324.35336304 C-127.15530151 324.23219116 -126.34383667 324.11101929 -125.50778198 323.98617554 C-124.66280151 323.87273804 -123.81782104 323.75930054 -122.94723511 323.64242554 C-122.12159058 323.52125366 -121.29594604 323.40008179 -120.44528198 323.27523804 C-115.35053183 322.53651934 -110.24455578 321.89215563 -105.13473511 321.26742554 C-105.65680542 320.73117554 -106.17887573 320.19492554 -106.71676636 319.64242554 C-124.07995091 301.15413095 -136.6793129 278.03773121 -145.13473511 254.26742554 C-145.37192261 253.61741577 -145.60911011 252.96740601 -145.85348511 252.29769897 C-148.59866161 244.68718732 -151.50271355 236.57236664 -148.02926636 228.79086304 C-144.8780577 223.60361876 -141.78029847 220.50618342 -136.13473511 218.26742554 C-110.75620116 216.96457032 -79.81396759 229.48127055 -59.13473511 243.26742554 C-59.12015259 242.70571655 -59.10557007 242.14400757 -59.09054565 241.5652771 C-58.78981235 231.08743127 -58.29119063 220.6616897 -56.88473511 210.26742554 C-56.78765259 209.45048218 -56.69057007 208.63353882 -56.59054565 207.7918396 C-55.75996063 202.189049 -54.21240049 199.23603003 -50.13473511 195.26742554 C-46.02385316 192.58427505 -41.1217516 191.56006707 -36.25973511 192.44320679 C-31.50881461 194.28593514 -27.88020769 197.90843571 -24.13473511 201.26742554 C-23.29555542 201.99832397 -22.45637573 202.72922241 -21.59176636 203.48226929 C-12.57855024 211.43346304 -4.45033324 219.7192743 2.86526489 229.26742554 C7.69492352 226.11920362 12.39651073 222.87734249 16.99026489 219.39242554 C26.83645055 212.23898126 37.36545732 207.26440921 48.67776489 202.89242554 C49.53676392 202.55855835 50.39576294 202.22469116 51.28079224 201.88070679 C57.06769418 199.71937396 62.78717606 198.33242811 68.86526489 197.26742554 C70.19205751 191.01359981 70.92924428 184.74183498 67.53625107 179.03022385 C62.86464086 173.01314805 57.21473377 167.88587169 51.68948364 162.66976929 C49.92170592 160.94205098 48.15774676 159.21041773 46.39744568 157.4750824 C41.77164946 152.93271451 37.10165023 148.43877844 32.41873169 143.95541382 C24.92332701 136.76202178 17.50193118 129.49208051 10.07227516 122.23092842 C7.47685132 119.70612027 4.86526862 117.19908139 2.24995422 114.69490051 C0.65236292 113.15019532 -0.9450342 111.60528928 -2.54220581 110.06015015 C-3.27012833 109.37174545 -3.99805084 108.68334076 -4.74803162 107.97407532 C-9.37584986 103.46819946 -12.36577741 99.55700328 -13.53317261 93.04476929 C-13.46493801 87.68835343 -12.54344563 83.70246077 -8.70504761 79.82211304 C-4.95749707 76.55932028 -2.06043072 75.1237676 2.86526489 75.14242554 C3.54588989 75.13984741 4.22651489 75.13726929 4.92776489 75.13461304 C6.86526489 75.26742554 6.86526489 75.26742554 9.86526489 76.26742554 C9.86526489 63.72742554 9.86526489 51.18742554 9.86526489 38.26742554 C4.25526489 38.26742554 -1.35473511 38.26742554 -7.13473511 38.26742554 C-13.13473511 35.26742554 -13.13473511 35.26742554 -14.98239136 32.73617554 C-16.55076761 28.01509719 -16.61015314 23.71055772 -16.57223511 18.76742554 C-16.59221558 17.84316772 -16.61219604 16.91890991 -16.63278198 15.96664429 C-16.62868368 10.23721673 -16.05632795 6.74924592 -12.13473511 2.26742554 C-8.13752717 -0.39737976 -4.64156688 -0.01614268 0 0 Z " fill="#F4C681" transform="translate(149.13473510742188,-0.267425537109375)"/>
<path d="M0 0 C0.94641959 -0.00453111 1.89283919 -0.00906223 2.86793816 -0.01373065 C6.05313125 -0.02643522 9.23815467 -0.02475038 12.42337036 -0.02310181 C14.70138775 -0.02908327 16.9794031 -0.03588792 19.25741577 -0.04345703 C25.45573406 -0.06116297 31.65399718 -0.06581434 37.85233831 -0.0670886 C43.02150628 -0.06898483 48.1906613 -0.07633917 53.3598243 -0.08343279 C64.85562082 -0.0988001 76.35138578 -0.10476914 87.84719108 -0.10342209 C88.8821508 -0.10330222 88.8821508 -0.10330222 89.9380188 -0.10317993 C90.62883337 -0.10309817 91.31964794 -0.10301641 92.03139628 -0.10293217 C103.22790936 -0.10211921 114.42428793 -0.12125846 125.62076209 -0.14945666 C137.11425217 -0.17817473 148.60765924 -0.19163115 160.10118783 -0.19026911 C166.5551385 -0.18975841 173.00893701 -0.1955016 179.46285629 -0.21662521 C185.5318241 -0.23594571 191.6004936 -0.23617438 197.66947174 -0.22159195 C199.89915781 -0.21949507 202.12886224 -0.22425672 204.35851669 -0.23631287 C207.39821928 -0.25168673 210.43688321 -0.2425089 213.4765625 -0.22705078 C214.80569666 -0.24248147 214.80569666 -0.24248147 216.16168201 -0.25822389 C220.26179757 -0.21202352 222.33265676 -0.0708082 225.87120247 2.17635155 C230.67457941 7.21341381 230.20050734 12.00163079 230.17776489 18.64242554 C230.19387817 19.57570679 230.20999146 20.50898804 230.22659302 21.47055054 C230.23032985 26.74696254 230.10224347 30.86513467 226.86526489 35.26742554 C222.03800664 38.68374925 217.66446199 38.64246256 211.99026489 38.45492554 C210.81463989 38.4346228 210.81463989 38.4346228 209.61526489 38.41390991 C207.69829707 38.37884343 205.78168738 38.32504626 203.86526489 38.26742554 C203.95663003 39.09663954 204.04799517 39.92585354 204.14212894 40.78019524 C204.52961534 46.89612709 204.64378726 51.26692331 200.60951233 56.11340332 C199.10302128 57.66924979 197.56045916 59.19070279 195.99002075 60.68197632 C195.15270416 61.52761642 194.31538757 62.37325653 193.45269775 63.24452209 C191.1672457 65.53931749 188.85562827 67.80276865 186.52795482 70.05458307 C184.08929603 72.42638855 181.68635058 74.83388741 179.2787323 77.23712158 C175.23362717 81.26475229 171.1651096 85.26736209 167.07937622 89.25375366 C161.84582919 94.36027247 156.65222506 99.50552176 151.47035885 104.66441536 C146.99946801 109.11501758 142.51149408 113.5482779 138.02030873 117.97838736 C136.58449283 119.39590971 135.15084922 120.81560258 133.71742058 122.23553848 C131.03732479 124.88337948 128.34414542 127.51711102 125.64627075 130.14682007 C124.85792343 130.92912491 124.06957611 131.71142975 123.25733948 132.5174408 C117.99265959 137.6097268 113.8111963 140.77418411 106.36526489 141.70492554 C98.13842692 140.67657079 92.8195394 134.69875379 87.17605591 129.12509155 C85.91631203 127.8973275 85.91631203 127.8973275 84.63111877 126.64476013 C81.8682327 123.94586146 79.11741854 121.23513162 76.36917114 118.52133179 C75.41733978 117.58297331 74.46543952 116.64468471 73.5134716 115.70646477 C69.55333029 111.80159009 65.59698689 107.89294216 61.65132236 103.9734354 C56.01900146 98.37849663 50.36556181 92.80710413 44.67951447 87.26675659 C40.66919218 83.35568908 36.68435043 79.41978268 32.71740669 75.46472877 C30.35287559 73.10852056 27.97669277 70.76839265 25.57815742 68.44650459 C22.90341396 65.85220228 20.27280461 63.21970218 17.64871216 60.5743103 C16.85554596 59.82316956 16.06237976 59.07202881 15.24517822 58.29812622 C10.76555609 53.67908594 9.39995494 50.70501185 9.37879944 44.18574524 C9.50239896 42.2101816 9.65129378 40.23525299 9.86526489 38.26742554 C8.12889771 38.31963257 8.12889771 38.31963257 6.35745239 38.37289429 C4.81840449 38.4010476 3.27934078 38.4283461 1.74026489 38.45492554 C0.97971802 38.48006226 0.21917114 38.50519897 -0.56442261 38.53109741 C-5.47874053 38.59464463 -8.9893076 38.20120732 -13.13473511 35.26742554 C-16.86266891 30.16023505 -16.61883987 24.84299207 -16.57223511 18.76742554 C-16.59221558 17.84316772 -16.61219604 16.91890991 -16.63278198 15.96664429 C-16.62868368 10.23721673 -16.05632795 6.74924592 -12.13473511 2.26742554 C-8.13752717 -0.39737976 -4.64156688 -0.01614268 0 0 Z " fill="#FCDE93" transform="translate(149.13473510742188,-0.267425537109375)"/>
<path d="M0 0 C2.21909031 1.96246832 4.27843743 3.93006761 6.33984375 6.046875 C7.2458004 6.95919891 7.2458004 6.95919891 8.1700592 7.88995361 C10.09970006 9.83636854 12.01867452 11.7929279 13.9375 13.75 C15.22521637 15.05277075 16.51362056 16.35486203 17.80273438 17.65625 C20.70758478 20.59097822 23.6064576 23.5314118 26.49607849 26.48114014 C27.93384368 27.93318656 29.39898168 29.3579754 30.86523438 30.78125 C33 33 33 33 33.62890625 35.078125 C32.80042069 62.17447629 18.98784149 87.38509952 0 106 C-0.85722656 106.84433594 -1.71445312 107.68867188 -2.59765625 108.55859375 C-23.73861908 128.42640826 -52.1077565 136.80224984 -80.67578125 136.10546875 C-81.44277344 136.07066406 -82.20976562 136.03585937 -83 136 C-83 135.67 -83 135.34 -83 135 C-80.69 134.67 -78.38 134.34 -76 134 C-76.68835938 133.41992188 -76.68835938 133.41992188 -77.390625 132.828125 C-84.52168525 126.77571252 -84.52168525 126.77571252 -87 124 C-87 123.34 -87 122.68 -87 122 C-87.66 122 -88.32 122 -89 122 C-90.7125145 120.38047857 -92.37027455 118.70280666 -94 117 C-95.42494097 115.58313763 -96.84990632 114.16629957 -98.27552795 112.75012207 C-100.465097 110.57406125 -102.65189372 108.39522259 -104.83862305 106.21630859 C-105.98877382 105.07120734 -107.13981757 103.92700232 -108.29174805 102.78369141 C-109.96902705 101.11859603 -111.64300689 99.45024324 -113.31640625 97.78125 C-113.82692032 97.27589722 -114.33743439 96.77054443 -114.86341858 96.24987793 C-122.9746166 88.13994551 -122.9746166 88.13994551 -123.04296875 85.0703125 C-121.51284571 82.03298961 -119.45495087 79.49284567 -117.3125 76.875 C-116.30668367 75.62027881 -115.30150632 74.36504521 -114.296875 73.109375 C-113.76126953 72.44357422 -113.22566406 71.77777344 -112.67382812 71.09179688 C-109.76971139 67.46249813 -106.91573785 63.79434982 -104.0625 60.125 C-103.47364014 59.36807861 -102.88478027 58.61115723 -102.27807617 57.83129883 C-96.88115861 50.8771942 -91.57508404 43.85806182 -86.33105469 36.78808594 C-85.05471199 35.07349791 -83.76705941 33.36800964 -82.4765625 31.6640625 C-81.37441406 30.19066406 -81.37441406 30.19066406 -80.25 28.6875 C-79.61578125 27.84574219 -78.9815625 27.00398438 -78.328125 26.13671875 C-76.73604807 23.99465566 -76.73604807 23.99465566 -77 21 C-75.46472656 21.06767578 -75.46472656 21.06767578 -73.8984375 21.13671875 C-69.91350036 20.99696645 -67.31213771 20.26325031 -63.625 18.8125 C-58.52621728 16.86933296 -53.42125735 15.20137246 -48.16796875 13.72265625 C-41.98579423 11.94338773 -35.89207746 9.98800897 -29.82421875 7.8515625 C-29.070802 7.58697739 -28.31738525 7.32239227 -27.5411377 7.04978943 C-24.46526501 5.96620222 -21.39140624 4.87733415 -18.3215332 3.77685547 C-16.03396801 2.95900533 -13.74209409 2.15438243 -11.44921875 1.3515625 C-10.75761154 1.09960114 -10.06600433 0.84763977 -9.35343933 0.58804321 C-5.79336681 -0.64828939 -3.55901311 -1.29883872 0 0 Z " fill="#ECA864" transform="translate(331,326)"/>
<path d="M0 0 C2.63455653 2.06236379 5.1342662 4.22330791 7.625 6.45703125 C8.46417969 7.18792969 9.30335937 7.91882813 10.16796875 8.671875 C17.43646637 15.08392949 24.48367645 21.73662004 30.75 29.14453125 C31.33007812 29.82902344 31.91015625 30.51351562 32.5078125 31.21875 C33.625 33.45703125 33.625 33.45703125 33.671875 36.33984375 C32.26615317 40.52553784 29.94338493 42.69420255 26.75 45.64453125 C26.20730469 46.16466797 25.66460937 46.68480469 25.10546875 47.22070312 C23.62068172 48.64196014 22.12333197 50.05006098 20.625 51.45703125 C18.04744936 53.96599961 15.84996103 56.62526267 13.625 59.45703125 C11.56051121 62.03764223 9.49657439 64.61042851 7.375 67.14453125 C5.42385244 69.23949556 5.42385244 69.23949556 5.625 71.45703125 C4.635 71.95203125 4.635 71.95203125 3.625 72.45703125 C2.93661273 74.11484463 2.27635929 75.78432288 1.625 77.45703125 C0.22185205 80.21577522 -1.27191624 82.92534973 -2.75 85.64453125 C-6.0432474 91.78209581 -9.06879597 97.8696971 -11.375 104.45703125 C-11.7875 105.61203125 -12.2 106.76703125 -12.625 107.95703125 C-13.47078263 110.34129391 -13.47078263 110.34129391 -13.375 112.45703125 C-14.035 112.45703125 -14.695 112.45703125 -15.375 112.45703125 C-15.045 113.44703125 -14.715 114.43703125 -14.375 115.45703125 C-14.8125 117.64453125 -14.8125 117.64453125 -15.375 119.45703125 C-16.035 119.45703125 -16.695 119.45703125 -17.375 119.45703125 C-17.065625 120.26140625 -17.065625 120.26140625 -16.75 121.08203125 C-16.24365304 124.28889532 -17.31972601 126.41535917 -18.375 129.45703125 C-18.4120279 131.12328655 -18.42259962 132.79104444 -18.375 134.45703125 C-18.705 134.78703125 -19.035 135.11703125 -19.375 135.45703125 C-19.375 136.59140625 -19.375 137.72578125 -19.375 138.89453125 C-19.375 142.45703125 -19.375 142.45703125 -20.375 144.45703125 C-20.52806901 146.26874223 -20.62446661 148.08541065 -20.69140625 149.90234375 C-20.73330078 150.97871094 -20.77519531 152.05507813 -20.81835938 153.1640625 C-20.85767578 154.29199219 -20.89699219 155.41992188 -20.9375 156.58203125 C-21.00227539 158.28552734 -21.00227539 158.28552734 -21.06835938 160.0234375 C-21.1746604 162.83450893 -21.27669405 165.6456707 -21.375 168.45703125 C-27.38192556 165.28736037 -32.91600634 161.82768514 -38.3125 157.70703125 C-39.00126221 157.1869751 -39.69002441 156.66691895 -40.3996582 156.13110352 C-45.26116639 152.41850311 -49.8334741 148.52061813 -54.26171875 144.296875 C-56.49554922 142.35207989 -58.83790869 140.97258745 -61.375 139.45703125 C-62.76076923 137.83370158 -64.10141268 136.1697866 -65.375 134.45703125 C-66.8183607 133.01367055 -68.2639518 131.57253907 -69.7109375 130.1328125 C-89.55747436 110.19897415 -103.96352018 85.91505389 -113.375 59.45703125 C-113.6121875 58.80702148 -113.849375 58.15701172 -114.09375 57.48730469 C-116.83892651 49.87679304 -119.74297844 41.76197236 -116.26953125 33.98046875 C-113.11832259 28.79322447 -110.02056336 25.69578913 -104.375 23.45703125 C-78.99646605 22.15417603 -48.05423248 34.67087626 -27.375 48.45703125 C-27.36041748 47.89532227 -27.34583496 47.33361328 -27.33081055 46.75488281 C-27.03007724 36.27703698 -26.53145552 25.85129541 -25.125 15.45703125 C-25.02791748 14.64008789 -24.93083496 13.82314453 -24.83081055 12.98144531 C-24.00022552 7.37865472 -22.45266538 4.42563575 -18.375 0.45703125 C-12.58223482 -3.32387537 -5.8382566 -3.79294631 0 0 Z " fill="#F8D894" transform="translate(117.375,194.54296875)"/>
<path d="M0 0 C4.50908071 2.33804185 6.75579158 4.49328797 9 9 C9.67138573 11.84334727 10.20355992 14.55840511 10.625 17.4375 C10.74979736 18.25065674 10.87459473 19.06381348 11.00317383 19.90161133 C12.42471168 29.880675 12.74109602 39.93421368 13 50 C13.54188965 49.70343506 14.0837793 49.40687012 14.64208984 49.10131836 C36.06444998 37.44735596 64.67925425 22.46792543 90 25 C95.63428708 27.23428626 98.42157886 30.33534412 101.93359375 35.1953125 C105.08058875 43.47202464 102.30392478 51.64058247 99.5 59.625 C99.1405127 60.67389404 98.78102539 61.72278809 98.41064453 62.8034668 C95.30425002 71.62430189 91.48606948 79.81174265 87 88 C86.28263672 89.41345703 86.28263672 89.41345703 85.55078125 90.85546875 C75.96052224 109.45892248 61.62583416 129.16267559 45 142 C43.86818305 142.99227788 42.74302252 143.99220505 41.625 145 C14.27016129 169 14.27016129 169 7 169 C6.98541748 168.44352783 6.97083496 167.88705566 6.95581055 167.3137207 C6.06836935 136.64212226 1.80189039 104.84273984 -16.06640625 78.9453125 C-17 77 -17 77 -16.75 74.8828125 C-15.83907328 72.59600689 -14.55667105 70.89507781 -13 69 C-13.928125 69.99 -13.928125 69.99 -14.875 71 C-17 73 -17 73 -19 73 C-20.37438462 71.12721216 -21.67278576 69.198529 -22.9375 67.25 C-30.00438685 56.67872764 -38.92949283 47.86894035 -48 39 C-43.3563415 23.1017603 -25.32544847 9.09083073 -12 0 C-7.80543061 -1.3981898 -4.28464964 -0.94482018 0 0 Z " fill="#F8D894" transform="translate(409,193)"/>
<path d="M0 0 C58.74 0 117.48 0 178 0 C174.40247051 4.19711774 170.97536973 8.15196355 167.1015625 12.03125 C165.76351562 13.37123047 165.76351562 13.37123047 164.3984375 14.73828125 C163.48320312 15.64964844 162.56796875 16.56101562 161.625 17.5 C160.7175 18.41136719 159.81 19.32273437 158.875 20.26171875 C157.98039063 21.15503906 157.08578125 22.04835938 156.1640625 22.96875 C155.36436035 23.76732422 154.5646582 24.56589844 153.74072266 25.38867188 C151.68161959 27.35056091 149.6097703 29.20259429 147.45068359 31.04711914 C141.56179082 36.16489558 136.12551862 41.75091151 130.625 47.27734375 C129.44838076 48.45583183 128.27153775 49.63409653 127.09448242 50.81214905 C124.02139193 53.88902808 120.95131845 56.9688999 117.88189697 60.04943848 C114.73951326 63.20211573 111.59423929 66.35190669 108.44921875 69.50195312 C102.29667193 75.66517254 96.14731438 81.83156165 90 88 C87.20119555 86.7232594 85.15664357 85.40438487 82.99127197 83.22505188 C82.14212219 82.37785835 82.14212219 82.37785835 81.27581787 81.5135498 C80.36246674 80.58705627 80.36246674 80.58705627 79.43066406 79.6418457 C78.7796875 78.9895549 78.12871094 78.3372641 77.45800781 77.66520691 C75.30591589 75.50662229 73.16088785 73.34115106 71.015625 71.17578125 C69.51644093 69.67032352 68.01673837 68.16538195 66.51654053 66.66093445 C62.56324887 62.69433193 58.61555169 58.72221185 54.66943359 54.74847412 C48.3690437 48.40501143 42.06205411 42.0681297 35.75164032 35.73464012 C33.55580712 33.52864925 31.36346004 31.31923803 29.17144775 29.10945129 C27.81005646 27.74122383 26.44855106 26.37310989 25.08691406 25.00512695 C24.48611023 24.39758575 23.8853064 23.79004456 23.26629639 23.16409302 C19.57509002 19.463197 15.75506418 15.9690126 11.79076767 12.56192303 C9.25193014 10.34752701 6.87865235 8.01099387 4.5 5.625 C3.6440625 4.77164063 2.788125 3.91828125 1.90625 3.0390625 C0 1 0 1 0 0 Z " fill="#C2363A" transform="translate(167,37)"/>
<path d="M0 0 C-0.1144469 7.10988688 -1.75142284 10.98941222 -6.4375 16.25 C-7.52726145 17.5393346 -8.61578007 18.82972056 -9.703125 20.12109375 C-10.25291016 20.76288574 -10.80269531 21.40467773 -11.36914062 22.06591797 C-13.90566634 25.0740552 -16.29938255 28.18614065 -18.6875 31.3125 C-19.10894287 31.85745117 -19.53038574 32.40240234 -19.96459961 32.96386719 C-25.72318697 40.45326929 -24.18282562 47.9848914 -23.5 57.125 C-23.10509426 62.79305885 -22.83353434 68.44343636 -22.75 74.125 C-22.7180957 75.19065186 -22.7180957 75.19065186 -22.68554688 76.27783203 C-22.65583702 80.71627268 -23.25136039 83.48820868 -26 87 C-30.17931895 89.69333888 -33.08867425 90.36000405 -38 90 C-40.48139924 89.20634626 -42.80244511 88.36654015 -45.19921875 87.375 C-46.58771125 86.82766975 -47.97638923 86.28080981 -49.36523438 85.734375 C-51.52237822 84.87220172 -53.67687562 84.00433361 -55.82788086 83.12695312 C-65.44587197 79.22534652 -73.86275892 76.1584051 -84.28515625 78.84765625 C-85.20167969 79.24855469 -86.11820313 79.64945312 -87.0625 80.0625 C-88.14144531 80.50980469 -89.22039062 80.95710938 -90.33203125 81.41796875 C-91.54246094 81.94003906 -92.75289062 82.46210938 -94 83 C-97.07247195 84.31931932 -100.1574666 85.60352214 -103.25 86.875 C-103.98226807 87.19734619 -104.71453613 87.51969238 -105.46899414 87.85180664 C-110.7839751 90.03097871 -115.39340978 90.58229124 -121 89 C-121.66 88.34 -122.32 87.68 -123 87 C-122.80412875 82.84006772 -119.83247106 79.95413494 -117.3125 76.875 C-116.30668367 75.62027881 -115.30150632 74.36504521 -114.296875 73.109375 C-113.76126953 72.44357422 -113.22566406 71.77777344 -112.67382812 71.09179688 C-109.76971139 67.46249813 -106.91573785 63.79434982 -104.0625 60.125 C-103.47364014 59.36807861 -102.88478027 58.61115723 -102.27807617 57.83129883 C-96.88115861 50.8771942 -91.57508404 43.85806182 -86.33105469 36.78808594 C-85.05471199 35.07349791 -83.76705941 33.36800964 -82.4765625 31.6640625 C-81.37441406 30.19066406 -81.37441406 30.19066406 -80.25 28.6875 C-79.61578125 27.84574219 -78.9815625 27.00398438 -78.328125 26.13671875 C-76.73604807 23.99465566 -76.73604807 23.99465566 -77 21 C-75.46472656 21.06767578 -75.46472656 21.06767578 -73.8984375 21.13671875 C-69.91350036 20.99696645 -67.31213771 20.26325031 -63.625 18.8125 C-58.52621728 16.86933296 -53.42125735 15.20137246 -48.16796875 13.72265625 C-41.98579423 11.94338773 -35.89207746 9.98800897 -29.82421875 7.8515625 C-29.070802 7.58697739 -28.31738525 7.32239227 -27.5411377 7.04978943 C-24.46526501 5.96620222 -21.39140624 4.87733415 -18.3215332 3.77685547 C-16.03396801 2.95900533 -13.74209409 2.15438243 -11.44921875 1.3515625 C-10.75761154 1.09960114 -10.06600433 0.84763977 -9.35343933 0.58804321 C-5.91846223 -0.60484658 -3.45276783 -1.45582096 0 0 Z " fill="#A9593F" transform="translate(331,326)"/>
<path d="M0 0 C5.2912925 4.41588881 10.19991006 9.07759115 15.04321289 13.97729492 C15.81488297 14.75363785 16.58655304 15.52998077 17.38160706 16.32984924 C19.04626783 18.00496071 20.70982828 19.6811662 22.37239265 21.35835838 C25.00527783 24.01336441 27.64219806 26.66429907 30.28038025 29.31404114 C37.77721243 36.84438339 45.26995252 44.3787478 52.75219727 51.92358398 C57.33762594 56.54727721 61.93096971 61.16302349 66.52874565 65.77443886 C68.27660361 67.53034679 70.02168111 69.28902703 71.76390266 71.05052757 C74.19780981 73.51091045 76.64086044 75.96185713 79.08618164 78.41088867 C79.80167175 79.13873566 80.51716187 79.86658264 81.2543335 80.6164856 C85.82749898 85.17140082 89.75380516 88.57919697 96.375 89.4375 C105.28335194 88.36235408 110.68429022 82.87936718 116.69506836 76.74316406 C117.52368378 75.91352646 118.35229919 75.08388885 119.20602417 74.22911072 C121.92676465 71.50052199 124.63317633 68.75816801 127.33984375 66.015625 C129.23079393 64.11466954 131.1225645 62.2145692 133.01551819 60.31561279 C137.47726953 55.83632298 141.92914386 51.34735721 146.37713104 46.85440326 C152.92042015 40.24568991 159.47665782 33.64984046 166.03520298 27.0562706 C166.51565616 26.57324801 166.99610934 26.09022542 167.49112171 25.59256577 C168.44853948 24.63005131 169.40598958 23.667569 170.363473 22.70511985 C173.62412072 19.4267255 176.8790095 16.14267924 180.13230896 12.85699463 C181.82505773 11.15103668 183.51785009 9.44512199 185.21069336 7.73925781 C185.9893425 6.95072922 186.76799164 6.16220062 187.57023621 5.34977722 C188.27525269 4.64035477 188.98026917 3.93093231 189.70664978 3.20001221 C190.32215667 2.57838825 190.93766356 1.9567643 191.57182217 1.31630325 C193 0 193 0 194 0 C194.29309159 4.14431514 194.46884275 8.28594806 194.625 12.4375 C194.70878906 13.60216797 194.79257812 14.76683594 194.87890625 15.96679688 C195.12399003 24.66727096 195.12399003 24.66727096 192.27990723 28.03953552 C191.50755737 28.65224808 190.73520752 29.26496063 189.93945312 29.89624023 C185.2291411 33.87249221 180.87229006 38.05264429 176.56591797 42.46337891 C175.55102673 43.49941836 175.55102673 43.49941836 174.51563263 44.5563879 C173.08409455 46.01873048 171.65340938 47.48190841 170.22350693 48.94585037 C166.37100568 52.88363096 162.49845935 56.80164355 158.62890625 60.72265625 C153.72721061 65.69051526 148.83207897 70.66427938 143.96142578 75.66259766 C140.00126158 79.72549511 136.01958144 83.76613846 132.0223732 87.79258347 C130.50803029 89.32604894 129.00176768 90.86753819 127.50390244 92.41710281 C125.41473011 94.57620076 123.29921183 96.70571876 121.17529297 98.83056641 C120.56521393 99.47457397 119.95513489 100.11858154 119.3265686 100.78210449 C115.13075398 104.89962014 115.13075398 104.89962014 111.88119888 105.18809128 C108.78878846 104.84162531 105.94450284 103.98150095 103 103 C100.89836585 102.87934544 98.79255967 102.82463991 96.6875 102.8125 C95.57761719 102.79832031 94.46773438 102.78414063 93.32421875 102.76953125 C89.9784954 102.85632623 89.9784954 102.85632623 86.89453125 104.07421875 C83.61703434 105.12248699 82.25768193 104.95693305 79 104 C77.20622063 102.69561863 77.20622063 102.69561863 75.53366089 101.00794983 C74.89164734 100.36998978 74.24963379 99.73202972 73.58816528 99.07473755 C72.90019867 98.37081879 72.21223206 97.66690002 71.50341797 96.94165039 C70.39764404 95.83434319 70.39764404 95.83434319 69.26953125 94.70466614 C66.83429047 92.26153899 64.41341482 89.80466525 61.9921875 87.34765625 C60.30352846 85.64899632 58.61390932 83.95129035 56.92337036 82.25450134 C52.47380568 77.78398973 48.03594188 73.30204456 43.60083008 68.81719971 C36.49755906 61.638697 29.37559945 54.4787221 22.25577164 47.31664848 C19.76710696 44.81025325 17.28269243 42.2997081 14.79904175 39.78834534 C13.27867544 38.25476208 11.75826176 36.72122579 10.23779297 35.18774414 C9.54577789 34.48584961 8.85376282 33.78395508 8.14077759 33.06079102 C7.50440369 32.42001114 6.86802979 31.77923126 6.21237183 31.11903381 C5.66118116 30.56172608 5.1099905 30.00441835 4.54209709 29.43022251 C2.85106657 27.78580868 2.85106657 27.78580868 0 26 C-0.34057617 23.38623047 -0.34057617 23.38623047 -0.29296875 20.1171875 C-0.2784668 18.36728516 -0.2784668 18.36728516 -0.26367188 16.58203125 C-0.23853516 15.35871094 -0.21339844 14.13539062 -0.1875 12.875 C-0.17396484 11.64394531 -0.16042969 10.41289063 -0.14648438 9.14453125 C-0.11103543 6.09592157 -0.06162079 3.048175 0 0 Z " fill="#AF3132" transform="translate(159,51)"/>
<path d="M0 0 C0.721875 0.928125 1.44375 1.85625 2.1875 2.8125 C3.115625 3.699375 4.04375 4.58625 5 5.5 C7.1875 7.8125 7.1875 7.8125 7.1875 9.8125 C8.2084375 10.0909375 8.2084375 10.0909375 9.25 10.375 C12.06635899 11.75321823 13.28650558 12.79937511 15.38671875 15.02734375 C18.97785407 18.69377479 22.80897892 21.77612701 26.9375 24.8125 C27.63125732 25.33013916 28.32501465 25.84777832 29.03979492 26.38110352 C33.88607875 29.9605095 38.82353969 33.21298221 44.05078125 36.21484375 C46.63411159 38.1464381 47.81162354 39.90590568 49.1875 42.8125 C49.4453125 44.9453125 49.4453125 44.9453125 49.3125 46.9375 C48.96617068 50.72626228 48.96617068 50.72626228 50.1875 53.8125 C50.4040625 55.6996875 50.4040625 55.6996875 50.625 57.625 C51.04143353 61.22748058 51.94491502 64.39539132 53.1875 67.8125 C54.32543103 71.53663793 54.32543103 71.53663793 53.1875 73.8125 C53.8475 74.1425 54.5075 74.4725 55.1875 74.8125 C54.8575 75.4725 54.5275 76.1325 54.1875 76.8125 C54.8475 77.1425 55.5075 77.4725 56.1875 77.8125 C55.8575 78.4725 55.5275 79.1325 55.1875 79.8125 C55.8475 80.1425 56.5075 80.4725 57.1875 80.8125 C56.8575 81.4725 56.5275 82.1325 56.1875 82.8125 C56.8475 83.1425 57.5075 83.4725 58.1875 83.8125 C58.1875 85.1325 58.1875 86.4525 58.1875 87.8125 C45.00422856 84.90976133 32.53545704 79.1521571 20.1875 73.8125 C20.1875 73.1525 20.1875 72.4925 20.1875 71.8125 C19.47722656 71.7196875 18.76695313 71.626875 18.03515625 71.53125 C12.40526923 70.11026343 7.86881216 66.13054195 3.1875 62.8125 C2.18847656 62.10480469 1.18945312 61.39710938 0.16015625 60.66796875 C-14.8848397 49.69559982 -30.37106335 35.6953733 -38.8125 18.8125 C-39.41004841 12.83701592 -38.01854667 8.74487949 -34.8125 3.8125 C-32.59867014 1.20178963 -31.08527428 0.3804974 -27.71484375 -0.13671875 C-26.91771973 -0.26304687 -26.1205957 -0.389375 -25.29931641 -0.51953125 C-24.45804199 -0.63683594 -23.61676758 -0.75414062 -22.75 -0.875 C-21.89325684 -0.99875 -21.03651367 -1.1225 -20.15380859 -1.25 C-4.40573695 -3.42668429 -4.40573695 -3.42668429 0 0 Z " fill="#F6CC86" transform="translate(48.8125,324.1875)"/>
<path d="M0 0 C1.63120997 0.21923462 3.26144656 0.44583414 4.890625 0.6796875 C5.71433594 0.7725 6.53804688 0.8653125 7.38671875 0.9609375 C11.60237762 1.57190255 14.30207871 2.17550444 17.13671875 5.484375 C20.38265109 10.45767485 21.62227001 14.6289943 21.140625 20.5546875 C17.43979635 27.9361768 11.89723428 34.25940382 6.28515625 40.25390625 C4.36024603 42.31906494 2.56323294 44.44203899 0.765625 46.6171875 C-8.55611984 57.29208885 -22.13587488 67.28788893 -34.859375 73.5546875 C-35.849375 73.5546875 -36.839375 73.5546875 -37.859375 73.5546875 C-38.189375 74.2146875 -38.519375 74.8746875 -38.859375 75.5546875 C-40.94813473 76.71036624 -43.00766105 77.74564505 -45.171875 78.7421875 C-45.8218042 79.04390869 -46.4717334 79.34562988 -47.14135742 79.65649414 C-69.06262109 89.5546875 -69.06262109 89.5546875 -75.859375 89.5546875 C-75.70082031 89.00425781 -75.54226563 88.45382812 -75.37890625 87.88671875 C-73.55637524 81.39206406 -71.8978022 74.85697834 -70.296875 68.3046875 C-70.07338379 67.39614014 -69.84989258 66.48759277 -69.61962891 65.55151367 C-68.31584037 60.0649407 -67.51583346 54.79602337 -67.046875 49.1796875 C-66.486476 44.57640998 -66.01040739 41.85459219 -62.546875 38.6796875 C-61.01653548 37.59132329 -59.44932976 36.553947 -57.859375 35.5546875 C-55.79351473 34.14292547 -53.73129078 32.72583398 -51.671875 31.3046875 C-51.12442627 30.93472656 -50.57697754 30.56476563 -50.01293945 30.18359375 C-42.97564504 25.38150764 -36.01485637 19.89651332 -30.1171875 13.734375 C-28.859375 12.5546875 -28.859375 12.5546875 -26.859375 12.5546875 C-26.529375 11.8946875 -26.199375 11.2346875 -25.859375 10.5546875 C-24.18478877 9.01965013 -22.43289029 7.5967841 -20.6796875 6.15234375 C-18.64934339 4.45591626 -18.64934339 4.45591626 -16.484375 1.6796875 C-11.84352796 -2.07718867 -5.7047201 -0.59354806 0 0 Z " fill="#F6CC86" transform="translate(480.859375,322.4453125)"/>
<path d="M0 0 C7.59032826 -0.9026397 7.59032826 -0.9026397 11.02001953 1.29345703 C12.98353114 3.13318541 14.78144064 5.04574015 16.5625 7.0625 C17.79027031 8.38922104 19.02074375 9.71344565 20.25390625 11.03515625 C20.78314697 11.6269165 21.3123877 12.21867676 21.85766602 12.82836914 C23.62278834 14.61762989 25.3982413 16.2072235 27.31030273 17.83007812 C34.13980247 23.75186419 40.40568139 30.2833116 46.78125 36.68359375 C48.20449244 38.10870413 49.62795794 39.53359176 51.05163574 40.95826721 C54.77574302 44.68617009 58.49683584 48.41706756 62.21728516 52.14862061 C66.02323076 55.9648443 69.83205245 59.77819517 73.640625 63.59179688 C81.09654981 71.05840678 88.54928963 78.528187 96 86 C99.96549831 84.40248637 102.61698761 81.64514176 105.55957031 78.65161133 C106.1032576 78.1066098 106.64694489 77.56160828 107.20710754 77.00009155 C109.00208866 75.19862471 110.78998495 73.39028648 112.578125 71.58203125 C113.83068519 70.32319547 115.08376538 69.06487691 116.33734131 67.80705261 C119.63961889 64.49147101 122.93629409 61.17037927 126.23138428 57.84765625 C131.48949395 52.54646165 136.75419535 47.25183688 142.02236176 41.96063805 C143.85258454 40.12028232 145.67930012 38.27649939 147.50567627 36.43232727 C152.65686052 31.24434968 157.80765891 26.15700888 163.37814331 21.41358948 C165.69036521 19.39828655 167.76211703 17.19497722 169.83984375 14.94140625 C170.67580078 14.06162109 171.51175781 13.18183594 172.37304688 12.27539062 C174.09455329 10.45423875 175.8001896 8.6179638 177.49023438 6.76757812 C183.71948615 0.28896446 183.71948615 0.28896446 187.63330078 -0.59423828 C190.12890625 -0.59765625 190.12890625 -0.59765625 194 0 C195.18618603 10.76561689 195.18618603 10.76561689 192.63007927 15.58047867 C190.59004088 18.03123015 188.43715965 20.2187139 186.12475586 22.41455078 C185.28743927 23.26019089 184.45012268 24.10583099 183.58743286 24.97709656 C181.3019808 27.27189196 178.99036338 29.53534311 176.66268992 31.78715754 C174.22403113 34.15896301 171.82108569 36.56646188 169.41346741 38.96969604 C165.36836228 42.99732676 161.29984471 46.99993655 157.21411133 50.98632812 C151.98056429 56.09284694 146.78696017 61.23809622 141.60509396 66.39698982 C137.13420311 70.84759204 132.64622918 75.28085237 128.15504384 79.71096182 C126.71922794 81.12848417 125.28558433 82.54817705 123.85215569 83.96811295 C121.1720599 86.61595395 118.47888052 89.24968549 115.78100586 91.87939453 C114.99265854 92.66169937 114.20431122 93.44400421 113.39207458 94.25001526 C108.1273947 99.34230126 103.9459314 102.50675857 96.5 103.4375 C88.27316203 102.40914525 82.9542745 96.43132825 77.31079102 90.85766602 C76.05104713 89.62990196 76.05104713 89.62990196 74.76585388 88.37733459 C72.0029678 85.67843593 69.25215365 82.96770608 66.50390625 80.25390625 C65.55207489 79.31554777 64.60017463 78.37725917 63.64820671 77.43903923 C59.6880654 73.53416456 55.73172199 69.62551662 51.78605747 65.70600986 C46.15373657 60.11107109 40.50029691 54.53967859 34.81424958 48.99933106 C30.80392729 45.08826354 26.81908554 41.15235714 22.8521418 37.19730324 C20.4876107 34.84109502 18.11142788 32.50096711 15.71289253 30.17907906 C13.03814907 27.58477675 10.40753972 24.95227665 7.78344727 22.30688477 C6.99028107 21.55574402 6.19711487 20.80460327 5.37991333 20.03070068 C0.9002912 15.4116604 -0.46530995 12.43758631 -0.48646545 5.9183197 C-0.36286593 3.94275607 -0.21397111 1.96782745 0 0 Z " fill="#EAEAEC" transform="translate(159,38)"/>
<path d="M0 0 C4.50625472 2.64483888 7.96510522 6.16476636 11.61143494 9.86846924 C12.35372849 10.61032471 13.09602203 11.35218018 13.86080933 12.11651611 C16.2973201 14.55510646 18.72304932 17.00412872 21.14878845 19.45343018 C22.84206604 21.15230664 24.53600993 22.85051925 26.23059082 24.5480957 C30.67758723 29.00651777 35.11549847 33.47387702 39.55155945 37.94317627 C44.08436163 42.50672824 48.62572366 47.06174439 53.16636658 51.61749268 C62.06602617 60.54927624 70.95640251 69.49024074 79.8401947 78.43780518 C78.70011403 81.85804719 78.02967286 82.23693998 75.1526947 84.18780518 C67.5190806 89.75938756 63.89178412 95.51639377 60.8401947 104.43780518 C57.86300938 103.09742685 55.76740335 101.61861207 53.45614624 99.32118225 C52.8070932 98.68065918 52.15804016 98.04013611 51.48931885 97.38020325 C50.43794991 96.32747475 50.43794991 96.32747475 49.36534119 95.253479 C48.61855103 94.51340607 47.87176086 93.77333313 47.1023407 93.01083374 C44.63331074 90.56081325 42.17190546 88.10330433 39.71128845 85.64483643 C37.99798193 83.93795602 36.28452463 82.23122694 34.57092285 80.52464294 C30.97879542 76.94449586 27.3908324 73.36023255 23.80528259 69.77349854 C19.21315029 65.18116307 14.60742252 60.60273257 9.99800014 56.02776051 C6.45410159 52.50611452 2.91934613 48.97540009 -0.61291313 45.44208336 C-2.30694606 43.75040903 -4.00421968 42.06197342 -5.70479012 40.37687111 C-8.08426574 38.01701944 -10.45069966 35.64479573 -12.81434631 33.269104 C-13.51728317 32.57740616 -14.22022003 31.88570831 -14.94445801 31.17304993 C-19.4163142 26.64314302 -22.40824914 22.63030965 -23.5582428 16.21514893 C-23.4900082 10.85873307 -22.56851582 6.87284041 -18.7301178 2.99249268 C-13.00107003 -1.99548424 -6.85557557 -3.38936854 0 0 Z " fill="#FCDE93" transform="translate(159.15980529785156,76.56219482421875)"/>
<path d="M0 0 C7.8593923 1.16185926 13.41143375 9.48289051 18.46484375 15.03515625 C32.72812817 30.56239584 42.86378281 41.51840638 64.73095703 43.60253906 C68.00653485 44.17631146 69.81097768 45.5515717 72 48 C72.33 48.99 72.66 49.98 73 51 C66.11819987 53.35055342 59.23535327 55.69802319 52.35180664 58.04345703 C50.01530748 58.83996519 47.67903955 59.637152 45.34301758 60.43505859 C41.96497745 61.58874702 38.58608426 62.73990706 35.20703125 63.890625 C33.66714287 64.41743866 33.66714287 64.41743866 32.09614563 64.95489502 C10.5712841 72.27403074 10.5712841 72.27403074 1 74 C0.34 73.67 -0.32 73.34 -1 73 C-1.02312504 63.62964062 -1.04091591 54.25929099 -1.05181217 44.88890934 C-1.05704065 40.53831541 -1.06413765 36.18774093 -1.07543945 31.8371582 C-1.08626959 27.64209742 -1.0922771 23.44705541 -1.09487724 19.25198174 C-1.09673126 17.64793032 -1.10035144 16.04387997 -1.10573006 14.4398365 C-1.11294219 12.20083485 -1.11399087 9.9619117 -1.11352539 7.72290039 C-1.115746 6.44604874 -1.11796661 5.16919708 -1.12025452 3.85365295 C-1 1 -1 1 0 0 Z " fill="#D2885B" transform="translate(257,274)"/>
<path d="M0 0 C8.58339428 2.23166044 17.00898211 4.8723771 25.4375 7.625 C28.17028907 8.51519652 30.90344331 9.40426683 33.63671875 10.29296875 C34.67162949 10.6298748 34.67162949 10.6298748 35.72744751 10.97358704 C40.52340187 12.5312746 45.33061592 14.049639 50.14453125 15.55078125 C51.43766226 15.95661087 52.730714 16.36269316 54.02368164 16.76904297 C56.46461303 17.5344428 58.90775067 18.29284999 61.35327148 19.04345703 C62.44841064 19.38876465 63.5435498 19.73407227 64.671875 20.08984375 C65.6319043 20.38753662 66.59193359 20.68522949 67.58105469 20.99194336 C70.02623969 22.01093497 71.30562905 22.995467 73 25 C60.77566832 42.09929174 47.74587054 58.63077544 34.7421875 75.140625 C34.23574707 75.78362549 33.72930664 76.42662598 33.20751953 77.08911133 C32.26436596 78.28519436 31.32010276 79.48040359 30.37451172 80.67456055 C28.48411692 83.06947407 26.69391237 85.45913144 25 88 C18.41672421 78.55523122 22.43839511 63.50411812 23.640625 52.66601562 C24.57215918 42.42496178 22.1595476 37.28575944 15.78613281 29.52197266 C15.27920898 28.91659668 14.77228516 28.3112207 14.25 27.6875 C13.18628743 26.37728559 12.12379373 25.06608073 11.0625 23.75390625 C9.60273254 21.96051656 8.14075605 20.16961721 6.6640625 18.39013672 C-0.46309453 9.74505413 -0.46309453 9.74505413 -0.5 3.8125 C-0.335 2.554375 -0.17 1.29625 0 0 Z " fill="#E2A161" transform="translate(182,325)"/>
<path d="M0 0 C-0.33 24.42 -0.66 48.84 -1 74 C-5.90891174 73.29872689 -9.68348219 72.60892711 -14.26953125 71.1015625 C-15.47279053 70.70952637 -16.6760498 70.31749023 -17.91577148 69.91357422 C-19.21470474 69.4841213 -20.51361364 69.05459472 -21.8125 68.625 C-23.16264782 68.18316333 -24.51299368 67.7419314 -25.86352539 67.30126953 C-28.72982298 66.36543551 -31.59517059 65.42676549 -34.45996094 64.48632812 C-41.51341611 62.173657 -48.57868204 59.89739746 -55.64242554 57.61639404 C-59.31289598 56.43069616 -62.98262299 55.24270322 -66.65234375 54.0546875 C-67.87945068 53.65749512 -69.10655762 53.26030273 -70.37084961 52.85107422 C-71.67227905 52.42979248 -71.67227905 52.42979248 -73 52 C-73 49 -73 49 -70.95483398 46.44580078 C-67.52121004 43.60369183 -65.05070907 42.85022734 -60.72265625 41.8671875 C-60.03368759 41.7038089 -59.34471893 41.5404303 -58.63487244 41.37210083 C-56.44763675 40.85599499 -54.25590854 40.36414097 -52.0625 39.875 C-49.87374737 39.37508629 -47.6864584 38.86991895 -45.50083923 38.35647583 C-43.51617064 37.89199834 -41.52781714 37.44334955 -39.53930664 36.99560547 C-33.33690617 35.25087283 -29.63212218 33.17537034 -25.875 27.9375 C-25.11574219 26.885625 -24.35648438 25.83375 -23.57421875 24.75 C-21.63988114 21.96418728 -19.76187778 19.14358286 -17.89453125 16.3125 C-17.3629541 15.5069165 -16.83137695 14.70133301 -16.28369141 13.87133789 C-15.23465967 12.27179714 -14.19369677 10.66692994 -13.16162109 9.05639648 C-12.67902832 8.31462158 -12.19643555 7.57284668 -11.69921875 6.80859375 C-11.27471436 6.14657959 -10.85020996 5.48456543 -10.4128418 4.80249023 C-7.10277635 0.57953997 -5.54355227 0 0 0 Z " fill="#F2B969" transform="translate(257,274)"/>
<path d="M0 0 C0 17.16 0 34.32 0 52 C-2.97 52.66 -5.94 53.32 -9 54 C-11.38474548 54.77144678 -11.38474548 54.77144678 -13.4375 55.6875 C-14.25992188 56.02523437 -15.08234375 56.36296875 -15.9296875 56.7109375 C-17.64082211 57.42935279 -19.35072683 58.15078755 -21.05566406 58.88378906 C-23.38384518 59.87871252 -25.72236796 60.84606459 -28.0625 61.8125 C-28.8062085 62.13887451 -29.54991699 62.46524902 -30.31616211 62.80151367 C-35.68992918 64.99441741 -40.33189874 65.6120837 -46 64 C-46.66 63.34 -47.32 62.68 -48 62 C-47.80412875 57.84006772 -44.83247106 54.95413494 -42.3125 51.875 C-41.30668367 50.62027881 -40.30150632 49.36504521 -39.296875 48.109375 C-38.76126953 47.44357422 -38.22566406 46.77777344 -37.67382812 46.09179688 C-34.76970962 42.46249593 -31.91587551 38.79424532 -29.0625 35.125 C-28.47436523 34.36952881 -27.88623047 33.61405762 -27.28027344 32.83569336 C-23.32372895 27.74025874 -19.42443681 22.60493204 -15.5625 17.4375 C-15.06967529 16.7782251 -14.57685059 16.1189502 -14.0690918 15.43969727 C-13.59640869 14.80733154 -13.12372559 14.17496582 -12.63671875 13.5234375 C-10.39579853 10.5264377 -8.14872558 7.53475158 -5.875 4.5625 C-5.35679687 3.88316406 -4.83859375 3.20382812 -4.3046875 2.50390625 C-3.03435254 1.03959798 -2.05124063 0 0 0 Z " fill="#B46646" transform="translate(256,351)"/>
<path d="M0 0 C58.74 0 117.48 0 178 0 C172 7 172 7 169 8 C166.11213067 7.90920492 163.25560869 7.75992667 160.375 7.5625 C148.40167761 6.85020603 136.52937536 6.81795168 124.54626369 7.3617487 C111.06379741 7.96879325 97.61519511 8.13295525 84.12109375 8.09765625 C81.95964084 8.09578317 79.7981875 8.0943635 77.63673401 8.09336853 C72.0425797 8.08961321 66.44845281 8.07984579 60.85430908 8.06866455 C55.10795461 8.05829707 49.36159557 8.05383862 43.61523438 8.04882812 C32.41014443 8.03821461 21.20507453 8.0212262 10 8 C10 7.34 10 6.68 10 6 C9.278125 6.12375 8.55625 6.2475 7.8125 6.375 C5 6 5 6 0 0 Z " fill="#7C3B24" transform="translate(167,37)"/>
<path d="M0 0 C6.13848698 0.79376987 10.59229184 6.41632832 14.5 10.8125 C16 13 16 13 16 15 C17.5404185 17.45761424 19.11476076 19.85685494 20.75 22.25 C21.1934375 22.90613281 21.636875 23.56226563 22.09375 24.23828125 C22.97159077 25.53696922 23.85111976 26.83451781 24.73242188 28.13085938 C26.50416951 30.74343639 28.25276396 33.37098128 30 36 C29.63874023 36.43119141 29.27748047 36.86238281 28.90527344 37.30664062 C21.14867082 46.58712411 13.6187212 55.98221671 6.42578125 65.70703125 C5.78890381 66.56675537 5.78890381 66.56675537 5.13916016 67.44384766 C4.17169351 68.76545769 3.22949545 70.10550653 2.29296875 71.44921875 C1.86628906 71.96097656 1.43960937 72.47273438 1 73 C0.34 73 -0.32 73 -1 73 C-1.02312504 63.62964062 -1.04091591 54.25929099 -1.05181217 44.88890934 C-1.05704065 40.53831541 -1.06413765 36.18774093 -1.07543945 31.8371582 C-1.08626959 27.64209742 -1.0922771 23.44705541 -1.09487724 19.25198174 C-1.09673126 17.64793032 -1.10035144 16.04387997 -1.10573006 14.4398365 C-1.11294219 12.20083485 -1.11399087 9.9619117 -1.11352539 7.72290039 C-1.115746 6.44604874 -1.11796661 5.16919708 -1.12025452 3.85365295 C-1 1 -1 1 0 0 Z " fill="#DF9F5F" transform="translate(257,274)"/>
<path d="M0 0 C1.56192078 0.1071936 1.56192078 0.1071936 3.15539551 0.21655273 C16.61286232 1.0681575 30.03775346 1.11889686 43.51829529 1.07516479 C47.56823349 1.06218107 51.61813704 1.05568354 55.66809082 1.05102539 C65.00351588 1.03911458 74.33891147 1.01713684 83.67431641 0.99479675 C92.22760623 0.97441173 100.78088532 0.95638371 109.33419466 0.94658184 C113.96204133 0.94094401 118.5898239 0.92744981 123.21765137 0.91235352 C139.5005023 0.87980425 155.73366572 1.26509776 172 2 C169.24981689 5.95471191 169.24981689 5.95471191 167.00146484 6.36230469 C166.24559082 6.29946289 165.4897168 6.23662109 164.7109375 6.171875 C163.86112305 6.11370605 163.01130859 6.05553711 162.13574219 5.99560547 C161.22469727 5.91455566 160.31365234 5.83350586 159.375 5.75 C157.4507232 5.61937965 155.52623711 5.49180905 153.6015625 5.3671875 C152.64668945 5.30112305 151.69181641 5.23505859 150.70800781 5.16699219 C141.33030881 4.58870639 131.93399397 4.93640493 122.55725002 5.3617487 C109.07110595 5.96833951 95.61885591 6.13296483 82.12109375 6.09765625 C79.95964084 6.09578317 77.7981875 6.0943635 75.63673401 6.09336853 C70.0425797 6.08961321 64.44845281 6.07984579 58.85430908 6.06866455 C53.10795461 6.05829707 47.36159557 6.05383862 41.61523438 6.04882812 C30.41014443 6.03821461 19.20507453 6.0212262 8 6 C8 5.34 8 4.68 8 4 C6.8553125 4.12375 6.8553125 4.12375 5.6875 4.25 C4.800625 4.1675 3.91375 4.085 3 4 C1.33203125 1.984375 1.33203125 1.984375 0 0 Z " fill="#812A21" transform="translate(169,39)"/>
<path d="M0 0 C0.43052461 3.06748782 0.67918393 5.03386465 0 8 C-1.5411129 9.70697021 -1.5411129 9.70697021 -3.5730896 11.31933594 C-7.75217938 14.77174005 -11.54438315 18.45364226 -15.33056641 22.328125 C-16.74619108 23.7667173 -18.16185229 25.20527364 -19.57754517 26.64379883 C-20.31470387 27.39480865 -21.05186256 28.14581848 -21.81135941 28.91958618 C-25.74672239 32.92404514 -29.69904274 36.9117317 -33.6484375 40.90234375 C-38.65936458 45.96734228 -43.66498784 51.0372675 -48.65234375 56.12548828 C-52.69888386 60.25297656 -56.76215855 64.363302 -60.83732224 68.46252441 C-62.384999 70.02565661 -63.92635635 71.59507184 -65.46123123 73.17077637 C-67.60104851 75.3659072 -69.76152584 77.53847473 -71.92822266 79.70703125 C-72.55798508 80.36353165 -73.1877475 81.02003204 -73.83659363 81.69642639 C-75.50281144 83.33970922 -77.00559282 84.77565334 -79 86 C-82.44198608 85.89331055 -82.44198608 85.89331055 -85 85 C-80.61826976 79.7598442 -76.01005098 74.86679644 -71.17456055 70.04516602 C-70.41451218 69.28336533 -69.65446381 68.52156464 -68.87138367 67.73667908 C-66.37899114 65.23991382 -63.88299309 62.74679001 -61.38671875 60.25390625 C-59.64876426 58.51527783 -57.91095821 56.776501 -56.17329407 55.0375824 C-52.54285225 51.40567018 -48.91061719 47.77556353 -45.27709961 44.14672852 C-40.60829475 39.48364611 -35.9440275 34.81605469 -31.28106976 30.1471262 C-27.69968173 26.56213653 -24.11593014 22.97951728 -20.53144264 19.39762688 C-18.80942078 17.67627407 -17.08814687 15.9541727 -15.36762047 14.23132515 C-12.97363891 11.83482084 -10.57650457 9.4415168 -8.1784668 7.04907227 C-7.46213074 6.33071198 -6.74579468 5.61235168 -6.00775146 4.8722229 C-5.03423988 3.90294106 -5.03423988 3.90294106 -4.0410614 2.91407776 C-3.47457728 2.34797067 -2.90809317 1.78186357 -2.32444286 1.19860172 C-1 0 -1 0 0 0 Z " fill="#7D291F" transform="translate(352,70)"/>
<path d="M0 0 C5.30587683 3.91271364 10.47613675 7.96631037 15.59765625 12.1171875 C17.68107417 13.75004512 19.79392461 15.22901357 22 16.6875 C25.18112585 19.13961784 25.77206657 20.31619971 27 24 C27.70125 24.680625 28.4025 25.36125 29.125 26.0625 C31 28 31 28 31 32 C31.598125 32.268125 32.19625 32.53625 32.8125 32.8125 C35.92532852 34.5023212 37.5524536 36.15254923 39.2109375 39.29296875 C41.72404351 43.09555055 45.12600433 45.5263291 48.70507812 48.25 C52.11834062 50.95023238 53.50002741 52.98708632 55 57 C57.00017111 58.97402501 57.00017111 58.97402501 59.375 60.625 C60.14585937 61.19476563 60.91671875 61.76453125 61.7109375 62.3515625 C63.16096707 63.39578175 64.64356268 64.39728959 66.1640625 65.3359375 C68 67 68 67 68.8046875 69.8515625 C70.48161846 74.26857673 73.27001501 75.84826727 77.125 78.375 C77.78371094 78.82488281 78.44242187 79.27476562 79.12109375 79.73828125 C80.73790381 80.83958666 82.36771921 81.92175708 84 83 C83.67 83.66 83.34 84.32 83 85 C79.19778917 84.47940616 77.22595269 83.72456599 74.52693176 81.0012207 C73.88347305 80.36181549 73.24001434 79.72241028 72.57705688 79.06362915 C71.88751923 78.35813934 71.19798157 77.65264954 70.48754883 76.92578125 C69.74875992 76.18597015 69.00997101 75.44615906 68.24879456 74.68392944 C65.80874698 72.23599645 63.38306241 69.77431801 60.95703125 67.3125 C59.26597616 65.61144486 57.57396155 63.9113431 55.88102722 62.2121582 C51.42614662 57.73633234 46.98296939 53.24907021 42.5425415 48.75891113 C35.42708072 41.56820581 28.29289465 34.3960645 21.16089439 27.22177124 C18.66610222 24.70922448 16.17554423 22.19254263 13.68574524 19.67504883 C12.16530107 18.14139083 10.64481104 16.6077783 9.12426758 15.07421875 C8.42865723 14.36872894 7.73304688 13.66323914 7.01635742 12.93637085 C6.38135818 12.29696564 5.74635895 11.65756042 5.09211731 10.9987793 C4.54000485 10.44054977 3.9878924 9.88232025 3.41904926 9.30717468 C2.0135046 7.89130898 2.0135046 7.89130898 0 7 C0 4.69 0 2.38 0 0 Z " fill="#812D22" transform="translate(160,71)"/>
<path d="M0 0 C9.57323962 -0.02349765 19.14646884 -0.04110085 28.71973133 -0.05181217 C33.16822666 -0.05696119 37.61670182 -0.06390735 42.06518555 -0.07543945 C62.7364881 -0.12765483 83.34836236 -0.01874131 104 1 C102.75666809 2.98939514 102.75666809 2.98939514 101 5 C99.08378601 5.36131287 99.08378601 5.36131287 96.89331055 5.16967773 C96.07014847 5.11127213 95.24698639 5.05286652 94.39888 4.99269104 C93.50799179 4.91131393 92.61710358 4.82993683 91.69921875 4.74609375 C89.78337506 4.61214839 87.86717413 4.48323484 85.95068359 4.35888672 C84.96340271 4.29304382 83.97612183 4.22720093 82.95892334 4.15936279 C78.33098165 3.91010939 73.71513362 3.92843496 69.08203125 3.97265625 C68.1696167 3.97921234 67.25720215 3.98576843 66.31713867 3.99252319 C64.44214903 4.00668987 62.56716863 4.02213361 60.69219971 4.03881836 C40.3804769 4.20585485 20.25139708 3.55493676 0 2 C0 1.34 0 0.68 0 0 Z " fill="#7A291F" transform="translate(237,40)"/>
<path d="M0 0 C3.63 0.33 7.26 0.66 11 1 C11 1.66 11 2.32 11 3 C12.03511719 2.98839844 13.07023438 2.97679687 14.13671875 2.96484375 C24.43320027 2.88872099 34.70908971 3.09169182 45 3.4375 C46.21518311 3.47673584 47.43036621 3.51597168 48.68237305 3.55639648 C55.81747179 3.81078548 62.89831383 4.26175074 70 5 C70 5.33 70 5.66 70 6 C49.54 6 29.08 6 8 6 C8 5.34 8 4.68 8 4 C6.8553125 4.12375 6.8553125 4.12375 5.6875 4.25 C4.800625 4.1675 3.91375 4.085 3 4 C2.01 2.68 1.02 1.36 0 0 Z " fill="#8B2C25" transform="translate(169,39)"/>
<path d="M0 0 C5.30587683 3.91271364 10.47613675 7.96631037 15.59765625 12.1171875 C17.68107417 13.75004512 19.79392461 15.22901357 22 16.6875 C25.18112585 19.13961784 25.77206657 20.31619971 27 24 C29.02040748 26.27191416 29.02040748 26.27191416 31 28 C30.67 28.99 30.34 29.98 30 31 C29.2265625 30.28714844 28.453125 29.57429688 27.65625 28.83984375 C19.81067449 21.62004464 19.81067449 21.62004464 11.8125 14.5703125 C10.54934417 13.47594042 9.3002836 12.36517666 8.0625 11.2421875 C7.44375 10.68789062 6.825 10.13359375 6.1875 9.5625 C5.64480469 9.06878906 5.10210937 8.57507813 4.54296875 8.06640625 C2.90128353 6.71571999 2.90128353 6.71571999 0 7 C0 4.69 0 2.38 0 0 Z " fill="#922E28" transform="translate(160,71)"/>
<path d="M0 0 C0.99 0.99 1.98 1.98 3 3 C2.67 3.33 2.34 3.66 2 4 C1.92755947 6.01964199 1.91622812 8.04167124 1.9375 10.0625 C1.94652344 11.16722656 1.95554688 12.27195312 1.96484375 13.41015625 C1.97644531 14.26480469 1.98804688 15.11945313 2 16 C3.98 16.66 5.96 17.32 8 18 C8.33 19.65 8.66 21.3 9 23 C6.08482708 21.92598892 4.22189824 21.22189824 2 19 C1.67 21.31 1.34 23.62 1 26 C0.67 26 0.34 26 0 26 C0 17.42 0 8.84 0 0 Z " fill="#C84C4F" transform="translate(159,51)"/>
<path d="M0 0 C4.42851105 3.26571764 8.7803235 6.60659339 13.0625 10.0625 C16.94990592 13.19285314 20.90334685 16.15015433 25 19 C24.67 19.99 24.34 20.98 24 22 C20.33650077 19.94090557 17.33496948 17.66055189 14.25 14.8125 C10.10478232 11.00338105 5.89297377 7.29069553 1.6171875 3.62890625 C0 2 0 2 0 0 Z " fill="#9F302C" transform="translate(160,71)"/>
<path d="M0 0 C3.63 0.33 7.26 0.66 11 1 C11.33 1.99 11.66 2.98 12 4 C10.56416999 4.10836453 9.1259798 4.18576167 7.6875 4.25 C6.48673828 4.31960937 6.48673828 4.31960937 5.26171875 4.390625 C3 4 3 4 0 0 Z " fill="#87352C" transform="translate(169,39)"/>
</svg>
