<?xml version="1.0" encoding="UTF-8"?>
<svg version="1.1" xmlns="http://www.w3.org/2000/svg" width="512" height="512">
<path d="M0 0 C0.94641959 -0.00453111 1.89283919 -0.00906223 2.86793816 -0.01373065 C6.05313125 -0.02643522 9.23815467 -0.02475038 12.42337036 -0.02310181 C14.70138775 -0.02908327 16.9794031 -0.03588792 19.25741577 -0.04345703 C25.45573406 -0.06116297 31.65399718 -0.06581434 37.85233831 -0.0670886 C43.02150628 -0.06898483 48.1906613 -0.07633917 53.3598243 -0.08343279 C64.85562082 -0.0988001 76.35138578 -0.10476914 87.84719108 -0.10342209 C88.8821508 -0.10330222 88.8821508 -0.10330222 89.9380188 -0.10317993 C90.62883337 -0.10309817 91.31964794 -0.10301641 92.03139628 -0.10293217 C103.22790936 -0.10211921 114.42428793 -0.12125846 125.62076209 -0.14945666 C137.11425217 -0.17817473 148.60765924 -0.19163115 160.10118783 -0.19026911 C166.5551385 -0.18975841 173.00893701 -0.1955016 179.46285629 -0.21662521 C185.5318241 -0.23594571 191.6004936 -0.23617438 197.66947174 -0.22159195 C199.89915781 -0.21949507 202.12886224 -0.22425672 204.35851669 -0.23631287 C207.39821928 -0.25168673 210.43688321 -0.2425089 213.4765625 -0.22705078 C214.80569666 -0.24248147 214.80569666 -0.24248147 216.16168201 -0.25822389 C220.26179757 -0.21202352 222.33265676 -0.0708082 225.87120247 2.17635155 C230.67457941 7.21341381 230.20050734 12.00163079 230.17776489 18.64242554 C230.19387817 19.57570679 230.20999146 20.50898804 230.22659302 21.47055054 C230.23032985 26.74696254 230.10224347 30.86513467 226.86526489 35.26742554 C220.86526489 38.26742554 220.86526489 38.26742554 203.86526489 38.26742554 C203.86526489 50.80742554 203.86526489 63.34742554 203.86526489 76.26742554 C205.35026489 75.77242554 205.35026489 75.77242554 206.86526489 75.26742554 C212.48126406 74.8991633 216.04192479 75.05186547 220.86526489 78.26742554 C224.78794217 82.14769549 226.70505506 85.37694957 227.17776489 90.95492554 C227.03469389 98.60030689 222.69847933 103.8947879 217.41760254 109.03503418 C216.70262604 109.71049286 215.98764954 110.38595154 215.25100708 111.08187866 C214.48964447 111.81812469 213.72828186 112.55437073 212.94384766 113.31292725 C211.29896242 114.90264682 209.6498847 116.48803764 207.99706268 118.06950378 C205.37845286 120.5809844 202.77820332 123.11012112 200.18295288 125.64572144 C192.80690113 132.85133668 185.4213181 140.04602838 177.97073364 147.1746521 C173.40551906 151.54515237 168.88086003 155.9542924 164.37970734 160.39070129 C162.66379873 162.06716773 160.93340229 163.72894385 159.18828583 165.37498474 C148.20582974 175.00555702 148.20582974 175.00555702 143.72340775 188.23339081 C143.84324391 191.33530392 144.23180599 194.22731673 144.86526489 197.26742554 C145.46806274 197.35894897 146.0708606 197.45047241 146.69192505 197.54476929 C169.06634217 201.12387173 191.56297128 214.12199279 208.68167114 228.54086304 C210.9700817 230.35030394 213.33628995 231.81848735 215.86526489 233.26742554 C216.25158081 232.84557983 216.63789673 232.42373413 217.03591919 231.98910522 C230.29951522 217.55248483 243.31581258 204.87604881 259.86526489 194.26742554 C260.76760864 193.67445679 261.66995239 193.08148804 262.59963989 192.47055054 C267.60777555 189.39659141 270.99248357 188.42845678 276.86526489 189.26742554 C281.63174378 190.98405505 285.64775221 193.27770981 288.86526489 197.26742554 C297.12196342 222.03752111 288.77328989 254.23087557 281.86526489 278.26742554 C281.65788696 278.99574585 281.45050903 279.72406616 281.23684692 280.47445679 C280.78164136 282.07268072 280.32382064 283.6701596 279.86526489 285.26742554 C280.4094104 285.11596069 280.95355591 284.96449585 281.51419067 284.80844116 C284.00410308 284.1201813 286.49707972 283.44372943 288.99026489 282.76742554 C289.84620239 282.52894897 290.70213989 282.29047241 291.58401489 282.04476929 C300.45390534 279.65672186 300.45390534 279.65672186 304.86526489 280.26742554 C307.16604614 281.72836304 307.16604614 281.72836304 309.17776489 283.64242554 C309.85452271 284.26890991 310.53128052 284.89539429 311.22854614 285.54086304 C314.094695 288.56434226 314.08414126 290.95296598 314.02590942 295.05599976 C313.76602941 298.63349703 312.85719111 301.91318289 311.80276489 305.32992554 C311.58161011 306.06162964 311.36045532 306.79333374 311.13259888 307.54721069 C308.74162257 315.14034203 305.47417238 322.18716982 301.86526489 329.26742554 C301.39346802 330.22004272 300.92167114 331.17265991 300.43557739 332.15414429 C295.07626569 342.52456382 288.18338892 351.98827814 280.30276489 360.57992554 C279.84546997 361.08064575 279.38817505 361.58136597 278.91702271 362.09725952 C276.82101266 364.34431656 274.71197254 366.39001254 272.31057739 368.31039429 C264.91767894 374.38226662 264.27515714 381.0152599 262.80667114 390.00180054 C257.51836288 421.74326001 236.57813837 454.14172423 211.86526489 474.26742554 C211.13678345 474.87239868 211.13678345 474.87239868 210.39358521 475.48959351 C191.6006072 491.0480874 170.49465273 502.06634309 146.86526489 508.26742554 C146.07184692 508.47915405 145.27842896 508.69088257 144.46096802 508.9090271 C120.14616512 515.09059061 91.04363293 514.93188916 66.86526489 508.26742554 C65.42932983 507.87273071 65.42932983 507.87273071 63.96438599 507.47006226 C36.36249468 499.59717413 13.4310183 485.85939649 -6.75192261 465.64633179 C-8.12316512 464.27733721 -9.51321294 462.92557459 -10.95114136 461.62680054 C-31.62340492 442.57317059 -43.96560298 413.56869651 -50.12692261 386.72055054 C-50.30231567 385.97176636 -50.47770874 385.22298218 -50.65841675 384.45150757 C-50.96748308 383.03433309 -51.23502017 381.60722195 -51.45285034 380.17318726 C-52.55072779 373.96362241 -55.87480051 371.00978873 -60.44723511 366.89242554 C-68.95667262 358.81599675 -75.68098085 350.03436269 -82.13473511 340.26742554 C-82.82051636 339.24390991 -83.50629761 338.22039429 -84.21286011 337.16586304 C-91.51024722 325.49661789 -97.63302401 310.83802819 -100.13473511 297.26742554 C-100.33969604 296.20201538 -100.33969604 296.20201538 -100.54879761 295.11508179 C-100.88316528 291.88905297 -100.43485545 289.7144798 -98.63473511 287.03305054 C-94.16714251 281.78362924 -94.16714251 281.78362924 -91.13473511 280.26742554 C-82.44804365 280.18699321 -74.3354489 282.69347887 -66.13473511 285.26742554 C-66.33107544 284.60436401 -66.52741577 283.94130249 -66.72970581 283.25814819 C-70.71252593 269.70743077 -74.43443615 256.31229268 -76.13473511 242.26742554 C-76.2289978 241.48987915 -76.3232605 240.71233276 -76.42037964 239.91122437 C-77.09058438 233.87051655 -77.29277577 227.90492789 -77.25973511 221.82992554 C-77.25357178 220.45514038 -77.25357178 220.45514038 -77.24728394 219.05258179 C-77.08789504 199.74767347 -77.08789504 199.74767347 -73.13473511 195.26742554 C-68.0441538 191.04537943 -64.05796761 188.9232913 -57.2260437 189.0262146 C-37.53046107 191.29789749 -13.87933372 219.23119792 -2.13473511 233.26742554 C1.54822282 231.18260828 4.66200458 228.83883115 7.86526489 226.07992554 C21.17837041 215.09528039 36.82406406 207.34103486 52.92776489 201.32992554 C53.71296509 201.03529419 54.49816528 200.74066284 55.30715942 200.43710327 C56.43613647 200.03020264 56.43613647 200.03020264 57.58792114 199.61508179 C58.24542358 199.37797485 58.90292603 199.14086792 59.58035278 198.89657593 C62.63856157 198.05449835 65.72576161 197.69823199 68.86526489 197.26742554 C70.19205751 191.01359981 70.92924428 184.74183498 67.53625107 179.03022385 C62.86464086 173.01314805 57.21473377 167.88587169 51.68948364 162.66976929 C49.92170592 160.94205098 48.15774676 159.21041773 46.39744568 157.4750824 C41.77164946 152.93271451 37.10165023 148.43877844 32.41873169 143.95541382 C24.92332701 136.76202178 17.50193118 129.49208051 10.07227516 122.23092842 C7.47685132 119.70612027 4.86526862 117.19908139 2.24995422 114.69490051 C0.65236292 113.15019532 -0.9450342 111.60528928 -2.54220581 110.06015015 C-3.63408958 109.02754311 -3.63408958 109.02754311 -4.74803162 107.97407532 C-9.37584986 103.46819946 -12.36577741 99.55700328 -13.53317261 93.04476929 C-13.46493801 87.68835343 -12.54344563 83.70246077 -8.70504761 79.82211304 C-4.95749707 76.55932028 -2.06043072 75.1237676 2.86526489 75.14242554 C3.54588989 75.13984741 4.22651489 75.13726929 4.92776489 75.13461304 C6.86526489 75.26742554 6.86526489 75.26742554 9.86526489 76.26742554 C9.86526489 63.72742554 9.86526489 51.18742554 9.86526489 38.26742554 C4.25526489 38.26742554 -1.35473511 38.26742554 -7.13473511 38.26742554 C-13.13473511 35.26742554 -13.13473511 35.26742554 -14.98239136 32.73617554 C-16.55076761 28.01509719 -16.61015314 23.71055772 -16.57223511 18.76742554 C-16.59221558 17.84316772 -16.61219604 16.91890991 -16.63278198 15.96664429 C-16.62868368 10.23721673 -16.05632795 6.74924592 -12.13473511 2.26742554 C-8.13752717 -0.39737976 -4.64156688 -0.01614268 0 0 Z " fill="#D5905A" transform="translate(149.13473510742188,-0.267425537109375)"/>
<path d="M0 0 C0.94641959 -0.00453111 1.89283919 -0.00906223 2.86793816 -0.01373065 C6.05313125 -0.02643522 9.23815467 -0.02475038 12.42337036 -0.02310181 C14.70138775 -0.02908327 16.9794031 -0.03588792 19.25741577 -0.04345703 C25.45573406 -0.06116297 31.65399718 -0.06581434 37.85233831 -0.0670886 C43.02150628 -0.06898483 48.1906613 -0.07633917 53.3598243 -0.08343279 C64.85562082 -0.0988001 76.35138578 -0.10476914 87.84719108 -0.10342209 C88.8821508 -0.10330222 88.8821508 -0.10330222 89.9380188 -0.10317993 C90.62883337 -0.10309817 91.31964794 -0.10301641 92.03139628 -0.10293217 C103.22790936 -0.10211921 114.42428793 -0.12125846 125.62076209 -0.14945666 C137.11425217 -0.17817473 148.60765924 -0.19163115 160.10118783 -0.19026911 C166.5551385 -0.18975841 173.00893701 -0.1955016 179.46285629 -0.21662521 C185.5318241 -0.23594571 191.6004936 -0.23617438 197.66947174 -0.22159195 C199.89915781 -0.21949507 202.12886224 -0.22425672 204.35851669 -0.23631287 C207.39821928 -0.25168673 210.43688321 -0.2425089 213.4765625 -0.22705078 C214.80569666 -0.24248147 214.80569666 -0.24248147 216.16168201 -0.25822389 C220.26179757 -0.21202352 222.33265676 -0.0708082 225.87120247 2.17635155 C230.67457941 7.21341381 230.20050734 12.00163079 230.17776489 18.64242554 C230.19387817 19.57570679 230.20999146 20.50898804 230.22659302 21.47055054 C230.23032985 26.74696254 230.10224347 30.86513467 226.86526489 35.26742554 C222.03800664 38.68374925 217.66446199 38.64246256 211.99026489 38.45492554 C210.81463989 38.4346228 210.81463989 38.4346228 209.61526489 38.41390991 C207.69829707 38.37884343 205.78168738 38.32504626 203.86526489 38.26742554 C203.95663003 39.09663954 204.04799517 39.92585354 204.14212894 40.78019524 C204.52961534 46.89612709 204.64378726 51.26692331 200.60951233 56.11340332 C199.10302128 57.66924979 197.56045916 59.19070279 195.99002075 60.68197632 C195.15270416 61.52761642 194.31538757 62.37325653 193.45269775 63.24452209 C191.1672457 65.53931749 188.85562827 67.80276865 186.52795482 70.05458307 C184.08929603 72.42638855 181.68635058 74.83388741 179.2787323 77.23712158 C175.23362717 81.26475229 171.1651096 85.26736209 167.07937622 89.25375366 C161.84582919 94.36027247 156.65222506 99.50552176 151.47035885 104.66441536 C146.99946801 109.11501758 142.51149408 113.5482779 138.02030873 117.97838736 C136.58449283 119.39590971 135.15084922 120.81560258 133.71742058 122.23553848 C131.03732479 124.88337948 128.34414542 127.51711102 125.64627075 130.14682007 C124.85792343 130.92912491 124.06957611 131.71142975 123.25733948 132.5174408 C117.99265959 137.6097268 113.8111963 140.77418411 106.36526489 141.70492554 C98.13842692 140.67657079 92.8195394 134.69875379 87.17605591 129.12509155 C85.91631203 127.8973275 85.91631203 127.8973275 84.63111877 126.64476013 C81.8682327 123.94586146 79.11741854 121.23513162 76.36917114 118.52133179 C75.41733978 117.58297331 74.46543952 116.64468471 73.5134716 115.70646477 C69.55333029 111.80159009 65.59698689 107.89294216 61.65132236 103.9734354 C56.01900146 98.37849663 50.36556181 92.80710413 44.67951447 87.26675659 C40.66919218 83.35568908 36.68435043 79.41978268 32.71740669 75.46472877 C30.35287559 73.10852056 27.97669277 70.76839265 25.57815742 68.44650459 C22.90341396 65.85220228 20.27280461 63.21970218 17.64871216 60.5743103 C16.85554596 59.82316956 16.06237976 59.07202881 15.24517822 58.29812622 C10.76555609 53.67908594 9.39995494 50.70501185 9.37879944 44.18574524 C9.50239896 42.2101816 9.65129378 40.23525299 9.86526489 38.26742554 C8.12889771 38.31963257 8.12889771 38.31963257 6.35745239 38.37289429 C4.81840449 38.4010476 3.27934078 38.4283461 1.74026489 38.45492554 C0.97971802 38.48006226 0.21917114 38.50519897 -0.56442261 38.53109741 C-5.47874053 38.59464463 -8.9893076 38.20120732 -13.13473511 35.26742554 C-16.86266891 30.16023505 -16.61883987 24.84299207 -16.57223511 18.76742554 C-16.59221558 17.84316772 -16.61219604 16.91890991 -16.63278198 15.96664429 C-16.62868368 10.23721673 -16.05632795 6.74924592 -12.13473511 2.26742554 C-8.13752717 -0.39737976 -4.64156688 -0.01614268 0 0 Z " fill="#E4A265" transform="translate(149.13473510742188,-0.267425537109375)"/>
<path d="M0 0 C1.9296875 1.7578125 1.9296875 1.7578125 3.875 4.125 C7.96383946 8.88729538 12.24573793 13.37726514 16.6875 17.8125 C17.63181885 18.76310303 17.63181885 18.76310303 18.59521484 19.73291016 C21.41404524 22.54431672 24.23936865 25.25215288 27.33203125 27.76171875 C29.88195843 29.90096952 31.73342472 31.50593855 32.3359375 34.8828125 C32.78906863 60.89253934 18.14372544 86.23591956 0.82373047 104.51074219 C-17.33213172 123.15349826 -40.49611836 132.35404271 -65.90405273 135.71508789 C-67.84828321 135.97937641 -69.78599323 136.29048159 -71.72265625 136.60546875 C-74.79797617 136.97568009 -77.37540809 136.94001818 -80.4375 136.5625 C-81.30246094 136.46066406 -82.16742188 136.35882813 -83.05859375 136.25390625 C-83.69925781 136.17011719 -84.33992188 136.08632813 -85 136 C-85 135.67 -85 135.34 -85 135 C-82.36 134.67 -79.72 134.34 -77 134 C-77.51949219 133.55269531 -78.03898437 133.10539063 -78.57421875 132.64453125 C-79.27160156 132.03996094 -79.96898437 131.43539062 -80.6875 130.8125 C-81.71423828 129.92498047 -81.71423828 129.92498047 -82.76171875 129.01953125 C-85.26509392 126.76081404 -87.61944083 124.38844457 -90 122 C-91.10633661 120.9025531 -92.21357057 119.80601035 -93.3215332 118.71020508 C-96.61724205 115.4499402 -99.9069638 112.18370732 -103.19458008 108.9152832 C-104.61372129 107.50628456 -106.03463964 106.09907372 -107.45727539 104.69360352 C-109.51394799 102.6610575 -111.56420994 100.62223643 -113.61328125 98.58203125 C-114.25380936 97.95182571 -114.89433746 97.32162018 -115.55427551 96.6723175 C-117.07461482 95.15237114 -118.54296174 93.58073023 -120 92 C-120 91.34 -120 90.68 -120 90 C-120.639375 89.71125 -121.27875 89.4225 -121.9375 89.125 C-124 88 -124 88 -125 86 C-120.00513677 79.48596178 -114.99425949 72.98513551 -109.94873047 66.51025391 C-95.86880925 48.46885892 -95.86880925 48.46885892 -82.1875 30.125 C-81.76049805 29.54782227 -81.33349609 28.97064453 -80.89355469 28.37597656 C-78.47560913 25.04226701 -78.47560913 25.04226701 -78 21 C-77.01128906 21.05671875 -76.02257812 21.1134375 -75.00390625 21.171875 C-70.59487272 21.16744715 -67.0072226 19.83372741 -62.9375 18.25 C-57.8665187 16.31443557 -52.80525415 14.63689493 -47.5703125 13.19140625 C-42.01920357 11.6362753 -36.58691781 9.87066767 -31.15234375 7.94921875 C-30.39886154 7.68382294 -29.64537933 7.41842712 -28.86906433 7.14498901 C-25.76375315 6.04849685 -22.66012912 4.94778312 -19.56176758 3.83178711 C-17.26234838 3.00580059 -14.95797258 2.19518068 -12.65234375 1.38671875 C-11.95648666 1.13162033 -11.26062958 0.87652191 -10.54368591 0.61369324 C-6.66628962 -0.73219488 -3.92641144 -1.3911354 0 0 Z " fill="#AA5941" transform="translate(332,326)"/>
<path d="M0 0 C58.08 0 116.16 0 176 0 C174.00785059 3.98429881 171.72771927 6.54645238 168.6171875 9.61328125 C167.81754074 10.41224068 167.81754074 10.41224068 167.0017395 11.2273407 C165.87266483 12.35339921 164.74116559 13.4770312 163.60742188 14.59838867 C161.89664129 16.29108744 160.19382508 17.99147489 158.4921875 19.69335938 C157.38848786 20.79213599 156.28433479 21.89045736 155.1796875 22.98828125 C154.68040741 23.48644852 154.18112732 23.98461578 153.66671753 24.49787903 C150.9285225 27.20067238 148.12408073 29.77993539 145.20776367 32.29003906 C140.42479076 36.43972921 135.96657256 40.88975895 131.49609375 45.37109375 C130.6139772 46.25225357 129.73186066 47.13341339 128.82301331 48.04127502 C126.49767191 50.3657675 124.17476382 52.69265907 121.85266113 55.02038574 C120.43855176 56.43644678 119.02250879 57.85054321 117.60571289 59.26391602 C114.8581328 62.00528256 112.11407894 64.75013034 109.37109375 67.49609375 C108.53549423 68.32966904 107.69989471 69.16324432 106.838974 70.02207947 C102.56046362 74.31756473 98.42911743 78.67713726 94.49476624 83.29115295 C94.00149338 83.85507248 93.50822052 84.418992 93 85 C92.52352524 85.58974106 92.04705048 86.17948212 91.55613708 86.78709412 C91.04261185 87.18735306 90.52908661 87.587612 90 88 C86.73485464 87.57595116 85.08890042 86.46066808 82.80145264 84.15548706 C82.19328201 83.54999527 81.58511139 82.94450348 80.95851135 82.32066345 C80.3028569 81.65265213 79.64720245 80.98464081 78.97167969 80.29638672 C78.27193527 79.59547409 77.57219086 78.89456146 76.85124207 78.17240906 C74.53441918 75.84838649 72.22829823 73.51402743 69.921875 71.1796875 C68.31080806 69.56048231 66.69900123 67.94201297 65.08648682 66.32424927 C60.83505527 62.05567556 56.5922553 57.77862845 52.35162354 53.49932861 C45.58054499 46.66915702 38.79694604 39.85142803 32.01255035 33.03448868 C29.65016818 30.65822046 27.29169243 28.2781298 24.93377686 25.89743042 C23.47123972 24.4248587 22.00861794 22.95237105 20.54589844 21.47998047 C19.89834091 20.82411453 19.25078339 20.1682486 18.58360291 19.49250793 C14.78281996 15.6735582 10.86461158 12.05451864 6.77768326 8.54294014 C4.37878643 6.4608177 2.14438224 4.34541808 0 2 C0 1.34 0 0.68 0 0 Z " fill="#95C63D" transform="translate(168,37)"/>
<path d="M0 0 C0.29309159 4.14431514 0.46884275 8.28594806 0.625 12.4375 C0.70878906 13.60216797 0.79257812 14.76683594 0.87890625 15.96679688 C1.12396391 24.66634364 1.12396391 24.66634364 -1.71885681 28.03953552 C-2.49088943 28.65224808 -3.26292206 29.26496063 -4.05834961 29.89624023 C-8.77120105 33.87467989 -13.13600721 38.05531991 -17.44995117 42.46337891 C-18.12814879 43.15407187 -18.80634642 43.84476484 -19.50509548 44.5563879 C-20.93993754 46.01870416 -22.37390111 47.48188284 -23.80705833 48.94585037 C-27.66659108 52.88271791 -31.54476988 56.80117302 -35.41992188 60.72265625 C-40.3290263 65.69188727 -45.23216053 70.66657673 -50.11401367 75.66259766 C-54.08286216 79.72327653 -58.07083098 83.76425849 -62.07250404 87.79258347 C-63.58955914 89.32692537 -65.09941506 90.86842023 -66.60182762 92.41710281 C-68.69585976 94.57374274 -70.8133944 96.70433429 -72.93823242 98.83056641 C-73.55190674 99.47457397 -74.16558105 100.11858154 -74.79785156 100.78210449 C-76.4768717 102.43366946 -77.96343898 103.81669231 -80 105 C-83.78096008 104.92001343 -83.78096008 104.92001343 -87 104 C-94.88693466 102.30737019 -102.38395869 102.21364342 -110 105 C-113.82170669 104.602697 -115.78507132 103.71344262 -118.47306824 101.0012207 C-119.11652695 100.36181549 -119.75998566 99.72241028 -120.42294312 99.06362915 C-121.11248077 98.35813934 -121.80201843 97.65264954 -122.51245117 96.92578125 C-123.25124008 96.18597015 -123.99002899 95.44615906 -124.75120544 94.68392944 C-127.19125302 92.23599645 -129.61693759 89.77431801 -132.04296875 87.3125 C-133.73402384 85.61144486 -135.42603845 83.9113431 -137.11897278 82.2121582 C-141.57385338 77.73633234 -146.01703061 73.24907021 -150.4574585 68.75891113 C-157.57291928 61.56820581 -164.70710535 54.3960645 -171.83910561 47.22177124 C-174.33389778 44.70922448 -176.82445577 42.19254263 -179.31425476 39.67504883 C-180.83469893 38.14139083 -182.35518896 36.6077783 -183.87573242 35.07421875 C-184.57134277 34.36872894 -185.26695312 33.66323914 -185.98364258 32.93637085 C-186.93614143 31.97726303 -186.93614143 31.97726303 -187.90788269 30.9987793 C-188.45999515 30.44054977 -189.0121076 29.88232025 -189.58095074 29.30717468 C-190.9864954 27.89130898 -190.9864954 27.89130898 -193 27 C-193 19.08 -193 11.16 -193 3 C-188.97336827 4.00665793 -188.19373095 4.43483937 -185.44631958 7.21310425 C-184.75953125 7.90010406 -184.07274292 8.58710388 -183.36514282 9.29492188 C-182.62218964 10.05337402 -181.87923645 10.81182617 -181.11376953 11.59326172 C-180.3230304 12.38838165 -179.53229126 13.18350159 -178.71759033 14.00271606 C-176.99986028 15.7318706 -175.28560511 17.46448234 -173.57440567 19.20009995 C-170.8658676 21.94687159 -168.14811692 24.6842122 -165.42770386 27.41921997 C-159.16128094 33.72288661 -152.90881554 40.04031396 -146.65707397 46.35853577 C-140.4762065 52.6048232 -134.28947884 58.8451367 -128.09243393 65.07538223 C-125.41521458 67.77205004 -122.74719443 70.47759919 -120.07937622 73.18356323 C-118.43503701 74.8388021 -116.79027398 76.49362007 -115.14501953 78.14794922 C-114.40611481 78.90235291 -113.66721008 79.65675659 -112.90591431 80.434021 C-108.27683132 85.06451783 -104.34611839 88.56624391 -97.625 89.4375 C-88.71664806 88.36235408 -83.31570978 82.87936718 -77.30493164 76.74316406 C-76.47631622 75.91352646 -75.64770081 75.08388885 -74.79397583 74.22911072 C-72.07323535 71.50052199 -69.36682367 68.75816801 -66.66015625 66.015625 C-64.76920607 64.11466954 -62.8774355 62.2145692 -60.98448181 60.31561279 C-56.52273047 55.83632298 -52.07085614 51.34735721 -47.62286896 46.85440326 C-41.07957985 40.24568991 -34.52334218 33.64984046 -27.96479702 27.0562706 C-27.48434384 26.57324801 -27.00389066 26.09022542 -26.50887829 25.59256577 C-25.55146052 24.63005131 -24.59401042 23.667569 -23.636527 22.70511985 C-20.37587928 19.4267255 -17.1209905 16.14267924 -13.86769104 12.85699463 C-12.17494227 11.15103668 -10.48214991 9.44512199 -8.78930664 7.73925781 C-8.0106575 6.95072922 -7.23200836 6.16220062 -6.42976379 5.34977722 C-5.72474731 4.64035477 -5.01973083 3.93093231 -4.29335022 3.20001221 C-3.67784333 2.57838825 -3.06233644 1.9567643 -2.42817783 1.31630325 C-1 0 -1 0 0 0 Z " fill="#8ABD32" transform="translate(353,51)"/>
<path d="M0 0 C3.61165113 -0.65128135 5.50889202 -0.90809167 9 0 C12.54703661 2.82560544 15.47088414 6.06080765 18.49132156 9.42978668 C20.1529919 11.15923202 21.91166222 12.69626409 23.73651123 14.25231934 C27.69818115 17.69188164 31.41370477 21.30951873 35.08691406 25.05273438 C35.7448999 25.71860565 36.40288574 26.38447693 37.08081055 27.07052612 C38.49388186 28.50065594 39.90588505 29.93184181 41.31690216 31.36399841 C44.31761683 34.40705967 47.32790413 37.44057666 50.33761215 40.47473907 C55.92816156 46.1109354 61.51463126 51.75103927 67.08496094 57.40722656 C70.97378026 61.35524963 74.87454205 65.29111203 78.78362274 69.21907043 C80.26975431 70.71697206 81.75133178 72.21940598 83.22827911 73.72636414 C85.28444019 75.82329206 87.3554292 77.90439392 89.43066406 79.98242188 C90.03956482 80.61087006 90.64846558 81.23931824 91.27581787 81.8868103 C93.13421722 83.7864006 93.13421722 83.7864006 96 86 C99.39837718 85.56790909 100.97281439 84.38886511 103.3125 81.9375 C104.11107422 81.11572266 104.11107422 81.11572266 104.92578125 80.27734375 C106.09895543 78.98928245 107.26328227 77.69262258 108.39666748 76.36941528 C113.21622368 70.75188175 118.35160826 65.50321337 123.58984375 60.27734375 C124.49319962 59.37303116 125.39655548 58.46871857 126.32728577 57.53700256 C128.22796068 55.63565057 130.12959608 53.73532447 132.03295898 51.83666992 C134.45118392 49.42414139 136.86488958 47.00714919 139.27727413 44.58878231 C141.60818401 42.25335425 143.94293956 39.92177823 146.27734375 37.58984375 C147.13279282 36.73237045 147.98824188 35.87489716 148.86961365 34.99143982 C153.20176526 30.67598881 157.61010211 26.53662881 162.24565125 22.54978943 C164.66859505 20.409364 166.86321358 18.09386622 169.05859375 15.72265625 C170.38020508 14.33530273 170.38020508 14.33530273 171.72851562 12.91992188 C173.54636963 11.00245943 175.34836603 9.0698473 177.13476562 7.12304688 C183.70407279 0.30421161 183.70407279 0.30421161 187.66455078 -0.62548828 C190.16015625 -0.62890625 190.16015625 -0.62890625 194 0 C195.18618603 10.76561689 195.18618603 10.76561689 192.63007927 15.58047867 C190.59004088 18.03123015 188.43715965 20.2187139 186.12475586 22.41455078 C185.28743927 23.26019089 184.45012268 24.10583099 183.58743286 24.97709656 C181.3019808 27.27189196 178.99036338 29.53534311 176.66268992 31.78715754 C174.22403113 34.15896301 171.82108569 36.56646188 169.41346741 38.96969604 C165.36836228 42.99732676 161.29984471 46.99993655 157.21411133 50.98632812 C151.98056429 56.09284694 146.78696017 61.23809622 141.60509396 66.39698982 C137.13420311 70.84759204 132.64622918 75.28085237 128.15504384 79.71096182 C126.71922794 81.12848417 125.28558433 82.54817705 123.85215569 83.96811295 C121.1720599 86.61595395 118.47888052 89.24968549 115.78100586 91.87939453 C114.99265854 92.66169937 114.20431122 93.44400421 113.39207458 94.25001526 C108.1273947 99.34230126 103.9459314 102.50675857 96.5 103.4375 C88.27316203 102.40914525 82.9542745 96.43132825 77.31079102 90.85766602 C76.05104713 89.62990196 76.05104713 89.62990196 74.76585388 88.37733459 C72.0029678 85.67843593 69.25215365 82.96770608 66.50390625 80.25390625 C65.55207489 79.31554777 64.60017463 78.37725917 63.64820671 77.43903923 C59.6880654 73.53416456 55.73172199 69.62551662 51.78605747 65.70600986 C46.15373657 60.11107109 40.50029691 54.53967859 34.81424958 48.99933106 C30.80392729 45.08826354 26.81908554 41.15235714 22.8521418 37.19730324 C20.4876107 34.84109502 18.11142788 32.50096711 15.71289253 30.17907906 C13.03814907 27.58477675 10.40753972 24.95227665 7.78344727 22.30688477 C6.99028107 21.55574402 6.19711487 20.80460327 5.37991333 20.03070068 C0.9002912 15.4116604 -0.46530995 12.43758631 -0.48646545 5.9183197 C-0.36286593 3.94275607 -0.21397111 1.96782745 0 0 Z " fill="#E8EEEC" transform="translate(159,38)"/>
<path d="M0 0 C0.99 0.99 1.98 1.98 3 3 C2.34 3 1.68 3 1 3 C1 10.92 1 18.84 1 27 C2.32 27.66 3.64 28.32 5 29 C6.67911148 30.43301582 6.67911148 30.43301582 8.36627197 32.12576294 C9.01124634 32.76798798 9.6562207 33.41021301 10.32073975 34.07189941 C11.01701477 34.77536499 11.71328979 35.47883057 12.43066406 36.20361328 C13.17251953 36.9451767 13.914375 37.68674011 14.67871094 38.45077515 C17.12911939 40.90257671 19.572368 43.36138605 22.015625 45.8203125 C23.71341057 47.52182825 25.41163829 49.22290292 27.11029053 50.92355347 C31.57974916 55.40064806 36.04316914 59.88371638 40.50537109 64.36804199 C45.05985468 68.94298469 49.62000567 73.51227048 54.1796875 78.08203125 C63.12535692 87.04914995 72.0648529 96.02239708 81 105 C78.4413066 107.56835391 75.87605525 110.11761566 73.24609375 112.61328125 C67.97596012 117.67818019 63.73501317 122.09734772 61 129 C57.6536095 128.41486813 56.00962885 127.38692697 53.61595154 125.00363159 C52.9668985 124.36448318 52.31784546 123.72533478 51.64912415 123.06681824 C50.94821152 122.36140396 50.24729889 121.65598969 49.52514648 120.92919922 C48.77835632 120.18927231 48.03156616 119.4493454 47.262146 118.68699646 C44.79070564 116.23388644 42.33054383 113.76981467 39.87109375 111.3046875 C38.15800558 109.59615901 36.44454524 107.88800361 34.73072815 106.1802063 C31.13711826 102.59554049 27.54926098 99.00523323 23.96508789 95.41113281 C19.37464463 90.80921496 14.76857266 86.22331081 10.15780544 81.6417675 C6.61370071 78.11602612 3.07897096 74.5810019 -0.45310783 71.04321671 C-2.14727768 69.34889357 -3.84455232 67.65766901 -5.54498482 65.9696312 C-7.92456225 63.60495828 -10.29099698 61.22785234 -12.65454102 58.84716797 C-13.35747787 58.15389908 -14.06041473 57.46063019 -14.78465271 56.74635315 C-19.25178752 52.21123914 -22.24839166 48.19279554 -23.3984375 41.77734375 C-23.3302029 36.42092789 -22.40871053 32.43503523 -18.5703125 28.5546875 C-14.82276196 25.29189475 -11.92569561 23.85634206 -7 23.875 C-6.319375 23.87242188 -5.63875 23.86984375 -4.9375 23.8671875 C-3 24 -3 24 0 25 C0 16.75 0 8.5 0 0 Z " fill="#E4A365" transform="translate(159,51)"/>
<path d="M0 0 C4.23301121 2.82200747 7.17159664 5.95228992 8.8125 10.875 C9.41768756 18.01621325 7.90929534 22.98843133 3.40461922 28.64193153 C1.77631804 30.4129501 0.09643869 32.10934396 -1.62084961 33.79418945 C-2.25713791 34.43427444 -2.89342621 35.07435944 -3.54899597 35.73384094 C-5.63632752 37.82852911 -7.73761415 39.90855382 -9.83984375 41.98828125 C-11.30261515 43.44866577 -12.76464505 44.90979332 -14.22596741 46.37162781 C-17.28211126 49.42465227 -20.34482883 52.47086691 -23.4128418 55.51196289 C-27.34162676 59.40670946 -31.25705736 63.31455217 -35.1680975 67.22710896 C-38.18296756 70.24143487 -41.20302419 73.25051798 -44.22485542 76.257864 C-45.67050733 77.69716159 -47.11495994 79.13766482 -48.55817986 80.57940102 C-50.57539997 82.59227715 -52.59907396 84.59842747 -54.62475586 86.6027832 C-55.51408813 87.49347504 -55.51408813 87.49347504 -56.42138672 88.40216064 C-59.48972389 91.42346051 -62.38913111 93.77629656 -66.1875 95.875 C-67.45668822 97.06279739 -68.6892082 98.29143777 -69.875 99.5625 C-71.63671875 101.44921875 -71.63671875 101.44921875 -73.1875 102.875 C-73.8475 102.875 -74.5075 102.875 -75.1875 102.875 C-75.76757812 101.77091797 -75.76757812 101.77091797 -76.359375 100.64453125 C-81.06088783 91.29716537 -81.06088783 91.29716537 -88.875 84.75 C-92.1875 82.875 -92.1875 82.875 -93.1875 79.875 C-92.57491333 79.27812378 -92.57491333 79.27812378 -91.94995117 78.66918945 C-90.08628952 76.84733648 -88.23062816 75.01753329 -86.375 73.1875 C-85.73240234 72.56166016 -85.08980469 71.93582031 -84.42773438 71.29101562 C-83.80576172 70.67548828 -83.18378906 70.05996094 -82.54296875 69.42578125 C-81.97215576 68.86544189 -81.40134277 68.30510254 -80.81323242 67.7277832 C-79.10477519 65.91232974 -79.10477519 65.91232974 -77.93972778 63.63020325 C-75.83807994 60.32557184 -73.28565056 57.68562925 -70.52612305 54.93896484 C-69.95986206 54.36759293 -69.39360107 53.79622101 -68.81018066 53.20753479 C-66.94498563 51.32848926 -65.07250396 49.45691536 -63.19921875 47.5859375 C-61.89486568 46.27769527 -60.59073591 44.96923038 -59.28681946 43.66055298 C-56.55569476 40.92197602 -53.82073903 38.18729465 -51.08325195 35.45507812 C-47.58108987 31.95871197 -44.09042825 28.45110988 -40.60278606 24.94026756 C-37.91337286 22.23610186 -35.21704241 19.53891691 -32.51868629 16.84367752 C-31.22899039 15.55346926 -29.94164729 14.26090456 -28.656744 12.96592331 C-26.85728575 11.15408779 -25.04848892 9.35210367 -23.23706055 7.55224609 C-22.71165176 7.01919357 -22.18624298 6.48614105 -21.64491272 5.93693542 C-15.08024887 -0.5356992 -8.7451228 -3.08651393 0 0 Z " fill="#E5A761" transform="translate(367.1875,76.125)"/>
<path d="M0 0 C0.68594238 0.16709473 1.37188477 0.33418945 2.07861328 0.50634766 C4.84100533 1.3313185 7.03515942 2.22332232 8.77734375 4.58276367 C9.83697888 6.66400504 10.71016153 8.76343634 11.5625 10.9375 C12.24724687 12.45425291 12.93745063 13.9685529 13.6328125 15.48046875 C14.31964022 17.02778975 15.00452627 18.57597403 15.6875 20.125 C16.03425781 20.90552734 16.38101563 21.68605469 16.73828125 22.49023438 C18.12294776 25.61767079 19.48158118 28.72105632 20.6796875 31.92578125 C21.38476411 34.11501691 21.38476411 34.11501691 23.5625 34.9375 C23.2325 35.824375 22.9025 36.71125 22.5625 37.625 C21.63228053 40.70635198 21.48136536 42.77324897 21.5625 45.9375 C21.26222883 47.61043936 20.92692233 49.27735384 20.5625 50.9375 C19.80593953 54.94783143 19.43436317 58.73688687 19.4296875 62.81640625 C19.42839844 63.90244141 19.42710938 64.98847656 19.42578125 66.10742188 C19.43158203 67.78674805 19.43158203 67.78674805 19.4375 69.5 C19.43363281 70.62341797 19.42976563 71.74683594 19.42578125 72.90429688 C19.42707031 73.98904297 19.42835937 75.07378906 19.4296875 76.19140625 C19.43137939 77.66589233 19.43137939 77.66589233 19.43310547 79.17016602 C19.48729487 81.94078872 19.48729487 81.94078872 20.13330078 84.60913086 C20.5625 86.9375 20.5625 86.9375 19.5625 89.9375 C6.60985969 84.71917009 -3.03397171 68.00698174 -10.4375 56.9375 C-11.12714844 55.91011719 -11.81679687 54.88273437 -12.52734375 53.82421875 C-19.81121568 42.14690026 -25.93570368 27.50856496 -28.4375 13.9375 C-28.57414062 13.22722656 -28.71078125 12.51695312 -28.8515625 11.78515625 C-29.18593017 8.55912743 -28.73762034 6.38455426 -26.9375 3.703125 C-19.02024101 -5.59965431 -10.94908047 -3.02878783 0 0 Z " fill="#DF9C60" transform="translate(77.4375,283.0625)"/>
<path d="M0 0 C0 24.75 0 49.5 0 75 C-7.87594858 73.87486449 -7.87594858 73.87486449 -11.79174805 72.62060547 C-12.66764084 72.34296356 -13.54353363 72.06532166 -14.44596863 71.77926636 C-15.37516617 71.47828033 -16.30436371 71.17729431 -17.26171875 70.8671875 C-18.24759476 70.55226349 -19.23347076 70.23733948 -20.2492218 69.91287231 C-22.33700246 69.24469937 -24.42391613 68.5738121 -26.51000977 67.90039062 C-29.63034466 66.89344429 -32.75334607 65.89518068 -35.87695312 64.8984375 C-48.65956312 60.80456348 -61.35667309 56.50526483 -74 52 C-71.91265532 47.93517089 -70.14990866 45.94338069 -66 44 C-63.3948995 43.2503472 -60.85660443 42.60124433 -58.21484375 42.02734375 C-57.47673965 41.85876358 -56.73863556 41.69018341 -55.97816467 41.51649475 C-53.63306923 40.98183227 -51.2856008 40.45879139 -48.9375 39.9375 C-46.58615875 39.41136783 -44.23549864 38.88264008 -41.88612366 38.34779358 C-40.42821963 38.01627385 -38.969135 37.68989198 -37.5087738 37.36936951 C-32.48008555 36.32937876 -32.48008555 36.32937876 -28 34 C-26.89328444 31.63865565 -26.89328444 31.63865565 -26 29 C-25.00769089 27.41889406 -23.96530679 25.86843877 -22.8828125 24.34765625 C-22.27566406 23.48849609 -21.66851562 22.62933594 -21.04296875 21.74414062 C-20.41003906 20.85919922 -19.77710938 19.97425781 -19.125 19.0625 C-17.87704407 17.30378272 -16.62963441 15.54467766 -15.3828125 13.78515625 C-14.79459717 12.95918945 -14.20638184 12.13322266 -13.6003418 11.28222656 C-12.26220094 9.37392135 -10.97648127 7.44733467 -9.71484375 5.48828125 C-7.10961921 1.70803516 -4.61001475 0 0 0 Z " fill="#F2B969" transform="translate(256,273)"/>
<path d="M0 0 C0 17.16 0 34.32 0 52 C-14.5 56.8125 -14.5 56.8125 -19.02539062 58.31176758 C-20.22357422 58.71032959 -21.42175781 59.1088916 -22.65625 59.51953125 C-23.30137039 59.73405945 -23.94649078 59.94858765 -24.61116028 60.1696167 C-28.00524701 61.30570326 -31.36522007 62.49533843 -34.69921875 63.796875 C-38.98263595 65.3581679 -41.49948976 65.53395884 -46 65 C-47.73046875 62.97265625 -47.73046875 62.97265625 -49 61 C-43.4238737 53.72790902 -37.82032008 46.47825214 -32.1875 39.25 C-27.49667343 33.2267049 -22.82618802 27.18855502 -18.1875 21.125 C-17.65302246 20.42665039 -17.11854492 19.72830078 -16.56787109 19.00878906 C-14.109703 15.78963245 -11.66632725 12.56119649 -9.2578125 9.3046875 C-8.63289917 8.46139893 -8.63289917 8.46139893 -7.99536133 7.60107422 C-6.8952453 6.11200077 -5.80090002 4.61866868 -4.70703125 3.125 C-2.19669118 0 -2.19669118 0 0 0 Z " fill="#B36645" transform="translate(256,351)"/>
<path d="M0 0 C5 1 5 1 8 3 C8 3.66 8 4.32 8 5 C8.66 5.33 9.32 5.66 10 6 C11.08826849 7.59416628 12.12095097 9.22649159 13.125 10.875 C17.27978441 17.53996666 21.80289779 23.92615109 26.65234375 30.10546875 C30.02440677 34.48634841 30.02440677 34.48634841 29.9140625 36.80859375 C28.58480196 39.99541068 26.47984196 42.47703567 24.3125 45.125 C23.31965195 46.36275169 22.32750064 47.60106248 21.3359375 48.83984375 C20.80194336 49.5035498 20.26794922 50.16725586 19.71777344 50.85107422 C16.58716137 54.76745389 13.5146935 58.72911199 10.4375 62.6875 C9.52641479 63.85466553 9.52641479 63.85466553 8.59692383 65.04541016 C7.74263794 66.14248291 7.74263794 66.14248291 6.87109375 67.26171875 C6.36505615 67.91100342 5.85901855 68.56028809 5.33764648 69.22924805 C4.16781661 70.77784744 3.07655605 72.38516592 2 74 C1.34 74 0.68 74 0 74 C0 49.58 0 25.16 0 0 Z " fill="#DF9F5E" transform="translate(256,273)"/>
<path d="M0 0 C6.74080425 5.52650334 12.8071129 11.69449559 18.9375 17.875 C20.01343727 18.95596274 21.08960731 20.03669383 22.16601562 21.1171875 C24.78003292 23.74212641 27.39088596 26.37018628 30 29 C27.18305207 30.40847397 25.85744093 29.66383984 22.875 28.75 C15.73945352 26.02771469 12.94540853 21.26623708 9 15 C8.17672737 13.81509675 7.34571668 12.63553962 6.5078125 11.4609375 C5.88156982 10.58103149 5.88156982 10.58103149 5.24267578 9.68334961 C4.83259277 9.10721924 4.42250977 8.53108887 4 7.9375 C0 2.31598767 0 2.31598767 0 0 Z " fill="#9D5033" transform="translate(268,282)"/>
</svg>
