<?xml version="1.0" encoding="UTF-8"?>
<svg version="1.1" xmlns="http://www.w3.org/2000/svg" width="512" height="512">
<path d="M0 0 C1.32311953 -0.00967334 1.32311953 -0.00967334 2.67296875 -0.0195421 C4.12013107 -0.01489629 4.12013107 -0.01489629 5.59652901 -0.01015663 C6.62476851 -0.01468774 7.65300801 -0.01921886 8.71240628 -0.02388728 C12.16854626 -0.0365789 15.62452963 -0.03490783 19.08069038 -0.03325844 C21.55427441 -0.03924069 24.02785656 -0.04604553 26.50143623 -0.05361366 C32.52947885 -0.0694718 38.55745956 -0.07572336 44.58551727 -0.07683842 C49.48526209 -0.0777887 54.38499399 -0.08189798 59.28473473 -0.08823967 C73.17577186 -0.10585287 87.0667781 -0.11507839 100.95782648 -0.11357872 C102.08115388 -0.11345885 102.08115388 -0.11345885 103.22717476 -0.11333656 C103.97697381 -0.1132548 104.72677287 -0.11317304 105.4992931 -0.1130888 C117.6521084 -0.11227582 129.80479979 -0.1314163 141.95757924 -0.1596133 C154.43534062 -0.18833594 166.91304155 -0.20215394 179.39083683 -0.20042574 C186.39644422 -0.19976164 193.40192169 -0.20526285 200.40749931 -0.22678185 C206.99518375 -0.24688749 213.58264045 -0.24632629 220.17035484 -0.23174858 C222.58990313 -0.22965257 225.00946837 -0.2344082 227.4289875 -0.2464695 C230.72881255 -0.2618553 234.02768226 -0.25265711 237.32748604 -0.23720741 C238.28779948 -0.24749454 239.24811292 -0.25778167 240.23752677 -0.26838052 C246.00481461 -0.20859753 249.1545906 0.49468129 253.58899117 4.25726891 C255.22595406 6.16180992 255.22595406 6.16180992 256.49914742 8.19867516 C256.99559761 8.9890316 257.49204781 9.77938805 258.00354195 10.59369469 C260.72840916 15.17150517 263.40115483 19.77547696 266.02090645 24.41431236 C267.41406571 26.88099616 268.81478248 29.34336175 270.2150135 31.806036 C270.9397475 33.08077522 271.66412153 34.35571918 272.38813972 35.6308651 C275.94760567 41.8976923 279.54556613 48.14206957 283.15149117 54.38226891 C283.76564888 55.4456649 284.37980659 56.5090609 285.01257515 57.60468102 C286.25156899 59.74972464 287.49074482 61.89466316 288.73010445 64.03949547 C291.85223722 69.44397536 294.97040321 74.85074303 298.08899117 80.25726891 C299.33897238 82.42394641 300.58897238 84.59061308 301.83899117 86.75726891 C304.33899117 91.09060224 306.83899117 95.42393557 309.33899117 99.75726891 C309.9576606 100.82960777 310.57633003 101.90194664 311.21374702 103.00678062 C312.46463596 105.17503155 313.71544968 107.34332587 314.96618843 109.51166344 C318.07697452 114.90444806 321.18903354 120.29648984 324.30383492 125.68695641 C331.12266357 137.49121985 337.90957858 149.31281637 344.66232491 161.15494347 C348.76839395 168.35303312 352.89984848 175.53540888 357.08239937 182.68939781 C358.2417076 184.67287026 359.39786394 186.65818873 360.55066109 188.6454525 C363.35090324 193.46775401 366.192858 198.25401789 369.12805367 202.99555016 C369.68976265 203.92375572 370.25147163 204.85196129 370.8302021 205.8082943 C371.8772593 207.538004 372.94402062 209.25602834 374.03528023 210.95819664 C377.82796733 217.30345339 378.87316658 222.92970424 377.58899117 230.25726891 C376.14474468 234.13689777 374.15664888 237.5059437 371.96399117 241.00726891 C371.37787056 241.99187096 370.79174995 242.97647301 370.18786812 243.99091148 C368.95479665 246.06001361 367.71121948 248.12288812 366.45764351 250.17963219 C364.08086446 254.09414443 361.77903903 258.04963153 359.48010445 262.01019859 C357.74638445 264.99662943 356.00198971 267.97665387 354.25695992 270.95648766 C350.32144789 277.69715524 346.4527104 284.47533553 342.58899117 291.25726891 C337.63535563 299.95137146 332.64520613 308.62224349 327.58899117 317.25726891 C322.55709326 325.85244181 317.58509992 334.48039113 312.65149117 343.13226891 C305.62295609 355.45752086 298.54658682 367.75448958 291.44787788 380.03949547 C288.95140603 384.36094267 286.45750737 388.68387161 283.96399117 393.00702477 C282.72097084 395.16175518 281.4774865 397.31621797 280.23352242 399.47040367 C277.33043245 404.49858903 274.43111226 409.52882464 271.54623604 414.56748009 C270.53021933 416.34159436 269.51292188 418.11496809 268.49524117 419.88812828 C267.22316825 422.10542205 265.95346831 424.32407966 264.68664742 426.54437828 C262.03811893 431.15576066 259.35919304 435.74987595 256.53039742 440.25336266 C256.10573189 440.93455162 255.68106636 441.61574059 255.24353218 442.31757164 C252.44353498 445.60014177 249.68026486 447.9048205 245.38880444 448.62807274 C242.69890097 448.773204 240.03471676 448.79026865 237.34094429 448.76520348 C236.31099594 448.77144344 235.28104759 448.7776834 234.21988869 448.78411245 C230.7697731 448.80006324 227.32036196 448.7874295 223.87024117 448.77484703 C221.39636002 448.78026719 218.9224821 448.78738925 216.44861031 448.79608727 C210.42744604 448.81244077 204.40655808 448.81003687 198.38540459 448.7984367 C193.49141745 448.78939887 188.59748621 448.78817988 183.70349312 448.79253197 C183.00664736 448.7931449 182.30980161 448.79375783 181.59183931 448.79438934 C180.17615889 448.79566825 178.76047848 448.79696511 177.34479809 448.7982797 C164.07356836 448.80968271 150.8024492 448.79657622 137.5312376 448.77507824 C126.14678759 448.75720747 114.76250073 448.76031166 103.37805367 448.77875328 C90.1539434 448.80016497 76.92993001 448.8085841 63.70580482 448.79630423 C62.2953663 448.79503004 60.88492776 448.79377256 59.47448921 448.79253197 C58.43357683 448.79160631 58.43357683 448.79160631 57.37163591 448.79066196 C52.48418443 448.78720995 47.59679445 448.79303418 42.70935249 448.80245018 C36.12982397 448.8148476 29.55055592 448.80600641 22.97104073 448.78287315 C20.55472514 448.77757912 18.13838364 448.77911164 15.72207832 448.78792381 C12.42671315 448.79883485 9.13233981 448.78516813 5.83703804 448.76520348 C4.39861423 448.77858781 4.39861423 448.77858781 2.93113136 448.79224253 C-2.83019659 448.72441842 -5.98190841 448.01712673 -10.41100883 444.25726891 C-12.09850883 442.2692318 -12.09850883 442.2692318 -13.41100883 440.16742516 C-13.9072979 439.37739098 -14.40358696 438.5873568 -14.91491508 437.77338219 C-17.48457457 433.45175839 -19.97052325 429.09053968 -22.41100883 424.69476891 C-26.94042125 416.60788457 -31.53530566 408.56564507 -36.22350883 400.56976891 C-41.31907655 391.87104426 -46.35525801 383.14003567 -51.34850883 374.38226891 C-58.37682991 362.05689561 -65.45341403 349.76004676 -72.55212212 337.47504234 C-75.67425488 332.07056245 -78.79242088 326.66379478 -81.91100883 321.25726891 C-83.16099005 319.0905914 -84.41099005 316.92392473 -85.66100883 314.75726891 C-93.16100883 301.75726891 -100.66100883 288.75726891 -108.16100883 275.75726891 C-108.78096733 274.68364098 -109.40092583 273.61001305 -110.03967094 272.50385094 C-111.28085219 270.35052696 -112.51868326 268.19526824 -113.75304985 266.03803062 C-116.64424844 260.99455893 -119.56301621 255.97611712 -122.60848808 251.02441978 C-123.67991358 249.27883042 -124.74032578 247.52700755 -125.79772758 245.77289391 C-127.12399742 243.58012778 -128.47043595 241.39938017 -129.84069633 239.23383141 C-134.03650517 232.23179344 -136.18462271 226.41862838 -134.41100883 218.25726891 C-132.51081836 213.59694248 -129.99897815 209.39377852 -127.34850883 205.13226891 C-126.61479932 203.9087691 -125.88380922 202.68363486 -125.1553936 201.45697594 C-123.65729992 198.94039477 -122.14679508 196.43197818 -120.62585258 193.92914391 C-117.26816332 188.38735495 -114.06786135 182.75510183 -110.84850883 177.13226891 C-109.60861897 174.9832567 -108.36773306 172.83481888 -107.12585258 170.68695641 C-103.3844923 164.21216874 -99.64737798 157.73493776 -95.91100883 151.25726891 C-92.17463969 144.77960006 -88.43752537 138.30236907 -84.69616508 131.82758141 C-77.87598246 120.02097407 -71.08777623 108.19699891 -64.33364677 96.35254478 C-59.17765438 87.31397463 -53.9578021 78.31449752 -48.69982719 69.33490562 C-44.56481747 62.2625244 -40.48494829 55.1598364 -36.42849541 48.04224205 C-33.42759359 42.77777047 -30.41977605 37.51724798 -27.41100883 32.25726891 C-27.08215691 31.68206505 -26.75330498 31.10686119 -26.41448784 30.51422691 C-24.19358349 26.63143156 -21.96101399 22.75551689 -19.72350883 18.88226891 C-19.15954399 17.89613609 -18.59557915 16.91000328 -18.01452446 15.89398766 C-8.80636148 0.01630881 -8.80636148 0.01630881 0 0 Z " fill="#BA98FF" transform="translate(134.41100883483887,31.74273109436035)"/>
<path d="M0 0 C0.87809759 -0.00445784 1.75619518 -0.00891569 2.66090178 -0.01350862 C4.11680264 -0.01323207 4.11680264 -0.01323207 5.60211563 -0.01294994 C7.14191161 -0.01846498 7.14191161 -0.01846498 8.71281457 -0.02409142 C12.17512643 -0.03516219 15.63740832 -0.03897783 19.09973526 -0.04278088 C21.57302319 -0.04904293 24.04631016 -0.0556895 26.5195961 -0.0626936 C33.95823169 -0.08194624 41.39685932 -0.09252553 48.83551252 -0.10142139 C52.33736788 -0.10580302 55.83922173 -0.11117017 59.3410759 -0.11641026 C70.98025956 -0.13342375 82.61944228 -0.14791815 94.25863647 -0.155159 C97.27988817 -0.15706893 100.30113985 -0.15898926 103.32239151 -0.16094494 C104.07332157 -0.16142868 104.82425162 -0.16191242 105.59793714 -0.16241082 C117.76380646 -0.17071195 129.92957749 -0.19604969 142.09540388 -0.22852562 C154.58213518 -0.26158676 167.06881651 -0.27960692 179.55559182 -0.28280324 C186.56794468 -0.28496927 193.58015421 -0.2937313 200.59246445 -0.31926441 C207.18831789 -0.34322543 213.78395955 -0.34680302 220.37986374 -0.33650303 C222.8026401 -0.33600607 225.2254289 -0.34237332 227.64816666 -0.35605907 C230.9524645 -0.37368227 234.25582588 -0.36671829 237.56012344 -0.35352612 C238.52180113 -0.36449536 239.48347881 -0.37546461 240.47429824 -0.38676625 C246.24621106 -0.33102447 249.39791006 0.36723203 253.83508682 4.13422108 C255.47204971 6.03876209 255.47204971 6.03876209 256.74524307 8.07562733 C257.24169327 8.86598377 257.73814346 9.65634022 258.2496376 10.47064686 C260.97450482 15.04845734 263.64725049 19.65242913 266.26700211 24.29126453 C267.66016137 26.75794833 269.06087813 29.22031392 270.46110916 31.68298817 C271.18584316 32.9577274 271.91021718 34.23267135 272.63423538 35.50781727 C276.19370133 41.77464447 279.79166179 48.01902174 283.39758682 54.25922108 C284.01174454 55.32261707 284.62590225 56.38601307 285.25867081 57.48163319 C286.49766465 59.62667682 287.73684048 61.77161533 288.9762001 63.91644764 C292.09833287 69.32092753 295.21649886 74.7276952 298.33508682 80.13422108 C299.58506804 82.30089858 300.83506803 84.46756525 302.08508682 86.63422108 C304.58508682 90.96755441 307.08508682 95.30088774 309.58508682 99.63422108 C310.20375626 100.70655994 310.82242569 101.77889881 311.45984268 102.8837328 C312.71073162 105.05198372 313.96154534 107.22027804 315.21228409 109.38861561 C318.32307017 114.78140023 321.4351292 120.17344201 324.54993057 125.56390858 C331.36875923 137.36817203 338.15567424 149.18976854 344.90842056 161.03189564 C349.01448961 168.2299853 353.14594414 175.41236105 357.32849503 182.56634998 C358.48780325 184.54982243 359.6439596 186.5351409 360.79675674 188.52240467 C363.5969989 193.34470618 366.43895365 198.13097006 369.37414932 202.87250233 C369.93585831 203.80070789 370.49756729 204.72891346 371.07629776 205.68524647 C372.12335496 207.41495617 373.19011628 209.13298051 374.28137589 210.83514881 C378.07406299 217.18040557 379.11926224 222.80665641 377.83508682 230.13422108 C376.39084034 234.01384994 374.40274454 237.38289587 372.21008682 240.88422108 C371.62396622 241.86882313 371.03784561 242.85342518 370.43396378 243.86786366 C369.2008923 245.93696578 367.95731513 247.9998403 366.70373917 250.05658436 C364.32696012 253.9710966 362.02513469 257.9265837 359.7262001 261.88715076 C357.99248011 264.8735816 356.24808537 267.85360604 354.50305557 270.83343983 C350.56754355 277.57410741 346.69880605 284.3522877 342.83508682 291.13422108 C337.88145129 299.82832364 332.89130179 308.49919566 327.83508682 317.13422108 C322.80318892 325.72939398 317.83119558 334.3573433 312.89758682 343.00922108 C305.86905175 355.33447303 298.79268248 367.63144175 291.69397354 379.91644764 C289.19750169 384.23789484 286.70360303 388.56082378 284.21008682 392.88397694 C282.9670665 395.03870735 281.72358216 397.19317014 280.47961807 399.34735584 C277.57652811 404.3755412 274.67720792 409.40577681 271.7923317 414.44443226 C270.77631498 416.21854653 269.75901754 417.99192026 268.74133682 419.76508045 C267.4692639 421.98237422 266.19956397 424.20103183 264.93274307 426.42133045 C262.25466569 431.08416074 259.53889788 435.71848115 256.65149307 440.25531483 C255.97969009 441.31190296 255.97969009 441.31190296 255.29431534 442.38983631 C253.65262202 444.35234237 252.17908769 445.16066537 249.83508682 446.13422108 C244.42947912 437.46832841 239.24325152 428.71046556 234.21008682 419.82172108 C232.80418363 417.3481247 231.39611117 414.87576789 229.98743057 412.40375233 C229.63675018 411.78814442 229.28606979 411.17253651 228.92476273 410.53827381 C225.02589598 403.70194195 221.0545112 396.90839971 217.07947159 390.11615467 C211.92164936 381.29801393 206.81519184 372.45082087 201.71960831 363.59662342 C201.12478653 362.56360096 200.52996475 361.5305785 199.91711807 360.46625233 C199.393517 359.5559325 198.86991592 358.64561268 198.33044815 357.70770741 C196.87041536 355.10267511 196.87041536 355.10267511 195.07995987 352.67596912 C193.44287257 349.33340864 193.82760745 347.67569872 194.83508682 344.13422108 C195.99573135 341.66254139 195.99573135 341.66254139 197.46789932 339.21234608 C198.2943898 337.81846668 198.2943898 337.81846668 199.13757706 336.39642811 C199.73900528 335.40239979 200.3404335 334.40837147 200.96008682 333.38422108 C202.24601951 331.22061986 203.53114892 329.05654106 204.81555557 326.89203358 C205.48119522 325.77602772 206.14683487 324.66002186 206.83264542 323.51019764 C210.02880775 318.12169085 213.15023559 312.69072122 216.27258682 307.25922108 C217.53283081 305.07162159 218.79324837 302.88412209 220.05383682 300.69672108 C220.67903214 299.61133045 221.30422745 298.52593983 221.94836807 297.40765858 C223.81477062 294.16946948 225.68382445 290.9328267 227.55383682 287.69672108 C232.72705619 278.74226218 237.89858601 269.78715517 243.01868057 260.80218983 C243.5413929 259.88549267 243.5413929 259.88549267 244.07466507 258.95027637 C245.79863364 255.92628725 247.51993389 252.90083161 249.23669815 249.87274647 C252.04771057 244.93112755 254.86739296 240.01365681 257.91321182 235.21234608 C258.57184219 234.1676012 258.57184219 234.1676012 259.24377823 233.10175037 C260.35367367 231.36338945 261.48768442 229.64048572 262.62414932 227.91937733 C264.15614596 225.23376081 264.15614596 225.23376081 263.0699501 222.75238514 C261.89344771 220.25795816 260.64874257 217.85710184 259.28821182 215.45843983 C258.7805629 214.56101063 258.27291397 213.66358143 257.74988174 212.73895741 C257.20049942 211.77626942 256.6511171 210.81358143 256.08508682 209.82172108 C255.21944107 208.29744495 255.21944107 208.29744495 254.33630753 206.74237537 C249.70983157 198.61717769 245.00526539 190.53857948 240.27942276 182.470891 C235.74522698 174.72175349 231.27943078 166.9350485 226.83508682 159.13422108 C221.77486749 150.25418146 216.67970425 141.39599526 211.52258682 132.57172108 C210.67156387 131.11451649 210.67156387 131.11451649 209.80334854 129.62787342 C207.59336264 125.84582908 205.381834 122.0647289 203.16272354 118.28802967 C201.59161361 115.61382979 200.02550519 112.93675529 198.46008682 110.25922108 C197.75372086 109.06317249 197.75372086 109.06317249 197.03308487 107.84296131 C193.83508682 102.36093956 193.83508682 102.36093956 193.83508682 100.13422108 C146.31508682 100.13422108 98.79508682 100.13422108 49.83508682 100.13422108 C43.40008682 88.74922108 43.40008682 88.74922108 36.83508682 77.13422108 C34.55457671 73.18898541 32.27020267 69.24921532 29.96008682 65.32172108 C24.42437888 55.87035983 18.93520627 46.39322449 13.47400284 36.89862537 C10.26604963 31.32709432 7.03939007 25.7675064 3.77649307 20.22797108 C3.12551651 19.12066639 2.47453995 18.0133617 1.80383682 16.87250233 C0.55624334 14.75312734 -0.69492202 12.63584994 -1.95006943 10.52093983 C-2.5043663 9.57863514 -3.05866318 8.63633045 -3.62975693 7.66547108 C-4.3663353 6.4212035 -4.3663353 6.4212035 -5.11779404 5.1517992 C-6.16491318 3.13422108 -6.16491318 3.13422108 -6.16491318 1.13422108 C-3.86155404 -0.01745849 -2.56222398 0.00601798 0 0 Z " fill="#9933FE" transform="translate(134.16491317749023,31.865778923034668)"/>
<path d="M0 0 C23.76 0 47.52 0 72 0 C76.29 7.59 80.58 15.18 85 23 C87.25971395 26.90356804 89.52366736 30.80141911 91.8125 34.6875 C96.90967792 43.3852776 101.94397033 52.11741162 106.9375 60.875 C112.17140343 70.05098592 117.41539244 79.22087802 122.6875 88.375 C123.59894775 89.96453491 123.59894775 89.96453491 124.52880859 91.58618164 C127.57827496 96.88578332 130.68188335 102.13972103 133.8984375 107.33984375 C134.51501221 108.3467627 135.13158691 109.35368164 135.7668457 110.39111328 C136.93468056 112.2910877 138.11739734 114.18202189 139.31713867 116.06201172 C139.83252197 116.90393066 140.34790527 117.74584961 140.87890625 118.61328125 C141.3385376 119.34329346 141.79816895 120.07330566 142.27172852 120.82543945 C143 123 143 123 142.33056641 125.41796875 C140.88804746 128.21724956 139.40212415 130.96898297 137.83203125 133.69921875 C137.19386475 134.81248535 136.55569824 135.92575195 135.89819336 137.07275391 C135.20304466 138.27771682 134.5078113 139.4826309 133.8125 140.6875 C133.09031382 141.94434799 132.3683941 143.20134912 131.64672852 144.45849609 C129.79256933 147.68637148 127.93436047 150.91189349 126.07458496 154.13653564 C124.42607817 156.99525204 122.77968312 159.85518454 121.1328125 162.71484375 C118.04520824 168.07278109 114.95279067 173.42792501 111.85888672 178.78222656 C108.73675394 184.18670647 105.61861096 189.59348737 102.5 195 C101.260426 197.14844289 100.02084265 199.29688038 98.78125 201.4453125 C96.51457181 205.3741425 94.24842761 209.30327938 91.98303223 213.23284912 C90.97380896 214.98341241 89.96446164 216.73390411 88.95507812 218.484375 C87.6983234 220.66392165 86.44179414 222.84359832 85.18554688 225.0234375 C84.60869141 226.02375 84.03183594 227.0240625 83.4375 228.0546875 C82.87933594 229.03147461 82.32117188 230.00826172 81.74609375 231.01464844 C80.5250315 233.10233708 79.26358928 235.1666931 77.97265625 237.21191406 C77.32167969 238.25831055 76.67070312 239.30470703 76 240.3828125 C75.401875 241.31754395 74.80375 242.25227539 74.1875 243.21533203 C72.70301098 246.69643436 72.96068322 248.3936601 74 252 C75.12875184 254.51280661 75.12875184 254.51280661 76.6328125 256.921875 C77.18380615 257.85112793 77.7347998 258.78038086 78.30249023 259.73779297 C79.20463257 261.22883545 79.20463257 261.22883545 80.125 262.75 C81.41093269 264.91360121 82.6960621 267.07768002 83.98046875 269.2421875 C84.6461084 270.35819336 85.31174805 271.47419922 85.99755859 272.62402344 C89.19372192 278.0125319 92.31504796 283.44355625 95.4375 288.875 C96.68997394 291.04825214 97.94257899 293.22142872 99.1953125 295.39453125 C101.11718508 298.73077109 103.03870315 302.06721467 104.95996094 305.40380859 C106.9102045 308.79038672 108.86126012 312.17649584 110.8125 315.5625 C111.74352539 317.17970947 111.74352539 317.17970947 112.69335938 318.82958984 C115.4909676 323.68211147 118.30110853 328.52553671 121.1640625 333.33984375 C121.63739014 334.13640381 122.11071777 334.93296387 122.59838867 335.75366211 C123.4642552 337.2061394 124.33395536 338.65634118 125.20825195 340.10375977 C128 344.78197057 128 344.78197057 128 347 C89.83660858 366.08169571 42.66796873 348 0 348 C0 233.16 0 118.32 0 0 Z " fill="#B265FE" transform="translate(256,132)"/>
<path d="M0 0 C1.2485686 0.00138269 1.2485686 0.00138269 2.5223608 0.00279331 C3.47453487 0.00141865 4.42670895 0.00004398 5.40773678 -0.00137234 C6.46077496 0.00222294 7.51381313 0.00581821 8.59876156 0.00952244 C10.25221081 0.0093034 10.25221081 0.0093034 11.93906307 0.00907993 C15.60226021 0.00977961 19.26540723 0.01757459 22.92859554 0.02539158 C25.46065398 0.02725556 27.99271277 0.02867956 30.52477169 0.0296793 C36.52067179 0.03311437 42.51655019 0.04100514 48.51244158 0.05102879 C55.33699987 0.06219105 62.16155901 0.06770066 68.98612416 0.07272422 C83.02815593 0.08318779 97.07017162 0.10078653 111.11218929 0.12304783 C111.20587833 4.52087429 110.994769 7.07386564 108.76062679 10.89648533 C108.24653255 11.79069187 107.73243832 12.68489841 107.20276546 13.60620213 C106.63662533 14.56051121 106.07048519 15.51482029 105.48718929 16.49804783 C104.60800838 18.01555637 104.60800838 18.01555637 103.71106625 19.56372166 C101.85707219 22.757519 99.98561711 25.94061924 98.11218929 29.12304783 C96.9717999 31.07685283 95.83244968 33.03126479 94.69422054 34.98632908 C92.98454041 37.92137049 91.27337696 40.85548302 89.55701351 43.78662205 C85.02161178 51.53506738 80.55642139 59.32214819 76.11218929 67.12304783 C71.15855376 75.81715039 66.16840426 84.48802242 61.11218929 93.12304783 C56.08029139 101.71822073 51.10829805 110.34617005 46.17468929 118.99804783 C39.14615422 131.32329978 32.06978495 143.6202685 24.97107601 155.90527439 C22.47460416 160.22672159 19.9807055 164.54965053 17.48718929 168.87280369 C16.24416897 171.0275341 15.00068463 173.1819969 13.75672054 175.33618259 C10.85363058 180.36436796 7.95431039 185.39460356 5.06943417 190.43325901 C4.05341745 192.20737328 3.03612001 193.98074701 2.01843929 195.7539072 C0.74636637 197.97120097 -0.52333356 200.18985858 -1.79015446 202.4101572 C-4.46823184 207.07298749 -7.18399965 211.70730791 -10.07140446 216.24414158 C-10.51927311 216.94853367 -10.96714176 217.65292576 -11.42858219 218.37866306 C-13.07027551 220.34116912 -14.54380984 221.14949212 -16.88781071 222.12304783 C-22.29341841 213.45715516 -27.47964601 204.69929231 -32.51281071 195.81054783 C-33.9187139 193.33695145 -35.32678636 190.86459464 -36.73546696 188.39257908 C-37.26148754 187.46916721 -37.26148754 187.46916721 -37.7981348 186.52710056 C-41.69700155 179.6907687 -45.66838633 172.89722646 -49.64342594 166.10498142 C-54.80124817 157.28684068 -59.90770569 148.43964762 -65.00328922 139.58545017 C-65.89552189 138.03591648 -65.89552189 138.03591648 -66.80577946 136.45507908 C-67.32938053 135.54475925 -67.85298161 134.63443943 -68.39244938 133.69653416 C-69.85248217 131.09150186 -69.85248217 131.09150186 -71.64293766 128.66479588 C-73.28002496 125.32223539 -72.89529008 123.66452547 -71.88781071 120.12304783 C-70.72716618 117.65136814 -70.72716618 117.65136814 -69.25499821 115.20117283 C-68.70400455 114.2719199 -68.1530109 113.34266697 -67.58532047 112.38525486 C-66.98389225 111.39122654 -66.38246403 110.39719822 -65.76281071 109.37304783 C-64.47687802 107.20944661 -63.19174861 105.04536781 -61.90734196 102.88086033 C-61.24170231 101.76485447 -60.57606266 100.64884861 -59.89025211 99.49902439 C-56.69408978 94.1105176 -53.57266194 88.67954797 -50.45031071 83.24804783 C-49.19006672 81.06044834 -47.92964916 78.87294884 -46.66906071 76.68554783 C-46.04386539 75.6001572 -45.41867008 74.51476658 -44.77452946 73.39648533 C-42.90812691 70.15829623 -41.03907308 66.92165345 -39.16906071 63.68554783 C-33.99584262 54.73109114 -28.82401696 45.77614832 -23.70421696 36.79101658 C-23.35587803 36.17970387 -23.0075391 35.56839115 -22.64864445 34.93855381 C-22.30153416 34.32936604 -21.95442387 33.72017826 -21.59679508 33.09253025 C-2.84621035 0.18551648 -2.84621035 0.18551648 0 0 Z " fill="#7A29CC" transform="translate(400.8878107070923,255.87695217132568)"/>
<path d="M0 0 C14.62941087 -0.21040043 29.2586211 -0.36902512 43.88923836 -0.46630955 C50.68285878 -0.51268522 57.47553831 -0.57588739 64.26855469 -0.67895508 C70.82372375 -0.77836645 77.3782824 -0.83055276 83.93416977 -0.85389519 C86.43576321 -0.87053043 88.93730286 -0.90301639 91.43848038 -0.95157051 C94.94209762 -1.01688199 98.44167316 -1.02590362 101.94580078 -1.02172852 C103.49839348 -1.07026474 103.49839348 -1.07026474 105.08235168 -1.11978149 C111.97758684 -1.03083104 111.97758684 -1.03083104 114.953022 1.96910191 C116.49715448 4.25495011 117.78134096 6.52801768 119 9 C119.57556641 9.96881104 120.15113281 10.93762207 120.74414062 11.93579102 C121.21013672 12.78326904 121.67613281 13.63074707 122.15625 14.50390625 C122.96630493 15.96654907 122.96630493 15.96654907 123.79272461 17.45874023 C124.35612549 18.48298096 124.91952637 19.50722168 125.5 20.5625 C130.22405984 29.07435918 135.01501639 37.53876112 139.9375 45.9375 C144.79924691 54.23387322 149.63623579 62.54344951 154.4375 70.875 C155.05423584 71.94500244 155.67097168 73.01500488 156.30639648 74.11743164 C157.56235147 76.29693578 158.81812821 78.47654264 160.07373047 80.65625 C162.73034016 85.26777425 165.38829557 89.8785214 168.04711914 94.48876953 C169.30312898 96.66664882 170.55884939 98.84469506 171.81420898 101.02294922 C172.39114502 102.02342285 172.96808105 103.02389648 173.5625 104.0546875 C174.12066406 105.03147461 174.67882812 106.00826172 175.25390625 107.01464844 C176.4749685 109.10233708 177.73641072 111.1666931 179.02734375 113.21191406 C179.67832031 114.25831055 180.32929688 115.30470703 181 116.3828125 C181.598125 117.31754395 182.19625 118.25227539 182.8125 119.21533203 C184.29698902 122.69643436 184.03931678 124.3936601 183 128 C181.83935547 130.47167969 181.83935547 130.47167969 180.3671875 132.921875 C179.54069702 134.31575439 179.54069702 134.31575439 178.69750977 135.73779297 C178.09608154 136.73182129 177.49465332 137.72584961 176.875 138.75 C175.58906731 140.91360121 174.3039379 143.07768002 173.01953125 145.2421875 C172.3538916 146.35819336 171.68825195 147.47419922 171.00244141 148.62402344 C167.80627808 154.0125319 164.68495204 159.44355625 161.5625 164.875 C160.31002606 167.04825214 159.05742101 169.22142872 157.8046875 171.39453125 C155.88281492 174.73077109 153.96129685 178.06721467 152.04003906 181.40380859 C151.3900293 182.53254395 150.74001953 183.6612793 150.0703125 184.82421875 C149.42545898 185.9440918 148.78060547 187.06396484 148.11621094 188.21777344 C146.23528119 191.47963895 144.34837086 194.73798843 142.4609375 197.99609375 C140.26851392 201.78426867 138.10643254 205.58649176 135.9765625 209.41015625 C135.52128174 210.21573975 135.06600098 211.02132324 134.59692383 211.85131836 C133.76691276 213.32060045 132.94818787 214.79634153 132.14331055 216.27954102 C131.05078125 218.1953125 131.05078125 218.1953125 129 221 C127.68 221 126.36 221 125 221 C121.92296015 217.76921876 119.78397318 214.10288253 117.6015625 210.23046875 C116.64636719 208.5453418 116.64636719 208.5453418 115.671875 206.82617188 C115.33865234 206.23376709 115.00542969 205.6413623 114.66210938 205.03100586 C112.88002139 201.86326896 111.08349256 198.70372498 109.2890625 195.54296875 C108.92580872 194.90221405 108.56255493 194.26145935 108.18829346 193.60128784 C104.8421125 187.7048458 101.4295011 181.84834275 98 176 C92.96750288 167.40518153 87.99610527 158.77687166 83.0625 150.125 C76.03396493 137.79974804 68.95759566 125.50277933 61.85888672 113.21777344 C58.73675395 107.81329355 55.61858796 102.40652588 52.5 97 C51.25001878 94.8333225 50.00001879 92.66665583 48.75 90.5 C41.25 77.5 33.75 64.5 26.25 51.5 C25.6300415 50.42588867 25.01008301 49.35177734 24.37133789 48.24511719 C23.13185078 46.09570262 21.89403482 43.94532343 20.65795898 41.79394531 C17.73695849 36.71468214 14.79992103 31.64694203 11.80252075 26.61242676 C10.38860483 24.2352419 8.98423337 21.8524856 7.58056641 19.46923828 C6.58641086 17.79037896 5.57851868 16.11967801 4.5703125 14.44921875 C3.97089844 13.42957031 3.37148437 12.40992188 2.75390625 11.359375 C2.22095947 10.46702148 1.6880127 9.57466797 1.13891602 8.65527344 C-0.18080139 5.57847891 -0.08325024 3.31451937 0 0 Z " fill="#9933FF" transform="translate(0,256)"/>
<path d="M0 0 C3.80483177 1.26827726 4.10984818 2.43121169 6.046875 5.87109375 C6.93149414 7.42473633 6.93149414 7.42473633 7.83398438 9.00976562 C8.46626953 10.14091797 9.09855469 11.27207031 9.75 12.4375 C10.41895566 13.61838641 11.0888934 14.79871698 11.75976562 15.97851562 C13.15421893 18.43258956 14.54439313 20.88901404 15.93164062 23.34716797 C19.08167121 28.92079426 22.29372261 34.45861033 25.5 40 C26.74381019 42.15476288 27.98729822 44.30971176 29.23046875 46.46484375 C30.15738525 48.07141846 30.15738525 48.07141846 31.10302734 49.71044922 C33.04519939 53.07838052 34.98566627 56.4472896 36.92578125 59.81640625 C37.89451172 61.49718262 37.89451172 61.49718262 38.8828125 63.21191406 C40.15435595 65.41974078 41.42393606 67.62869957 42.69140625 69.83886719 C45.46591134 74.66609106 48.2641529 79.46758704 51.19921875 84.19921875 C51.91597778 85.36698853 51.91597778 85.36698853 52.6472168 86.55834961 C53.51568419 87.96535768 54.39760732 89.36419809 55.29614258 90.75219727 C57.08037895 93.65544562 58.04428023 95.45918114 57.76220703 98.90429688 C56.99629473 102.01504896 56.01065107 104.18658472 54.3671875 106.921875 C53.81619385 107.85112793 53.2652002 108.78038086 52.69750977 109.73779297 C52.09608154 110.73182129 51.49465332 111.72584961 50.875 112.75 C49.58906731 114.91360121 48.3039379 117.07768002 47.01953125 119.2421875 C46.3538916 120.35819336 45.68825195 121.47419922 45.00244141 122.62402344 C41.80627861 128.01253101 38.68489786 133.44352595 35.5625 138.875 C34.30353904 141.05998436 33.04442362 143.24487972 31.78515625 145.4296875 C31.16012207 146.51475586 30.53508789 147.59982422 29.89111328 148.71777344 C26.1426677 155.2235961 22.38905819 161.72644083 18.63623047 168.22973633 C15.44671205 173.75737281 12.25892179 179.28599381 9.07421875 184.81640625 C3.45024164 194.58011894 -2.17477593 204.34303524 -7.875 214.0625 C-8.28596924 214.76511963 -8.69693848 215.46773926 -9.12036133 216.19165039 C-11.87952283 220.87952283 -11.87952283 220.87952283 -13 222 C-14.4674896 222.09565123 -15.93956884 222.12188309 -17.41017151 222.12025452 C-18.36234558 222.12162918 -19.31451965 222.12300385 -20.29554749 222.12442017 C-21.34858566 222.12082489 -22.40162384 222.11722961 -23.48657227 222.11352539 C-24.58887177 222.11367142 -25.69117126 222.11381744 -26.82687378 222.1139679 C-30.49007092 222.11326821 -34.15321794 222.10547324 -37.81640625 222.09765625 C-40.34846468 222.09579227 -42.88052348 222.09436827 -45.4125824 222.09336853 C-51.40848249 222.08993346 -57.40436089 222.08204269 -63.40025228 222.07201904 C-70.22481058 222.06085677 -77.04936972 222.05534717 -83.87393486 222.05032361 C-97.91596664 222.03986004 -111.95798233 222.0222613 -126 222 C-126.13449695 217.06462109 -125.5501504 214.48712295 -123.02734375 210.203125 C-122.06042603 208.53805908 -122.06042603 208.53805908 -121.07397461 206.83935547 C-120.36198776 205.64280167 -119.64982488 204.4463526 -118.9375 203.25 C-118.20518193 201.9983064 -117.4741628 200.74585201 -116.74438477 199.49267578 C-115.24075309 196.91426404 -113.7305454 194.33988894 -112.21484375 191.76855469 C-109.5358377 187.21883334 -106.90323742 182.64275068 -104.27172852 178.06542969 C-102.42371649 174.85102517 -100.57012539 171.63990094 -98.71484375 168.4296875 C-94.97348347 161.95489983 -91.23636915 155.47766885 -87.5 149 C-83.76363085 142.52233115 -80.02651653 136.04510017 -76.28515625 129.5703125 C-69.46497363 117.76370516 -62.6767674 105.93973 -55.92263794 94.09527588 C-50.76664555 85.05670572 -45.54679327 76.05722862 -40.28881836 67.07763672 C-36.15380863 60.00525549 -32.07393945 52.9025675 -28.01748657 45.78497314 C-25.01658476 40.52050156 -22.00876721 35.25997907 -19 30 C-18.67114807 29.42479614 -18.34229614 28.84959229 -18.003479 28.25695801 C-15.78257465 24.37416266 -13.55000516 20.49824799 -11.3125 16.625 C-10.46655273 15.14580078 -10.46655273 15.14580078 -9.60351562 13.63671875 C-6.73768034 8.69514545 -3.8275036 4.24646967 0 0 Z " fill="#B265FF" transform="translate(126,34)"/>
<path d="M0 0 C1.76416823 2.64625235 3.36393459 5.31116526 4.94921875 8.06640625 C5.83867187 9.61038086 5.83867187 9.61038086 6.74609375 11.18554688 C7.38675781 12.29994141 8.02742188 13.41433594 8.6875 14.5625 C9.36187172 15.73378583 10.03635271 16.90500875 10.7109375 18.07617188 C12.1128917 20.51033548 13.51437427 22.9447697 14.91552734 25.37939453 C18.10595089 30.9221343 21.3032601 36.4609016 24.5 42 C28.31103699 48.60406409 32.12080188 55.20884975 35.92578125 61.81640625 C37.22131657 64.06512583 38.51688896 66.31382405 39.8125 68.5625 C40.43326416 69.64080078 41.05402832 70.71910156 41.69360352 71.83007812 C44.4911637 76.68241733 47.30120151 81.52569306 50.1640625 86.33984375 C50.63739014 87.13640381 51.11071777 87.93296387 51.59838867 88.75366211 C52.4642552 90.2061394 53.33395536 91.65634118 54.20825195 93.10375977 C57 97.78197057 57 97.78197057 57 100 C54.48824836 101.25587582 52.787631 101.12304933 49.9760437 101.12025452 C48.91311096 101.12162918 47.85017822 101.12300385 46.7550354 101.12442017 C45.5840329 101.12082489 44.4130304 101.11722961 43.20654297 101.11352539 C41.97730103 101.11367142 40.74805908 101.11381744 39.48156738 101.1139679 C36.10573658 101.11338954 32.72996652 101.10836537 29.35414648 101.10139394 C25.82806927 101.09515358 22.3019913 101.09455606 18.77590942 101.09336853 C12.09651676 101.09025723 5.41714041 101.08204655 -1.26224506 101.07201904 C-9.61102483 101.05975671 -17.95980723 101.05427384 -26.30859375 101.04882812 C-41.20574189 101.03908103 -56.1028544 101.01905006 -71 101 C-71 68 -71 35 -71 1 C-53.489375 0.6596875 -53.489375 0.6596875 -35.625 0.3125 C-30.09226318 0.19322144 -30.09226318 0.19322144 -24.44775391 0.0715332 C-19.94995117 -0.00549316 -19.94995117 -0.00549316 -17.84555054 -0.03767395 C-16.37303184 -0.06306952 -14.90060939 -0.09447028 -13.42831421 -0.13056946 C-11.20041263 -0.18403687 -8.97295044 -0.21854979 -6.74462891 -0.2487793 C-5.48776276 -0.27320602 -4.23089661 -0.29763275 -2.9359436 -0.32279968 C-1.48265152 -0.16301384 -1.48265152 -0.16301384 0 0 Z " fill="#9832FE" transform="translate(327,379)"/>
<path d="M0 0 C23.76 0.33 47.52 0.66 72 1 C72 34 72 67 72 101 C40.59201131 101.04016367 40.59201131 101.04016367 25.12279701 101.05025387 C16.74315451 101.05580389 8.36352193 101.06285943 -0.01611328 101.07543945 C-6.64863248 101.08539187 -13.28114421 101.09185476 -19.91367066 101.09408849 C-23.42707437 101.09539465 -26.94045673 101.09847452 -30.45385361 101.10573006 C-34.37142087 101.11375498 -38.28896704 101.11399078 -42.20654297 101.11352539 C-43.37754547 101.11712067 -44.54854797 101.12071594 -45.7550354 101.12442017 C-47.34943451 101.12235817 -47.34943451 101.12235817 -48.9760437 101.12025452 C-50.36702931 101.12163721 -50.36702931 101.12163721 -51.78611565 101.12304783 C-54 101 -54 101 -56 100 C-54.34587599 95.46875604 -52.10298274 91.38135943 -49.75 87.1875 C-49.31453857 86.40761719 -48.87907715 85.62773437 -48.43041992 84.82421875 C-43.62896489 76.26899001 -38.66509496 67.80878551 -33.70703125 59.34375 C-29.31366496 51.83817372 -24.97522362 44.30122421 -20.63745117 36.76342773 C-17.43682838 31.20687828 -14.22093217 25.66004592 -10.9765625 20.12890625 C-10.33009766 19.02611328 -9.68363281 17.92332031 -9.01757812 16.78710938 C-7.78175798 14.68149631 -6.54358028 12.57726466 -5.30273438 10.47460938 C-4.75166016 9.53552734 -4.20058594 8.59644531 -3.6328125 7.62890625 C-3.14699707 6.80463135 -2.66118164 5.98035645 -2.16064453 5.13110352 C-0.87581645 2.92083565 -0.87581645 2.92083565 0 0 Z " fill="#B265FF" transform="translate(184,379)"/>
<path d="M0 0 C1.06293274 -0.00137466 2.12586548 -0.00274933 3.2210083 -0.00416565 C4.97751205 0.00122726 4.97751205 0.00122726 6.76950073 0.00672913 C7.99874268 0.0065831 9.22798462 0.00643707 10.49447632 0.00628662 C13.87030712 0.00686498 17.24607718 0.01188915 20.62189722 0.01886058 C24.14797443 0.02510093 27.6740524 0.02569846 31.20013428 0.02688599 C37.87952694 0.02999728 44.55890329 0.03820797 51.23828876 0.04823548 C59.58706853 0.0604978 67.93585093 0.06598068 76.28463745 0.07142639 C91.18178559 0.08117349 106.0788981 0.10120446 120.9760437 0.12025452 C120.9760437 33.12025452 120.9760437 66.12025452 120.9760437 100.12025452 C97.2160437 100.12025452 73.4560437 100.12025452 48.9760437 100.12025452 C42.5410437 88.73525452 42.5410437 88.73525452 35.9760437 77.12025452 C33.69553359 73.17501885 31.41115954 69.23524876 29.1010437 65.30775452 C23.56533576 55.85639327 18.07616315 46.37925793 12.61495972 36.88465881 C9.40700651 31.31312776 6.18034695 25.75353984 2.91744995 20.21400452 C2.26647339 19.10669983 1.61549683 17.99939514 0.9447937 16.85853577 C-0.30279978 14.73916078 -1.55396514 12.62188338 -2.80911255 10.50697327 C-3.36340942 9.56466858 -3.9177063 8.62236389 -4.48880005 7.65150452 C-5.22537842 6.40723694 -5.22537842 6.40723694 -5.97683716 5.13783264 C-7.0239563 3.12025452 -7.0239563 3.12025452 -7.0239563 1.12025452 C-4.51220465 -0.13562131 -2.81158729 -0.00279482 0 0 Z " fill="#9933FF" transform="translate(135.02395629882813,31.879745483398438)"/>
<path d="M0 0 C31.40798869 -0.04016367 31.40798869 -0.04016367 46.87720299 -0.05025387 C55.25684549 -0.05580389 63.63647807 -0.06285943 72.01611328 -0.07543945 C78.64863248 -0.08539187 85.28114421 -0.09185476 91.91367066 -0.09408849 C95.42707437 -0.09539465 98.94045673 -0.09847452 102.45385361 -0.10573006 C106.37142087 -0.11375498 110.28896704 -0.11399078 114.20654297 -0.11352539 C115.96304672 -0.1189183 115.96304672 -0.1189183 117.7550354 -0.12442017 C119.34943451 -0.12235817 119.34943451 -0.12235817 120.9760437 -0.12025452 C122.36702931 -0.12163721 122.36702931 -0.12163721 123.78611565 -0.12304783 C126 0 126 0 128 1 C126.62551133 4.63632623 124.99565142 7.97064121 123.09375 11.359375 C122.52019775 12.38345459 121.94664551 13.40753418 121.35571289 14.46264648 C120.74332764 15.54747314 120.13094238 16.6322998 119.5 17.75 C118.54951782 19.44008179 118.54951782 19.44008179 117.57983398 21.16430664 C113.74999436 27.95517743 109.86664399 34.70984746 105.8894043 41.4152832 C100.98290565 49.69051083 96.1960371 58.03467115 91.39453125 66.37109375 C84.93545357 77.58405261 78.46653465 88.79133993 72 100 C48.24 100 24.48 100 0 100 C0 67 0 34 0 0 Z " fill="#7A29CC" transform="translate(256,32)"/>
</svg>
