<?xml version="1.0" encoding="UTF-8"?>
<svg version="1.1" xmlns="http://www.w3.org/2000/svg" width="512" height="512">
<path d="M0 0 C0.94641959 -0.00453111 1.89283919 -0.00906223 2.86793816 -0.01373065 C6.05313125 -0.02643522 9.23815467 -0.02475038 12.42337036 -0.02310181 C14.70138775 -0.02908327 16.9794031 -0.03588792 19.25741577 -0.04345703 C25.45573406 -0.06116297 31.65399718 -0.06581434 37.85233831 -0.0670886 C43.02150628 -0.06898483 48.1906613 -0.07633917 53.3598243 -0.08343279 C64.85562082 -0.0988001 76.35138578 -0.10476914 87.84719108 -0.10342209 C88.8821508 -0.10330222 88.8821508 -0.10330222 89.9380188 -0.10317993 C90.62883337 -0.10309817 91.31964794 -0.10301641 92.03139628 -0.10293217 C103.22790936 -0.10211921 114.42428793 -0.12125846 125.62076209 -0.14945666 C137.11425217 -0.17817473 148.60765924 -0.19163115 160.10118783 -0.19026911 C166.5551385 -0.18975841 173.00893701 -0.1955016 179.46285629 -0.21662521 C185.5318241 -0.23594571 191.6004936 -0.23617438 197.66947174 -0.22159195 C199.89915781 -0.21949507 202.12886224 -0.22425672 204.35851669 -0.23631287 C207.39821928 -0.25168673 210.43688321 -0.2425089 213.4765625 -0.22705078 C214.80569666 -0.24248147 214.80569666 -0.24248147 216.16168201 -0.25822389 C220.26179757 -0.21202352 222.33265676 -0.0708082 225.87120247 2.17635155 C230.67457941 7.21341381 230.20050734 12.00163079 230.17776489 18.64242554 C230.19387817 19.57570679 230.20999146 20.50898804 230.22659302 21.47055054 C230.23032985 26.74696254 230.10224347 30.86513467 226.86526489 35.26742554 C220.86526489 38.26742554 220.86526489 38.26742554 203.86526489 38.26742554 C203.86526489 50.80742554 203.86526489 63.34742554 203.86526489 76.26742554 C205.35026489 75.77242554 205.35026489 75.77242554 206.86526489 75.26742554 C212.48126406 74.8991633 216.04192479 75.05186547 220.86526489 78.26742554 C224.78794217 82.14769549 226.70505506 85.37694957 227.17776489 90.95492554 C227.03469389 98.60030689 222.69847933 103.8947879 217.41760254 109.03503418 C216.70262604 109.71049286 215.98764954 110.38595154 215.25100708 111.08187866 C214.48964447 111.81812469 213.72828186 112.55437073 212.94384766 113.31292725 C211.29896242 114.90264682 209.6498847 116.48803764 207.99706268 118.06950378 C205.37845286 120.5809844 202.77820332 123.11012112 200.18295288 125.64572144 C192.80690113 132.85133668 185.4213181 140.04602838 177.97073364 147.1746521 C173.40551906 151.54515237 168.88086003 155.9542924 164.37970734 160.39070129 C162.66379873 162.06716773 160.93340229 163.72894385 159.18828583 165.37498474 C148.20582974 175.00555702 148.20582974 175.00555702 143.72340775 188.23339081 C143.84324391 191.33530392 144.23180599 194.22731673 144.86526489 197.26742554 C145.46806274 197.35894897 146.0708606 197.45047241 146.69192505 197.54476929 C179.13249471 202.73409429 210.26618727 225.73028896 230.86526489 250.26742554 C234.45024846 248.74503526 236.72358408 246.60640767 239.49026489 243.89242554 C251.38099723 232.93585193 265.29398307 225.0813343 279.86526489 218.26742554 C280.59358521 217.87555054 281.32190552 217.48367554 282.07229614 217.07992554 C285.25497768 215.63766462 288.48585577 215.75481853 291.86526489 216.26742554 C296.74187665 218.12374894 300.500487 221.30886331 303.86526489 225.26742554 C312.63667094 251.17816577 296.18905002 288.86859274 285.86526489 312.26742554 C286.58069458 312.12305054 287.29612427 311.97867554 288.03323364 311.82992554 C307.18187903 308.26277814 307.18187903 308.26277814 313.20510864 311.54086304 C317.02878654 314.74680974 318.70300805 316.89983218 319.30276489 321.95492554 C319.09723757 337.96036609 306.62348101 354.64194516 297.86526489 367.26742554 C299.38506958 367.43178101 299.38506958 367.43178101 300.93557739 367.59945679 C302.28720951 367.75902447 303.63876832 367.91921387 304.99026489 368.07992554 C305.98799927 368.1853064 305.98799927 368.1853064 307.00588989 368.29281616 C311.50696984 368.8444191 314.98970955 369.9086426 318.86526489 372.26742554 C321.85440156 376.65149265 322.33755322 380.03335957 321.86526489 385.26742554 C313.50815436 400.09516567 298.93422203 412.130329 284.86526489 421.26742554 C283.92553833 421.89133179 282.98581177 422.51523804 282.01760864 423.15805054 C271.07080426 429.99402964 255.06357639 438.26742554 241.86526489 438.26742554 C241.52688599 439.29803101 241.52688599 439.29803101 241.18167114 440.34945679 C239.54713413 443.97259965 237.27909824 446.88282073 234.80276489 449.95492554 C234.06739502 450.87640381 234.06739502 450.87640381 233.31716919 451.8164978 C226.75623455 459.97221481 219.99649411 467.64550475 211.86526489 474.26742554 C211.13678345 474.87239868 211.13678345 474.87239868 210.39358521 475.48959351 C191.6006072 491.0480874 170.49465273 502.06634309 146.86526489 508.26742554 C146.07184692 508.47915405 145.27842896 508.69088257 144.46096802 508.9090271 C120.14616512 515.09059061 91.04363293 514.93188916 66.86526489 508.26742554 C65.42932983 507.87273071 65.42932983 507.87273071 63.96438599 507.47006226 C34.88975178 499.17710364 12.03896647 484.44112712 -9.13473511 463.26742554 C-9.74575073 462.70281616 -10.35676636 462.13820679 -10.98629761 461.55648804 C-15.59864871 457.22859912 -19.39521346 452.4705054 -23.13473511 447.39242554 C-23.62796265 446.72549683 -24.12119019 446.05856812 -24.62936401 445.37142944 C-28.13473511 440.52442003 -28.13473511 440.52442003 -28.13473511 438.26742554 C-29.15309448 438.14109741 -30.17145386 438.01476929 -31.22067261 437.88461304 C-54.31642177 434.24276836 -75.48700768 419.99799936 -92.13473511 404.26742554 C-93.18467651 403.29676147 -93.18467651 403.29676147 -94.25582886 402.30648804 C-100.27668303 396.5555747 -107.21220758 389.88006317 -108.88473511 381.51742554 C-107.90987157 377.29301686 -106.69665696 374.79872322 -104.13473511 371.26742554 C-100.07774662 369.14338627 -95.81326756 368.66673746 -91.32223511 368.14242554 C-90.62936401 368.05605835 -89.93649292 367.96969116 -89.22262573 367.88070679 C-87.52739805 367.67026473 -85.83115755 367.46800882 -84.13473511 367.26742554 C-84.83598511 366.2374646 -85.53723511 365.20750366 -86.25973511 364.14633179 C-105.83937214 334.92397444 -105.83937214 334.92397444 -105.59567261 320.52133179 C-104.775036 316.50855786 -102.15609977 313.89742172 -99.13473511 311.26742554 C-91.68243519 307.54127558 -79.93006989 310.85923603 -72.13473511 312.26742554 C-72.89657104 310.54072632 -72.89657104 310.54072632 -73.67379761 308.77914429 C-83.41147296 286.40386637 -89.80221691 264.19751677 -91.00973511 239.70492554 C-91.05912231 238.73522827 -91.10850952 237.76553101 -91.15939331 236.76644897 C-91.35382646 230.98167807 -91.41172301 226.7232851 -87.29489136 222.28305054 C-86.60266479 221.70039429 -85.91043823 221.11773804 -85.19723511 220.51742554 C-84.50758667 219.92445679 -83.81793823 219.33148804 -83.10739136 218.72055054 C-79.16006534 215.81281731 -74.85998581 215.71044463 -70.13473511 216.26742554 C-67.38416687 217.16939759 -64.92110886 218.44498995 -62.38473511 219.82992554 C-61.69154175 220.19416626 -60.99834839 220.55840698 -60.28414917 220.9336853 C-58.22344889 222.02602746 -56.1779738 223.14282859 -54.13473511 224.26742554 C-53.05192261 224.85265991 -51.96911011 225.43789429 -50.85348511 226.04086304 C-40.29226925 231.96070245 -30.95175702 239.17082918 -22.29098511 247.61508179 C-20.05833028 249.6729258 -20.05833028 249.6729258 -16.13473511 249.26742554 C-14.10128247 247.33832898 -12.32254727 245.44910383 -10.50973511 243.32992554 C-9.43086732 242.12136493 -8.34880628 240.91564765 -7.26364136 239.71273804 C-6.46337524 238.82376831 -6.46337524 238.82376831 -5.64694214 237.9168396 C9.05335336 221.88274267 28.59282196 210.68161968 48.67776489 202.89242554 C49.53724731 202.55823608 50.39672974 202.22404663 51.28225708 201.87973022 C57.06887934 199.71948024 62.78775977 198.33232583 68.86526489 197.26742554 C70.19205751 191.01359981 70.92924428 184.74183498 67.53625107 179.03022385 C62.86464086 173.01314805 57.21473377 167.88587169 51.68948364 162.66976929 C49.92170592 160.94205098 48.15774676 159.21041773 46.39744568 157.4750824 C41.77164946 152.93271451 37.10165023 148.43877844 32.41873169 143.95541382 C24.92332701 136.76202178 17.50193118 129.49208051 10.07227516 122.23092842 C7.47685132 119.70612027 4.86526862 117.19908139 2.24995422 114.69490051 C0.65236292 113.15019532 -0.9450342 111.60528928 -2.54220581 110.06015015 C-3.63408958 109.02754311 -3.63408958 109.02754311 -4.74803162 107.97407532 C-9.37584986 103.46819946 -12.36577741 99.55700328 -13.53317261 93.04476929 C-13.46493801 87.68835343 -12.54344563 83.70246077 -8.70504761 79.82211304 C-4.95749707 76.55932028 -2.06043072 75.1237676 2.86526489 75.14242554 C3.54588989 75.13984741 4.22651489 75.13726929 4.92776489 75.13461304 C6.86526489 75.26742554 6.86526489 75.26742554 9.86526489 76.26742554 C9.86526489 63.72742554 9.86526489 51.18742554 9.86526489 38.26742554 C4.25526489 38.26742554 -1.35473511 38.26742554 -7.13473511 38.26742554 C-13.13473511 35.26742554 -13.13473511 35.26742554 -14.98239136 32.73617554 C-16.55076761 28.01509719 -16.61015314 23.71055772 -16.57223511 18.76742554 C-16.59221558 17.84316772 -16.61219604 16.91890991 -16.63278198 15.96664429 C-16.62868368 10.23721673 -16.05632795 6.74924592 -12.13473511 2.26742554 C-8.13752717 -0.39737976 -4.64156688 -0.01614268 0 0 Z " fill="#B0B0B0" transform="translate(149.13473510742188,-0.267425537109375)"/>
<path d="M0 0 C0.94641959 -0.00453111 1.89283919 -0.00906223 2.86793816 -0.01373065 C6.05313125 -0.02643522 9.23815467 -0.02475038 12.42337036 -0.02310181 C14.70138775 -0.02908327 16.9794031 -0.03588792 19.25741577 -0.04345703 C25.45573406 -0.06116297 31.65399718 -0.06581434 37.85233831 -0.0670886 C43.02150628 -0.06898483 48.1906613 -0.07633917 53.3598243 -0.08343279 C64.85562082 -0.0988001 76.35138578 -0.10476914 87.84719108 -0.10342209 C88.8821508 -0.10330222 88.8821508 -0.10330222 89.9380188 -0.10317993 C90.62883337 -0.10309817 91.31964794 -0.10301641 92.03139628 -0.10293217 C103.22790936 -0.10211921 114.42428793 -0.12125846 125.62076209 -0.14945666 C137.11425217 -0.17817473 148.60765924 -0.19163115 160.10118783 -0.19026911 C166.5551385 -0.18975841 173.00893701 -0.1955016 179.46285629 -0.21662521 C185.5318241 -0.23594571 191.6004936 -0.23617438 197.66947174 -0.22159195 C199.89915781 -0.21949507 202.12886224 -0.22425672 204.35851669 -0.23631287 C207.39821928 -0.25168673 210.43688321 -0.2425089 213.4765625 -0.22705078 C214.80569666 -0.24248147 214.80569666 -0.24248147 216.16168201 -0.25822389 C220.26179757 -0.21202352 222.33265676 -0.0708082 225.87120247 2.17635155 C230.67457941 7.21341381 230.20050734 12.00163079 230.17776489 18.64242554 C230.19387817 19.57570679 230.20999146 20.50898804 230.22659302 21.47055054 C230.23032985 26.74696254 230.10224347 30.86513467 226.86526489 35.26742554 C222.03800664 38.68374925 217.66446199 38.64246256 211.99026489 38.45492554 C210.81463989 38.4346228 210.81463989 38.4346228 209.61526489 38.41390991 C207.69829707 38.37884343 205.78168738 38.32504626 203.86526489 38.26742554 C203.95538094 39.09788863 204.04549698 39.92835173 204.13834381 40.78398037 C204.51765664 46.85914595 204.65840123 51.24715601 200.65420532 56.06871033 C199.16870076 57.60355662 197.64713695 59.10404465 196.09768677 60.5743103 C194.85875168 61.82573067 194.85875168 61.82573067 193.5947876 63.10243225 C190.87149074 65.83701457 188.10471024 68.52235418 185.33401489 71.20883179 C183.41906636 73.102834 181.5133448 75.006025 179.60708618 76.9087677 C175.61325061 80.88512818 171.59601551 84.8364602 167.56155396 88.77157593 C162.3976515 93.80854054 157.27361409 98.88414116 152.16133881 103.9734354 C147.74691236 108.36755181 143.3154145 112.74433566 138.88071632 117.11797976 C137.46495796 118.51546543 136.05145097 119.9152307 134.63795471 121.31500435 C131.99155916 123.92908472 129.33210041 126.52907261 126.66799927 129.12509155 C125.89259796 129.89445038 125.11719666 130.6638092 124.31829834 131.45648193 C118.94755596 136.64967211 113.94772072 140.61131657 106.36526489 141.82992554 C99.04494972 140.65344631 93.62623447 135.47322287 88.58865356 130.31552124 C88.01684357 129.74254303 87.44503357 129.16956482 86.855896 128.57922363 C84.99124377 126.70745651 83.13734272 124.82541274 81.28323364 122.94320679 C79.97979388 121.63161978 78.67560759 120.32077427 77.37071228 119.01063538 C73.95415354 115.57703912 70.5462842 112.1349548 67.14065552 108.69052124 C61.6749387 103.16536667 56.19626503 97.65306523 50.71712685 92.14122581 C48.8071346 90.21728232 46.90100981 88.28957211 44.99543762 86.36125183 C43.82867532 85.18446827 42.6618349 84.00776217 41.49490356 82.83114624 C40.96656418 82.29449844 40.43822479 81.75785065 39.89387512 81.2049408 C37.63937144 78.9367864 35.53828609 77.04943967 32.86526489 75.26742554 C32.86526489 74.60742554 32.86526489 73.94742554 32.86526489 73.26742554 C31.87526489 72.93742554 30.88526489 72.60742554 29.86526489 72.26742554 C29.86526489 71.60742554 29.86526489 70.94742554 29.86526489 70.26742554 C28.54526489 69.60742554 27.22526489 68.94742554 25.86526489 68.26742554 C25.86526489 67.60742554 25.86526489 66.94742554 25.86526489 66.26742554 C25.20526489 66.26742554 24.54526489 66.26742554 23.86526489 66.26742554 C21.74026489 64.39242554 21.74026489 64.39242554 19.86526489 62.26742554 C19.86526489 61.60742554 19.86526489 60.94742554 19.86526489 60.26742554 C18.87526489 59.93742554 17.88526489 59.60742554 16.86526489 59.26742554 C13.87192134 56.98556193 11.69834591 54.55908715 9.86526489 51.26742554 C9.28256703 46.86705203 9.44173125 42.67755365 9.86526489 38.26742554 C8.12889771 38.31963257 8.12889771 38.31963257 6.35745239 38.37289429 C4.81840449 38.4010476 3.27934078 38.4283461 1.74026489 38.45492554 C0.97971802 38.48006226 0.21917114 38.50519897 -0.56442261 38.53109741 C-5.47874053 38.59464463 -8.9893076 38.20120732 -13.13473511 35.26742554 C-16.86266891 30.16023505 -16.61883987 24.84299207 -16.57223511 18.76742554 C-16.59221558 17.84316772 -16.61219604 16.91890991 -16.63278198 15.96664429 C-16.62868368 10.23721673 -16.05632795 6.74924592 -12.13473511 2.26742554 C-8.13752717 -0.39737976 -4.64156688 -0.01614268 0 0 Z " fill="#C6C6C6" transform="translate(149.13473510742188,-0.267425537109375)"/>
<path d="M0 0 C58.41 0 116.82 0 177 0 C170.25 7.875 170.25 7.875 167.16543579 10.95481873 C166.46722717 11.65440201 165.76901855 12.35398529 165.0496521 13.07476807 C164.3044632 13.81636169 163.55927429 14.55795532 162.79150391 15.32202148 C161.99083496 16.12283646 161.19016602 16.92365143 160.36523438 17.74873352 C157.73804239 20.37523304 155.10733417 22.99818016 152.4765625 25.62109375 C150.6464591 27.44933061 148.81657745 29.27778947 146.98690796 31.10646057 C142.67528872 35.4146616 138.36145175 39.72063013 134.04651296 44.02550608 C129.13032954 48.93047541 124.21701744 53.83831671 119.30393338 58.74639022 C109.20579313 68.83410455 99.10408808 78.91824333 89 89 C86.02915676 87.67583786 84.0808928 86.28509793 81.90010071 83.8813324 C81.32040874 83.25068154 80.74071676 82.62003069 80.14345837 81.9702692 C79.52417619 81.28712871 78.90489401 80.60398821 78.2668457 79.90014648 C70.29402953 71.25309427 62.05298465 62.90669908 53.73046875 54.59765625 C52.23197652 53.09848808 50.73363256 51.59917169 49.23542786 50.09971619 C46.13374679 46.99657817 43.03030791 43.89521257 39.92553711 40.79516602 C35.94199944 36.81739488 31.9630636 32.83505513 27.98537731 28.85143375 C24.91008967 25.77254527 21.83244041 22.69602641 18.75405312 19.62023735 C17.28405661 18.15090785 15.81480237 16.68083536 14.34630394 15.21000862 C12.31033958 13.17151814 10.27122174 11.13623675 8.23120117 9.10180664 C7.62610718 8.49468842 7.02101318 7.88757019 6.39758301 7.26205444 C3.47662929 4.26473547 3.47662929 4.26473547 0 2 C0 1.34 0 0.68 0 0 Z " fill="#4EA6F7" transform="translate(168,37)"/>
<path d="M0 0 C4.51924019 2.2596201 6.38700804 4.5500751 8.77734375 8.89331055 C11.24041762 13.13729306 14.12305229 17.10944447 16.9375 21.125 C17.54529297 22.00542969 18.15308594 22.88585937 18.77929688 23.79296875 C19.37677734 24.64761719 19.97425781 25.50226563 20.58984375 26.3828125 C21.12472412 27.14996582 21.65960449 27.91711914 22.21069336 28.70751953 C26.51214793 34.21859313 29.83778651 36.75353095 36.71484375 38.09765625 C37.4482045 38.25866318 38.18156525 38.4196701 38.93714905 38.58555603 C41.26722134 39.0955067 43.60137826 39.58108663 45.9375 40.0625 C48.26947472 40.5494648 50.59968098 41.04202121 52.92713928 41.55015564 C54.37023853 41.86469034 55.81603646 42.16717947 57.26463318 42.45533752 C61.91221959 43.46115347 65.32870958 44.96364942 69 48 C69.66075134 50.13294983 69.66075134 50.13294983 70 52 C63.44596967 54.5249737 56.8156464 56.74363505 50.13671875 58.9140625 C48.41857719 59.47497086 48.41857719 59.47497086 46.66572571 60.04721069 C43.0068528 61.24145684 39.34723272 62.43339161 35.6875 63.625 C30.92020445 65.17855957 26.1532838 66.73326309 21.38671875 68.2890625 C20.21229218 68.67233704 19.0378656 69.05561157 17.82785034 69.45050049 C5.19994474 73.57792695 -7.40203977 77.78215309 -20 82 C-20 82.66 -20 83.32 -20 84 C-19.01 84.99 -19.01 84.99 -18 86 C-18 86.99 -18 87.98 -18 89 C-17.34 89 -16.68 89 -16 89 C-16.36642386 94.85384459 -18.78317852 97.78436567 -22.4375 102.0625 C-23.54139984 103.39758219 -24.6442486 104.73353407 -25.74609375 106.0703125 C-26.29765137 106.73321289 -26.84920898 107.39611328 -27.41748047 108.07910156 C-35.65260661 118.0750862 -43.2500253 128.62675207 -51 139 C-53.36039408 137.31932493 -54.82986271 135.96347138 -55.34619141 133.03955078 C-55.43332577 130.53724431 -55.39536322 128.0650147 -55.3125 125.5625 C-55.29993164 124.6439624 -55.28736328 123.7254248 -55.27441406 122.77905273 C-55.18640396 117.89407677 -54.9548324 113.0303103 -54.62109375 108.15625 C-54.56074951 107.21837646 -54.50040527 106.28050293 -54.43823242 105.31420898 C-54.31535138 103.51785078 -54.17188903 101.72274868 -54.00512695 99.92993164 C-53.60088362 94.24654922 -54.2423115 91.53803915 -58 87 C-59.08308586 85.59947562 -60.1636024 84.19696223 -61.2421875 82.79296875 C-63.05363865 80.49017628 -64.87116662 78.192335 -66.69140625 75.89648438 C-77.67385907 61.92423149 -77.67385907 61.92423149 -78.625 56.3125 C-77.7126342 51.47696127 -75.85325011 48.31382196 -71.8125 45.44921875 C-68.48062337 43.73237676 -65.33722762 42.91715984 -61.6875 42.0625 C-60.99615967 41.8962915 -60.30481934 41.73008301 -59.5925293 41.55883789 C-56.65608255 40.85314931 -53.71510393 40.16724458 -50.77441406 39.47949219 C-48.6187521 38.97233379 -46.46566187 38.45515213 -44.3125 37.9375 C-43.02988281 37.63714844 -41.74726563 37.33679688 -40.42578125 37.02734375 C-34.90883332 35.37288844 -31.76793424 33.19394191 -28.5 28.5 C-27.82324219 27.5409375 -27.14648438 26.581875 -26.44921875 25.59375 C-24.52964042 22.79867456 -22.64922959 19.97825857 -20.76953125 17.15625 C-20.19976562 16.30740234 -19.63 15.45855469 -19.04296875 14.58398438 C-17.90418778 12.88352476 -16.77498124 11.17660747 -15.65625 9.46289062 C-11.5352823 3.30149245 -8.04226095 -1.14889442 0 0 Z " fill="#E7EAEB" transform="translate(259,273)"/>
<path d="M0 0 C1.12233352 0.93968072 2.24151641 1.88312524 3.359375 2.828125 C3.98295898 3.3530957 4.60654297 3.87806641 5.24902344 4.41894531 C7.4497081 6.4060666 9.18303313 8.66389974 11 11 C11.99 11.66 12.98 12.32 14 13 C14 13.66 14 14.32 14 15 C14.66 15 15.32 15 16 15 C17.17140027 16.41257092 18.33845753 17.82892342 19.48587036 19.26104736 C21.0036163 21.00415326 22.57512595 22.40926922 24.35107422 23.88574219 C29.99212207 28.75999437 35.1680693 34.08943331 40.40381241 39.38977814 C42.29319717 41.30142663 44.18672795 43.2088776 46.08151245 45.11517334 C51.46282201 50.52986347 56.83977449 55.94882418 62.20654297 61.37792969 C65.50312595 64.71221024 68.80702384 68.03909127 72.11568832 71.36138153 C73.3695368 72.62326107 74.62060733 73.88790743 75.86877823 75.15540314 C77.61283536 76.9260156 79.36605502 78.68705841 81.12158203 80.44628906 C81.62978485 80.96684875 82.13798767 81.48740845 82.66159058 82.02374268 C86.76612702 86.10559459 90.58515095 88.68696401 96.375 89.4375 C105.28335194 88.36235408 110.68429022 82.87936718 116.69506836 76.74316406 C117.52368378 75.91352646 118.35229919 75.08388885 119.20602417 74.22911072 C121.92676465 71.50052199 124.63317633 68.75816801 127.33984375 66.015625 C129.23079393 64.11466954 131.1225645 62.2145692 133.01551819 60.31561279 C137.47726953 55.83632298 141.92914386 51.34735721 146.37713104 46.85440326 C152.92042015 40.24568991 159.47665782 33.64984046 166.03520298 27.0562706 C166.51565616 26.57324801 166.99610934 26.09022542 167.49112171 25.59256577 C168.44853948 24.63005131 169.40598958 23.667569 170.363473 22.70511985 C173.62412072 19.4267255 176.8790095 16.14267924 180.13230896 12.85699463 C181.82505773 11.15103668 183.51785009 9.44512199 185.21069336 7.73925781 C185.9893425 6.95072922 186.76799164 6.16220062 187.57023621 5.34977722 C188.27525269 4.64035477 188.98026917 3.93093231 189.70664978 3.20001221 C190.32215667 2.57838825 190.93766356 1.9567643 191.57182217 1.31630325 C193 0 193 0 194 0 C194.29309159 4.14431514 194.46884275 8.28594806 194.625 12.4375 C194.70878906 13.60216797 194.79257812 14.76683594 194.87890625 15.96679688 C195.12411611 24.67174683 195.12411611 24.67174683 192.27496338 28.03829956 C191.5013446 28.65069489 190.72772583 29.26309021 189.93066406 29.89404297 C185.22639215 33.86496839 180.90394449 38.04905825 176.62939453 42.47924805 C175.95921421 43.17154448 175.28903389 43.8638409 174.59854507 44.57711601 C173.18024882 46.04286844 171.76267644 47.50932161 170.34576797 48.97641563 C165.72607885 53.74713519 161.06943932 58.4818747 156.41983223 63.22340679 C152.34977315 67.37809151 148.29344681 71.54471078 144.26318359 75.73803711 C140.33995071 79.81852644 136.38336135 83.86381486 132.40188217 87.88746071 C130.89745924 89.42018659 129.40552862 90.9652817 127.92682266 92.52283287 C116.36445997 104.6809849 116.36445997 104.6809849 110.51556396 105.47012329 C107.44902486 104.96207895 104.89322907 104.10556585 102 103 C97.04344283 102.5601067 92.49152751 102.74251487 87.6875 104.0625 C83.98661457 105.00340307 82.55459017 105.06601054 79 104 C77.20622063 102.69561863 77.20622063 102.69561863 75.53366089 101.00794983 C74.89164734 100.36998978 74.24963379 99.73202972 73.58816528 99.07473755 C72.90019867 98.37081879 72.21223206 97.66690002 71.50341797 96.94165039 C70.39764404 95.83434319 70.39764404 95.83434319 69.26953125 94.70466614 C66.83429047 92.26153899 64.41341482 89.80466525 61.9921875 87.34765625 C60.30352846 85.64899632 58.61390932 83.95129035 56.92337036 82.25450134 C52.47380568 77.78398973 48.03594188 73.30204456 43.60083008 68.81719971 C36.49755906 61.638697 29.37559945 54.4787221 22.25577164 47.31664848 C19.76710696 44.81025325 17.28269243 42.2997081 14.79904175 39.78834534 C13.27867544 38.25476208 11.75826176 36.72122579 10.23779297 35.18774414 C9.54577789 34.48584961 8.85376282 33.78395508 8.14077759 33.06079102 C7.50440369 32.42001114 6.86802979 31.77923126 6.21237183 31.11903381 C5.66118116 30.56172608 5.1099905 30.00441835 4.54209709 29.43022251 C2.85106657 27.78580868 2.85106657 27.78580868 0 26 C-0.34057617 23.38623047 -0.34057617 23.38623047 -0.29296875 20.1171875 C-0.2784668 18.36728516 -0.2784668 18.36728516 -0.26367188 16.58203125 C-0.23853516 15.35871094 -0.21339844 14.13539062 -0.1875 12.875 C-0.17396484 11.64394531 -0.16042969 10.41289063 -0.14648438 9.14453125 C-0.11103543 6.09592157 -0.06162079 3.048175 0 0 Z " fill="#3397F1" transform="translate(159,51)"/>
<path d="M0 0 C3.95494236 -0.57676243 7.54164967 -0.97189533 10.97789669 1.31813908 C11.59555684 1.89708644 12.21321699 2.4760338 12.84959412 3.07252502 C13.88304616 4.03068965 13.88304616 4.03068965 14.93737602 5.00821114 C15.61804193 5.66550146 16.29870785 6.32279179 17 7 C17.61006456 7.58456404 18.22012913 8.16912807 18.8486805 8.77140617 C20.71875253 10.58982371 22.56501972 12.42974104 24.40649414 14.27709961 C25.09867538 14.96752853 25.79085663 15.65795746 26.50401306 16.36930847 C28.76689731 18.62783022 31.02614932 20.88994435 33.28515625 23.15234375 C34.8710649 24.73757775 36.45712189 26.32266337 38.0433197 27.90760803 C41.35741141 31.22023035 44.66970039 34.53464186 47.98071289 37.8503418 C52.20926188 42.08458758 56.44228494 46.31432757 60.67667484 50.54273129 C63.94970645 53.81213677 67.22033703 57.08393586 70.49026299 60.35644722 C72.04953204 61.91637987 73.60953462 63.47557968 75.17030525 65.03400993 C77.35694291 67.21808729 79.54031446 69.40538049 81.72290039 71.59350586 C82.35841827 72.22699951 82.99393616 72.86049316 83.64871216 73.51318359 C87.96193039 77.84654243 92.02382172 82.35603781 96 87 C99.15059366 85.60735912 101.2443838 83.98874829 103.64738464 81.53256226 C104.35507996 80.81460983 105.06277527 80.09665741 105.79191589 79.35694885 C106.94135429 78.17551552 106.94135429 78.17551552 108.11401367 76.97021484 C108.92919464 76.14086929 109.74437561 75.31152374 110.58425903 74.45704651 C112.35464889 72.6556043 114.12297543 70.85213257 115.88948631 69.04688644 C118.68692575 66.19158841 121.49309932 63.34507508 124.30329895 60.50234985 C125.26639282 59.52785115 126.22948081 58.55334663 127.19256306 57.57883644 C127.91592049 56.84692648 127.91592049 56.84692648 128.65389121 56.10023046 C135.19209351 49.48305134 141.72095536 42.85696346 148.22485352 36.20605469 C152.61576985 31.71607128 157.02258367 27.24236867 161.4480837 22.78646052 C163.78755078 20.42957103 166.11536557 18.06277852 168.42903709 15.68052292 C171.01194683 13.02290642 173.62153305 10.39450734 176.23901367 7.77099609 C176.99518478 6.97932541 177.7513559 6.18765472 178.53044128 5.37199402 C182.27154486 1.68003445 184.64263275 -0.46054018 190.04756165 -0.48568726 C191.3518663 -0.32541046 192.65617096 -0.16513367 194 0 C195.16996199 10.78176785 195.16996199 10.78176785 192.64891052 15.56164742 C190.63806848 17.98295354 188.51565936 20.14033195 186.23242188 22.30688477 C185.40646515 23.14116501 184.58050842 23.97544525 183.72952271 24.83500671 C181.00622585 27.56958903 178.23944535 30.25492864 175.46875 32.94140625 C173.55380147 34.83540846 171.64807991 36.73859947 169.74182129 38.64134216 C165.74798571 42.61770264 161.73075062 46.56903466 157.69628906 50.50415039 C152.53238661 55.541115 147.4083492 60.61671562 142.29607391 65.70600986 C137.88164747 70.10012627 133.4501496 74.47691012 129.01545143 78.85055423 C127.59969306 80.24803989 126.18618608 81.64780516 124.77268982 83.04757881 C122.12629427 85.66165918 119.46683552 88.26164707 116.80273438 90.85766602 C115.63963242 92.01170425 115.63963242 92.01170425 114.45303345 93.1890564 C109.08229107 98.38224658 104.08245582 102.34389103 96.5 103.5625 C89.17968483 102.38602078 83.76096958 97.20579733 78.72338867 92.0480957 C78.15157867 91.47511749 77.57976868 90.90213928 76.9906311 90.3117981 C75.12597888 88.44003097 73.27207783 86.5579872 71.41796875 84.67578125 C70.11452899 83.36419424 68.8103427 82.05334874 67.50544739 80.74320984 C64.08888865 77.30961358 60.6810193 73.86752927 57.27539062 70.4230957 C51.80967381 64.89794113 46.33100013 59.38563969 40.85186195 53.87380028 C38.9418697 51.94985678 37.03574491 50.02214658 35.13017273 48.09382629 C33.96341043 46.91704274 32.79657001 45.74033664 31.62963867 44.5637207 C31.10129929 44.02707291 30.5729599 43.49042511 30.02861023 42.93751526 C27.77410655 40.66936086 25.6730212 38.78201413 23 37 C23 36.34 23 35.68 23 35 C21.515 34.505 21.515 34.505 20 34 C20 33.34 20 32.68 20 32 C18.68 31.34 17.36 30.68 16 30 C16 29.34 16 28.68 16 28 C15.34 28 14.68 28 14 28 C11.875 26.125 11.875 26.125 10 24 C10 23.34 10 22.68 10 22 C9.01 21.67 8.02 21.34 7 21 C4.00665645 18.71813639 1.83308102 16.29166161 0 13 C-0.58269786 8.59962649 -0.42353365 4.41012811 0 0 Z " fill="#E7EDF1" transform="translate(159,38)"/>
<path d="M0 0 C4.54413825 2.66721048 8.03178922 6.23174357 11.70896912 9.96600342 C12.46101624 10.71761246 13.21306335 11.4692215 13.98789978 12.24360657 C16.4568751 14.71466175 18.91507069 17.19615177 21.37327576 19.67791748 C23.08897366 21.39921415 24.80533776 23.11984703 26.52233887 24.83984375 C31.02851817 29.35744952 35.52561334 33.88399341 40.02085876 38.41247559 C44.61398504 43.03634989 49.21566943 47.65168979 53.81663513 52.26776123 C62.83478317 61.31803468 71.84364881 70.37748958 80.84593201 79.44354248 C78.36562704 81.93548479 75.88476459 84.40740245 73.31077576 86.80291748 C67.91925308 91.90278128 64.14776414 96.33191186 61.84593201 103.44354248 C58.04096284 102.92187375 56.05803244 102.1562532 53.34162903 99.44717407 C52.69120132 98.80802567 52.04077362 98.16887726 51.37063599 97.51036072 C50.67331863 96.80494644 49.97600128 96.09953217 49.2575531 95.3727417 C48.51061691 94.63281479 47.76368073 93.89288788 46.99411011 93.13053894 C44.52569906 90.6797439 42.07222102 88.21459051 39.61936951 85.74822998 C37.90792856 84.03948344 36.19589419 82.33133107 34.48329163 80.62374878 C30.89417356 77.04053119 27.31239763 73.45017062 23.73558044 69.85467529 C19.15470667 65.25104699 14.55615801 60.66556202 9.95192528 56.08530998 C6.41190632 52.55976307 2.88149232 49.02472176 -0.64611435 45.48675919 C-2.33763027 43.79257813 -4.03211384 42.10135463 -5.72961807 40.41317368 C-8.1043985 38.04857716 -10.46593607 35.67148951 -12.82447815 33.29071045 C-13.52584396 32.59744156 -14.22720978 31.90417267 -14.9498291 31.18989563 C-19.40761674 26.65412777 -22.4035908 22.63002798 -23.55250549 16.22088623 C-23.4842709 10.86447037 -22.56277852 6.87857771 -18.72438049 2.99822998 C-12.99852428 -1.98696822 -6.85465607 -3.3826097 0 0 Z " fill="#C7C7C7" transform="translate(159.15406799316406,76.55645751953125)"/>
<path d="M0 0 C4.23301121 2.82200747 7.17159664 5.95228992 8.8125 10.875 C9.41583775 17.99438542 7.91461505 22.96338327 3.43657112 28.60997963 C1.85853276 30.3303818 0.2296602 31.9761929 -1.43725586 33.6105957 C-2.3624276 34.54146248 -2.3624276 34.54146248 -3.30628967 35.49113464 C-5.32869575 37.52089435 -7.3650399 39.53598408 -9.40234375 41.55078125 C-10.82027472 42.96632518 -12.23746404 44.38261235 -13.65394592 45.79960632 C-16.6159342 48.75847573 -19.58449065 51.71053326 -22.55834961 54.6574707 C-26.36606821 58.43114905 -30.16042641 62.21792131 -33.95040035 66.00941181 C-36.87262456 68.93109181 -39.80003488 71.84752769 -42.72921944 74.76222801 C-44.13021328 76.15686875 -45.53000899 77.55271416 -46.9285717 78.94979286 C-48.88352809 80.90040407 -50.84493478 82.84428465 -52.80834961 84.78637695 C-53.66962967 85.64901657 -53.66962967 85.64901657 -54.54830933 86.52908325 C-57.57510201 89.50802843 -60.45403737 91.78741899 -64.1875 93.875 C-65.83510066 95.39163081 -67.43998462 96.95591699 -69 98.5625 C-70.18529297 99.77486328 -70.18529297 99.77486328 -71.39453125 101.01171875 C-71.98621094 101.62660156 -72.57789063 102.24148437 -73.1875 102.875 C-74.8375 101.225 -76.4875 99.575 -78.1875 97.875 C-77.5275 97.875 -76.8675 97.875 -76.1875 97.875 C-76.5175 93.915 -76.8475 89.955 -77.1875 85.875 C-79.1875 89.63929774 -79.1875 89.63929774 -80.1875 92.875 C-81.2930189 91.93909496 -82.39685453 91.00120142 -83.5 90.0625 C-84.11488281 89.54042969 -84.72976563 89.01835937 -85.36328125 88.48046875 C-87.04314328 87.00204628 -88.6233814 85.47416888 -90.1875 83.875 C-90.8475 83.215 -91.5075 82.555 -92.1875 81.875 C-92.04173941 77.64794279 -89.04932616 75.66868744 -86.1875 72.875 C-85.76837845 72.13283234 -85.3492569 71.39066467 -84.91743469 70.62600708 C-82.66060589 67.0371132 -79.87766892 64.27808445 -76.88354492 61.29638672 C-75.93174095 60.33691635 -75.93174095 60.33691635 -74.96070862 59.35806274 C-72.86826418 57.25175395 -70.76850857 55.15292103 -68.66796875 53.0546875 C-67.20667361 51.58950396 -65.74560203 50.12409741 -64.28474426 48.65847778 C-61.22407303 45.5903513 -58.15956322 42.52612101 -55.0925293 39.46435547 C-51.16663349 35.54425592 -47.25222388 31.6129061 -43.34084606 27.67832756 C-40.3271679 24.6499045 -37.30657723 21.6284507 -34.28396034 18.60895157 C-32.83796405 17.16244254 -31.3943242 15.71357387 -29.95311546 14.26229477 C-27.93572781 12.23254473 -25.90899372 10.21259975 -23.87963867 8.19482422 C-23.28877472 7.59631653 -22.69791077 6.99780884 -22.08914185 6.38116455 C-15.47040559 -0.15455666 -9.0462751 -3.19280298 0 0 Z " fill="#CACACA" transform="translate(367.1875,76.125)"/>
<path d="M0 0 C1.47757739 0.55047704 2.96579922 1.07290492 4.46142578 1.57226562 C5.33558136 1.86597046 6.20973694 2.15967529 7.11038208 2.46228027 C8.51367264 2.92954529 8.51367264 2.92954529 9.9453125 3.40625 C11.92844155 4.07405206 13.91151275 4.74202598 15.89453125 5.41015625 C19.01892934 6.45917747 22.14393022 7.50632183 25.27001953 8.55029297 C28.28854257 9.55962791 31.30454991 10.57620217 34.3203125 11.59375 C35.259888 11.90526001 36.1994635 12.21677002 37.16751099 12.53771973 C38.03536224 12.83142456 38.9032135 13.12512939 39.79736328 13.42773438 C40.56251251 13.68373413 41.32766174 13.93973389 42.11599731 14.20349121 C44 15 44 15 46 17 C46.30297852 19.51513672 46.30297852 19.51513672 46.37890625 22.6796875 C46.41306641 23.83726562 46.44722656 24.99484375 46.48242188 26.1875 C46.52206055 28.0128125 46.52206055 28.0128125 46.5625 29.875 C46.62349894 32.24746956 46.68728277 34.61986922 46.75390625 36.9921875 C46.78621338 38.15782227 46.81852051 39.32345703 46.85180664 40.52441406 C47.03747457 44.87889287 47.43675741 49.19688175 47.90039062 53.52978516 C48.04644123 57.15169698 47.20538796 59.15433812 45 62 C40.56447179 65.83068346 37.75787199 66.38435909 32 66 C28.51831055 65.00610352 28.51831055 65.00610352 24.88671875 63.62890625 C24.23226273 63.38712143 23.5778067 63.14533661 22.90351868 62.89622498 C20.1340472 61.87280128 17.37462183 60.82347844 14.61450195 59.77514648 C6.81372882 56.82938057 -0.5428267 54.11989725 -9 54 C-7.02 53.505 -7.02 53.505 -5 53 C-5.33 36.17 -5.66 19.34 -6 2 C-8.97 5.63 -11.94 9.26 -15 13 C-15.66 13.66 -16.32 14.32 -17 15 C-17.33 11.37 -17.66 7.74 -18 4 C-12.31560321 0.14927959 -6.36376301 -3.32832755 0 0 Z " fill="#94B1BA" transform="translate(261,350)"/>
<path d="M0 0 C1.20011719 -0.05671875 2.40023437 -0.1134375 3.63671875 -0.171875 C8.02952982 0.03009333 11.43042917 0.39414989 15 3 C20.25683417 9.41545138 23.93155445 16.94820013 27.59985352 24.34643555 C28.99569827 27.17784554 28.99569827 27.17784554 31.3828125 30.0703125 C33.88883045 34.61020009 33.38552694 38.97757092 33.1875 44.0625 C33.13496 46.01160603 33.08663998 47.96083134 33.04296875 49.91015625 C33.01227295 50.76746338 32.98157715 51.62477051 32.94995117 52.50805664 C33.00238574 55.11878651 33.45486169 57.45169681 34 60 C34 61.66666667 34 63.33333333 34 65 C34.33 65.66 34.66 66.32 35 67 C36.16883117 72.49350649 36.16883117 72.49350649 35 76 C35.66 76 36.32 76 37 76 C37.54466387 80.084979 38 83.8725485 38 88 C38.99 88.495 38.99 88.495 40 89 C31.54603733 89 24.54142929 79.87081082 18.62890625 74.40234375 C16.42300952 72.38655402 14.17437478 70.46874112 11.875 68.5625 C-2.32819581 56.09140124 -17.07867497 33.60099127 -20.40625 14.69140625 C-20.60790514 10.11215422 -20.12522149 7.56367772 -17.125 4 C-12.06591543 -1.27904477 -6.96364366 -0.276396 0 0 Z " fill="#C0BFBF" transform="translate(64,310)"/>
<path d="M0 0 C2.45703125 0.3125 2.45703125 0.3125 4.875 0.8125 C6.08736328 0.9671875 6.08736328 0.9671875 7.32421875 1.125 C12.59629825 1.96156138 15.49309149 3.47942973 18.875 7.8125 C20.08405694 11.43967081 20.20984114 13.99611786 19.875 17.8125 C11.51788946 32.64024014 -3.05604286 44.67540347 -17.125 53.8125 C-18.06472656 54.43640625 -19.00445312 55.0603125 -19.97265625 55.703125 C-30.91946063 62.53910411 -46.92668851 70.8125 -60.125 70.8125 C-58.72201367 67.18024635 -57.13489075 63.69732062 -55.41015625 60.20703125 C-54.88873047 59.14033203 -54.36730469 58.07363281 -53.83007812 56.97460938 C-52.743502 54.75882097 -51.65242325 52.54523434 -50.55664062 50.33398438 C-47.44286206 43.94133171 -44.88422661 37.70886217 -43.125 30.8125 C-42.34125 30.67312012 -41.5575 30.53374023 -40.75 30.39013672 C-37.80409309 29.74188377 -36.44623742 28.83257274 -34.125 26.9375 C-33.34898437 26.30585938 -32.57296875 25.67421875 -31.7734375 25.0234375 C-30.46246094 23.92902344 -30.46246094 23.92902344 -29.125 22.8125 C-28.10664063 21.97976563 -27.08828125 21.14703125 -26.0390625 20.2890625 C-24.9412696 19.38194669 -23.8449456 18.47305065 -22.75 17.5625 C-22.19594482 17.10206299 -21.64188965 16.64162598 -21.07104492 16.16723633 C-17.73126265 13.33617872 -14.73836685 10.36221279 -11.80371094 7.11694336 C-5.39307599 0.11633754 -5.39307599 0.11633754 0 0 Z " fill="#A2A1A1" transform="translate(451.125,367.1875)"/>
<path d="M0 0 C3.21293527 -0.38847724 5.42149427 -0.37889627 8.55859375 0.48046875 C12.29547515 3.63853971 15.26046753 7.21528013 18.32568359 11.01074219 C21.03331847 14.23845743 24.31178367 16.82014019 27.55859375 19.48046875 C28.44675781 20.23328125 29.33492187 20.98609375 30.25 21.76171875 C35.90319167 26.53887948 35.90319167 26.53887948 42.21484375 30.328125 C46.29004053 32.95129489 46.97181041 34.69170813 48.49609375 39.23046875 C48.97412465 40.56868943 49.45876415 41.90456373 49.94921875 43.23828125 C50.20251953 43.93083008 50.45582031 44.62337891 50.71679688 45.33691406 C52.16951422 49.03611889 53.94859931 52.56398898 55.74609375 56.10546875 C56.24580688 57.09885254 56.24580688 57.09885254 56.75561523 58.11230469 C58.18060724 60.91140892 59.65506797 63.63786265 61.296875 66.31640625 C62.55859375 68.48046875 62.55859375 68.48046875 62.55859375 70.48046875 C38.1846808 67.45686942 16.04894271 53.00724255 -1.44140625 36.48046875 C-2.14136719 35.83335937 -2.84132813 35.18625 -3.5625 34.51953125 C-9.58335417 28.76861791 -16.51887872 22.09310638 -18.19140625 13.73046875 C-17.21654271 9.50606007 -16.0033281 7.01176643 -13.44140625 3.48046875 C-9.23299402 1.04401956 -4.69004545 0.92300095 0 0 Z " fill="#A3A2A2" transform="translate(58.44140625,367.51953125)"/>
<path d="M0 0 C3.71693054 -0.35399338 5.75121713 -0.12439143 9.125 1.5625 C11.86400819 3.88470259 13.07734985 5.80442485 14.77734375 8.89331055 C17.24041762 13.13729306 20.12305229 17.10944447 22.9375 21.125 C23.54529297 22.00542969 24.15308594 22.88585937 24.77929688 23.79296875 C25.67551758 25.07494141 25.67551758 25.07494141 26.58984375 26.3828125 C27.39216431 27.53354248 27.39216431 27.53354248 28.21069336 28.70751953 C32.51214793 34.21859313 35.83778651 36.75353095 42.71484375 38.09765625 C43.4482045 38.25866318 44.18156525 38.4196701 44.93714905 38.58555603 C47.26722134 39.0955067 49.60137826 39.58108663 51.9375 40.0625 C54.26947472 40.5494648 56.59968098 41.04202121 58.92713928 41.55015564 C60.37023853 41.86469034 61.81603646 42.16717947 63.26463318 42.45533752 C67.91221959 43.46115347 71.32870958 44.96364942 75 48 C75.66075134 50.13294983 75.66075134 50.13294983 76 52 C69.2403953 54.60848455 62.39288114 56.88344295 55.50390625 59.125 C53.72172951 59.70725342 53.72172951 59.70725342 51.90354919 60.30126953 C48.76255778 61.32716456 45.62109334 62.35159289 42.47937012 63.37524414 C38.06305521 64.8146315 33.64769394 66.25694202 29.23216248 67.69873047 C26.88829992 68.46387564 24.54428342 69.22854946 22.2000885 69.99267578 C21.12544846 70.34313965 20.05080841 70.69360352 18.94360352 71.0546875 C17.92896027 71.38307617 16.91431702 71.71146484 15.868927 72.04980469 C14.02305442 72.66116199 12.18455543 73.29550864 10.35641479 73.95800781 C9.17053268 74.38484863 9.17053268 74.38484863 7.96069336 74.8203125 C7.28574326 75.07312988 6.61079315 75.32594727 5.91539001 75.58642578 C3.63834771 76.07808857 2.19184046 75.71757874 0 75 C0.99 74.505 0.99 74.505 2 74 C2.33 49.91 2.66 25.82 3 1 C2.01 0.67 1.02 0.34 0 0 Z " fill="#D9E2E5" transform="translate(253,273)"/>
<path d="M0 0 C58.41 0 116.82 0 177 0 C175.02 2.31 173.04 4.62 171 7 C170.32343857 7.9592337 169.64687714 8.91846741 168.94981384 9.9067688 C164.01553893 13.4082027 158.68952479 12.61116218 152.80297852 12.49169922 C151.44567702 12.48205715 150.08835833 12.47462205 148.73103333 12.46922302 C145.04820504 12.44820411 141.36640601 12.3959927 137.6839993 12.33797216 C133.81764134 12.28214343 129.9510789 12.25428217 126.0844574 12.22317505 C119.58184298 12.16696686 113.07965805 12.09239258 106.57739258 12.00488281 C97.45026783 11.8820845 88.3230449 11.79278687 79.19548142 11.71008658 C72.06905491 11.64421396 64.94272516 11.56870319 57.81640625 11.4921875 C57.06021917 11.48419931 56.30403208 11.47621112 55.52493024 11.46798086 C51.14595186 11.42124455 46.76707846 11.36961354 42.38824272 11.31097603 C40.44916873 11.28580505 38.51004543 11.26452226 36.57092285 11.24342346 C28.34471089 11.1258052 20.19927113 10.66919486 12 10 C11.67 10.66 11.34 11.32 11 12 C10.37351563 11.36191406 9.74703125 10.72382812 9.1015625 10.06640625 C8.28429687 9.24011719 7.46703125 8.41382813 6.625 7.5625 C5.81289062 6.73878906 5.00078125 5.91507813 4.1640625 5.06640625 C2.17651485 2.96565328 2.17651485 2.96565328 0 2 C0 1.34 0 0.68 0 0 Z " fill="#1A73B1" transform="translate(168,37)"/>
<path d="M0 0 C0.33 0 0.66 0 1 0 C1 17.16 1 34.32 1 52 C-5.435 53.98 -5.435 53.98 -12 56 C-16.93087673 57.75348504 -21.85460922 59.51725256 -26.75585938 61.3515625 C-33.05646562 63.61790633 -38.97195399 65.6112184 -45.5 63 C-45.995 62.67 -46.49 62.34 -47 62 C-46.46059003 57.78649567 -43.91030857 55.04919309 -41.3125 51.875 C-40.311891 50.62679004 -39.31192294 49.37806608 -38.3125 48.12890625 C-37.77753906 47.46391113 -37.24257812 46.79891602 -36.69140625 46.11376953 C-21.65247222 29.88366727 -21.65247222 29.88366727 -12 11 C-12.66 11 -13.32 11 -14 11 C-14.28875 10.38125 -14.5775 9.7625 -14.875 9.125 C-15.93720042 6.86674235 -15.93720042 6.86674235 -18 5 C-15.625 3.4375 -15.625 3.4375 -13 2 C-12.34 2.33 -11.68 2.66 -11 3 C-10.40644386 5.64860427 -10.25790731 8.29197322 -10 11 C-7.25288709 8.33137603 -4.66993678 5.65774311 -2.25 2.6875 C-1.5075 1.800625 -0.765 0.91375 0 0 Z " fill="#AAC1C9" transform="translate(255,351)"/>
<path d="M0 0 C0.33 0 0.66 0 1 0 C1.85979836 7.13595177 0.87917511 11.29155719 -3.48828125 16.99804688 C-4.42220703 18.14370117 -4.42220703 18.14370117 -5.375 19.3125 C-5.95894531 20.06466797 -6.54289062 20.81683594 -7.14453125 21.59179688 C-8.37382796 23.17137706 -9.61342665 24.74298454 -10.86230469 26.30712891 C-13.43456404 29.54742363 -15.95769378 32.82360826 -18.4765625 36.10546875 C-18.92373627 36.68774734 -19.37091003 37.27002594 -19.83163452 37.86994934 C-20.888222 39.24627555 -21.94418101 40.62308418 -23 42 C-39 36.66666667 -55 31.33333333 -71 26 C-68.34132242 22.63246447 -64.85928666 21.69190085 -60.921875 20.43359375 C-60.21023697 20.19832977 -59.49859894 19.9630658 -58.76539612 19.72067261 C-56.42967118 18.9509646 -54.08996141 18.19422049 -51.75 17.4375 C-50.13541135 16.90790511 -48.52107428 16.37754264 -46.90698242 15.84643555 C-38.8662826 13.20689574 -30.810624 10.61359489 -22.75390625 8.0234375 C-22.03320953 7.79159256 -21.31251282 7.55974762 -20.56997681 7.32087708 C-17.14393165 6.2194645 -13.71656948 5.12257424 -10.28613281 4.03491211 C-9.0740918 3.64827393 -7.86205078 3.26163574 -6.61328125 2.86328125 C-5.01673706 2.35728394 -5.01673706 2.35728394 -3.38793945 1.84106445 C-1.07605127 1.22006437 -1.07605127 1.22006437 0 0 Z " fill="#ADC4CC" transform="translate(329,324)"/>
<path d="M0 0 C0 24.42 0 48.84 0 74 C-3.62508488 70.37491512 -6.57791022 67.10320602 -9.625 63.0625 C-10.49409194 61.91743733 -11.36391108 60.77292631 -12.234375 59.62890625 C-12.68361328 59.0373877 -13.13285156 58.44586914 -13.59570312 57.83642578 C-15.99300077 54.70143397 -18.43358826 51.60068373 -20.875 48.5 C-21.32697754 47.92515869 -21.77895508 47.35031738 -22.24462891 46.75805664 C-24.23116132 44.23435342 -26.20855578 41.77298191 -28.3828125 39.40625 C-30 37 -30 37 -29.953125 34.4765625 C-28.87900446 31.68560995 -27.58375704 29.74039249 -25.75 27.375 C-21.08386739 21.20147791 -16.76912053 14.81584178 -12.48144531 8.37451172 C-11.94487305 7.57932129 -11.40830078 6.78413086 -10.85546875 5.96484375 C-10.37746826 5.2493335 -9.89946777 4.53382324 -9.40698242 3.79663086 C-6.43188202 -0.00239115 -4.89155386 0 0 0 Z " fill="#F4F3F2" transform="translate(256,274)"/>
<path d="M0 0 C0.21861364 2.35920549 0.37519822 4.69795205 0.5 7.0625 C0.5928125 8.37347656 0.685625 9.68445313 0.78125 11.03515625 C0.58695094 13.68700566 0.27586441 14.70842748 -1.57081032 16.66025448 C-2.57260354 17.46638605 -2.57260354 17.46638605 -3.59463501 18.2888031 C-7.74733908 21.75585686 -11.51303011 25.45388923 -15.26708984 29.34399414 C-16.66950969 30.78600552 -18.07213739 32.22781476 -19.47494507 33.66944885 C-20.20561565 34.42208071 -20.93628624 35.17471256 -21.68909836 35.95015144 C-26.41020983 40.80252755 -31.16381305 45.62313784 -35.91068077 50.45029545 C-40.07240096 54.68612333 -44.22257543 58.93222303 -48.35058594 63.20092773 C-52.36023119 67.3459498 -56.39847318 71.46105693 -60.45781326 75.55740166 C-61.99554162 77.11978704 -63.52253395 78.69281564 -65.038311 80.27650642 C-67.15653591 82.48651704 -69.30935349 84.65625315 -71.47412109 86.82055664 C-72.08950241 87.48065231 -72.70488373 88.14074799 -73.33891296 88.82084656 C-75.19356366 90.62894214 -76.64125218 91.92164924 -79 93 C-82.54229028 92.90821065 -85.65611661 92.13857902 -89 91 C-89 88 -89 88 -87.6284647 86.2565279 C-86.98082126 85.61035102 -86.33317781 84.96417414 -85.66590881 84.29841614 C-84.92690842 83.55384659 -84.18790802 82.80927704 -83.42651367 82.04214478 C-82.19457275 80.82402603 -82.19457275 80.82402603 -80.93774414 79.58129883 C-80.08103622 78.72254654 -79.22432831 77.86379425 -78.34165955 76.97901917 C-75.98759214 74.62245457 -73.62701593 72.27279129 -71.26317143 69.92605805 C-68.79485494 67.47275234 -66.33462012 65.01136808 -63.87339783 62.5509491 C-59.73969059 58.42093634 -55.60038314 54.29660677 -51.45727539 50.17602539 C-46.13216433 44.87980769 -40.81636774 39.57434229 -35.50345707 34.26588917 C-30.94382267 29.71022885 -26.37993176 25.15883969 -21.81535411 20.60813308 C-20.34413961 19.14102442 -18.87351724 17.67332415 -17.40297127 16.20554543 C-14.66901019 13.47736905 -11.93062983 10.75365613 -9.19165039 8.03051758 C-7.96274582 6.80328979 -7.96274582 6.80328979 -6.70901489 5.55126953 C-5.96719467 4.81515945 -5.22537445 4.07904938 -4.46107483 3.32063293 C-3.81305436 2.67558713 -3.16503389 2.03054132 -2.49737644 1.36594868 C-1 0 -1 0 0 0 Z " fill="#0C76CD" transform="translate(352,63)"/>
<path d="M0 0 C22.09054461 -0.09609727 44.16764912 -0.16607678 66.25 0.5 C87.20576343 1.12846896 108.16198181 1.08332326 129.125 1.0625 C129.98901932 1.06164398 130.85303864 1.06078796 131.74324036 1.05990601 C142.49551442 1.0484435 153.24775709 1.02821154 164 1 C160.78463148 5.8209241 160.78463148 5.8209241 157.36048317 6.60241508 C156.34994566 6.59173059 155.33940815 6.5810461 154.29824829 6.57003784 C153.13500031 6.56994217 151.97175232 6.5698465 150.77325439 6.56974792 C148.8641629 6.53111382 148.8641629 6.53111382 146.91650391 6.49169922 C145.55934989 6.48206021 144.20217872 6.47462372 142.84500122 6.46922302 C139.15798387 6.44817856 135.47199043 6.39594884 131.78539324 6.33797216 C127.91635939 6.28219523 124.04712237 6.25429416 120.17782593 6.22317505 C113.66923605 6.16693905 107.16107406 6.09235338 100.65283203 6.00488281 C91.51733482 5.88213982 82.38173964 5.79281258 73.24580503 5.71008658 C66.11432284 5.64420754 58.98293734 5.56869219 51.8515625 5.4921875 C51.09464127 5.48419931 50.33772004 5.47621112 49.5578618 5.46798086 C45.17400417 5.4212412 40.79025133 5.36961044 36.4065361 5.31097603 C34.46506709 5.28580407 32.52354881 5.26452182 30.58203125 5.24342346 C22.35206442 5.12589425 14.20299881 4.66964517 6 4 C5.67 4.66 5.34 5.32 5 6 C3.35 4.02 1.7 2.04 0 0 Z " fill="#2983C9" transform="translate(174,43)"/>
<path d="M0 0 C0.48193359 2.47747803 0.48193359 2.47747803 0 6 C-2.22010455 9.12625345 -4.96279572 11.69867721 -7.7109375 14.36035156 C-8.53023743 15.17731506 -9.34953735 15.99427856 -10.19366455 16.83599854 C-12.90710753 19.53505651 -15.64094233 22.21246486 -18.375 24.890625 C-20.25976289 26.75912033 -22.1432102 28.62884909 -24.02490234 30.50042725 C-28.47582591 34.92239239 -32.94097015 39.32968293 -37.41213799 43.73116851 C-45.42651809 51.62158411 -53.41653521 59.53663675 -61.40123177 67.45707679 C-64.65753742 70.68584924 -67.92388503 73.90425104 -71.19287109 77.12017822 C-72.89176165 78.79903235 -74.59050053 80.47803999 -76.2890625 82.15722656 C-77.46725555 83.31049438 -77.46725555 83.31049438 -78.66925049 84.48706055 C-79.37603943 85.18792786 -80.08282837 85.88879517 -80.81103516 86.61090088 C-81.74020248 87.52561346 -81.74020248 87.52561346 -82.68814087 88.45880508 C-84.21605902 89.91650973 -84.21605902 89.91650973 -84 92 C-85.98 91.34 -87.96 90.68 -90 90 C-85.48430684 84.58941263 -80.70399065 79.56118559 -75.71557617 74.58618164 C-74.90675995 73.7756131 -74.09794373 72.96504456 -73.26461792 72.12991333 C-70.6098993 69.47081874 -67.95157015 66.81536835 -65.29296875 64.16015625 C-63.44291299 62.30942663 -61.59300568 60.4585486 -59.74324036 58.60752869 C-55.87757792 54.74005349 -52.00982582 50.87467754 -48.14086914 47.01049805 C-43.66386231 42.53895525 -39.19050041 38.06379024 -34.71896952 33.58677202 C-30.41236272 29.27509176 -26.10296343 24.96621409 -21.79235268 20.65853691 C-19.95868731 18.82554066 -18.12577008 16.9917957 -16.29360008 15.15730476 C-13.74395393 12.60513592 -11.19115362 10.05616584 -8.63745117 7.50805664 C-7.87436142 6.74294266 -7.11127167 5.97782867 -6.32505798 5.18952942 C-5.63397949 4.50127075 -4.942901 3.81301208 -4.23088074 3.10389709 C-3.32584698 2.19942888 -3.32584698 2.19942888 -2.40252972 1.27668858 C-1 0 -1 0 0 0 Z " fill="#1281E2" transform="translate(352,63)"/>
<path d="M0 0 C58.41 0 116.82 0 177 0 C176.67 0.66 176.34 1.32 176 2 C171.63104991 3.02912426 167.3877165 3.12561319 162.91400146 3.12698364 C162.22424925 3.12854363 161.53449704 3.13010362 160.82384324 3.13171089 C158.52544372 3.13568191 156.22711089 3.13254647 153.92871094 3.12939453 C152.2759192 3.13075025 150.62312777 3.13253115 148.97033691 3.13470459 C144.49135438 3.13925717 140.01239491 3.13749868 135.53341198 3.1343255 C130.84716416 3.13179238 126.16091831 3.13414195 121.47467041 3.13571167 C113.6097376 3.13752985 105.74481419 3.13513549 97.87988281 3.13037109 C88.77869724 3.12492158 79.67753405 3.12669753 70.57634902 3.1321975 C62.76479454 3.1367296 54.95324681 3.13737893 47.14169145 3.13475883 C42.47478509 3.13319756 37.80788927 3.13299835 33.14098358 3.13629532 C28.7579442 3.13917568 24.37493382 3.1371953 19.99189758 3.13140106 C18.38017576 3.13007468 16.76845152 3.13046553 15.15673065 3.13266373 C12.96380838 3.13537979 10.77098017 3.13198857 8.57806396 3.12698364 C7.34881069 3.12660662 6.11955742 3.12622959 4.85305405 3.12584114 C2 3 2 3 0 2 C0 1.34 0 0.68 0 0 Z " fill="#296E98" transform="translate(168,37)"/>
<path d="M0 0 C0.33 0.66 0.66 1.32 1 2 C1.639375 2.0825 2.27875 2.165 2.9375 2.25 C3.618125 2.4975 4.29875 2.745 5 3 C5.66666667 5 6.33333333 7 7 9 C9.5983719 12.78496174 12.80987376 15.90243804 16.31884766 18.83666992 C22.96278116 24.60422495 29.06838395 30.94576064 35.2734375 37.17578125 C36.64704791 38.55126014 38.02088179 39.92651589 39.39492798 41.30155945 C42.99003783 44.90046448 46.58213406 48.50236255 50.17358398 52.10491943 C53.83915545 55.78075547 57.50758904 59.45373272 61.17578125 63.12695312 C67.60595674 69.5666734 74.0336745 76.00883841 80.45956421 82.45283508 C81.97216013 83.96943758 83.48539947 85.48539947 85 87 C82.48236084 87.9336853 82.48236084 87.9336853 79 88 C76.03121195 86.10464278 73.71631131 83.58872431 71.28222656 81.06103516 C70.1591938 79.93712624 70.1591938 79.93712624 69.01347351 78.79051208 C66.53904864 76.30610042 64.09023176 73.79792792 61.640625 71.2890625 C59.92923591 69.56207958 58.21622094 67.83670646 56.50164795 66.11288452 C51.98907814 61.56789612 47.49747914 57.00273326 43.01031494 52.43267822 C37.54935661 46.87801721 32.06537805 41.34610338 26.58358383 35.81201744 C22.32006955 31.50729665 18.06056741 27.19884503 13.81256104 22.8788147 C13.03215958 22.08684189 12.25175812 21.29486908 11.44770813 20.47889709 C9.98598673 18.99530341 8.52621214 17.50978822 7.06871033 16.02204895 C6.4267421 15.37133926 5.78477386 14.72062958 5.12335205 14.05020142 C4.56516407 13.48199991 4.00697609 12.91379841 3.43187332 12.32837868 C2.01794869 10.89211595 2.01794869 10.89211595 0 10 C0 6.7 0 3.4 0 0 Z " fill="#2479B3" transform="translate(160,68)"/>
<path d="M0 0 C0.22117901 2.29028225 0.22117901 2.29028225 0 5 C-1.49061108 6.76245975 -1.49061108 6.76245975 -3.53886414 8.35548401 C-7.75257629 11.785871 -11.5637081 15.44751921 -15.37817383 19.31225586 C-16.06702667 20.00578156 -16.75587952 20.69930725 -17.46560669 21.41384888 C-18.94583666 22.90450075 -20.42495672 24.39625547 -21.90305519 25.88902092 C-24.24112872 28.24926454 -26.58327644 30.60539286 -28.92668152 32.96034241 C-35.58358634 39.65072327 -42.23614232 46.34538355 -48.87866211 53.05004883 C-52.95337295 57.16229964 -57.03527401 61.26729236 -61.12195396 65.36764717 C-62.67690625 66.93066982 -64.22907339 68.49646825 -65.7784214 70.06504631 C-67.93510553 72.24806148 -70.1007764 74.42175935 -72.26879883 76.59350586 C-72.90934708 77.24641098 -73.54989532 77.8993161 -74.20985413 78.57200623 C-74.79982178 79.15929504 -75.38978943 79.74658386 -75.99763489 80.35166931 C-76.50805737 80.866156 -77.01847986 81.38064268 -77.5443697 81.91071987 C-79 83 -79 83 -82 83 C-80.64115407 79.96453064 -79.11498982 77.8655442 -76.76707458 75.51983643 C-76.10105225 74.8496196 -75.43502991 74.17940277 -74.74882507 73.48887634 C-73.65390495 72.40238548 -73.65390495 72.40238548 -72.53686523 71.29394531 C-71.7676474 70.52282913 -70.99842957 69.75171295 -70.2059021 68.95722961 C-67.66166011 66.40928221 -65.1102883 63.86860716 -62.55859375 61.328125 C-60.79228394 59.56300697 -59.02634326 57.79751947 -57.26075745 56.03167725 C-53.56079642 52.33328056 -49.8576135 48.63814257 -46.15161133 44.94580078 C-41.86181202 40.67175499 -37.57729016 36.39247667 -33.29572719 32.11018109 C-29.17937774 27.99322235 -25.06012993 23.87917711 -20.93937874 19.76662445 C-19.18399781 18.01443665 -17.42923156 16.26163284 -15.67507744 14.50821686 C-13.23047536 12.06576978 -10.78261711 9.62663657 -8.33374023 7.18847656 C-7.23578377 6.08984032 -7.23578377 6.08984032 -6.11564636 4.9690094 C-5.45244385 4.31007187 -4.78924133 3.65113434 -4.10594177 2.972229 C-3.52688804 2.39485111 -2.9478343 1.81747322 -2.35123348 1.22259903 C-1 0 -1 0 0 0 Z " fill="#0C6DB5" transform="translate(352,73)"/>
<path d="M0 0 C0.33 0.66 0.66 1.32 1 2 C1.639375 2.0825 2.27875 2.165 2.9375 2.25 C3.618125 2.4975 4.29875 2.745 5 3 C5.66666667 5 6.33333333 7 7 9 C9.5983719 12.78496174 12.80987376 15.90243804 16.31884766 18.83666992 C22.96278116 24.60422495 29.06838395 30.94576064 35.2734375 37.17578125 C36.64704791 38.55126014 38.02088179 39.92651589 39.39492798 41.30155945 C42.99003783 44.90046448 46.58213406 48.50236255 50.17358398 52.10491943 C53.83915545 55.78075547 57.50758904 59.45373272 61.17578125 63.12695312 C67.60595674 69.5666734 74.0336745 76.00883841 80.45956421 82.45283508 C81.97216013 83.96943758 83.48539947 85.48539947 85 87 C83.515 87.495 83.515 87.495 82 88 C81.5843277 87.51327316 81.1686554 87.02654633 80.74038696 86.52507019 C76.43676572 81.53927689 71.94743903 76.81377812 67.2734375 72.17578125 C66.56273102 71.46648972 65.85202454 70.75719818 65.11978149 70.02641296 C62.87388523 67.78605515 60.62452373 65.54921488 58.375 63.3125 C56.85914163 61.8016664 55.34351466 60.2906006 53.828125 58.77929688 C51.04879046 56.00808368 48.26814884 53.23819745 45.48583984 50.4699707 C40.9697809 45.97584263 36.46863437 41.46730098 31.98046875 36.9453125 C30.54165542 35.49911726 29.10235519 34.05340855 27.6628418 32.60791016 C26.68374233 31.623788 25.70554305 30.63876938 24.72827148 29.65283203 C19.00196947 23.87732337 13.20896043 18.25892024 7 13 C0.1336256 7.04991543 0.1336256 7.04991543 -0.4375 2.5625 C-0.293125 1.716875 -0.14875 0.87125 0 0 Z " fill="#1C7CC7" transform="translate(160,68)"/>
<path d="M0 0 C9.84004094 -0.06949656 19.68002353 -0.12280952 29.52025986 -0.15543652 C34.08944108 -0.1710955 38.65845445 -0.19233799 43.22753906 -0.22631836 C47.63659567 -0.25890357 52.04549078 -0.27685126 56.45465851 -0.28463173 C58.13719475 -0.29017675 59.81972211 -0.3010048 61.50218964 -0.31719017 C63.8580997 -0.33895363 66.2133416 -0.34196743 68.56933594 -0.34057617 C69.61374847 -0.35675491 69.61374847 -0.35675491 70.67926025 -0.3732605 C74.74237187 -0.34728079 77.04158334 0.1511467 80 3 C53.65600904 3.20060443 27.33552574 2.61761103 1 2 C0.67 1.34 0.34 0.68 0 0 Z " fill="#2578B2" transform="translate(172,41)"/>
<path d="M0 0 C2.31 1.98 4.62 3.96 7 6 C7 6.33 7 6.66 7 7 C5.35 7.33 3.7 7.66 2 8 C2 8.66 2 9.32 2 10 C3.65 10 5.3 10 7 10 C8.76462683 13.08809695 9 14.23312136 9 18 C9.66 18 10.32 18 11 18 C11.33 22.29 11.66 26.58 12 31 C8.09524747 27.50627405 6.57032382 24.93530344 5 20 C4.01 19.67 3.02 19.34 2 19 C1.67 21.31 1.34 23.62 1 26 C0.67 26 0.34 26 0 26 C0 17.42 0 8.84 0 0 Z " fill="#52A1E4" transform="translate(159,51)"/>
<path d="M0 0 C6.55377097 5.38640924 12.47246635 11.35885127 18.4375 17.375 C19.46525983 18.40778595 20.49325285 19.44033991 21.52148438 20.47265625 C24.01701598 22.97910287 26.50938082 25.4886708 29 28 C24.98590612 29.19127947 22.87202684 28.73846103 19 27 C13.99960214 22.63776481 10.44889944 17.2396067 6.6875 11.8125 C6.04232422 10.89791016 5.39714844 9.98332031 4.73242188 9.04101562 C0 2.25537368 0 2.25537368 0 0 Z " fill="#696868" transform="translate(268,282)"/>
<path d="M0 0 C3.25763629 1.42999927 5.43035227 3.17756322 7.94238281 5.68359375 C9.08311249 6.81486694 9.08311249 6.81486694 10.24688721 7.96899414 C11.05744568 8.78360107 11.86800415 9.59820801 12.703125 10.4375 C13.54091492 11.27337646 14.37870483 12.10925293 15.24188232 12.97045898 C17.00941903 14.73663557 18.77443602 16.50533688 20.53710938 18.27636719 C23.24648274 20.99646881 25.96637765 23.70571999 28.6875 26.4140625 C30.40168357 28.12956717 32.1152469 29.84569186 33.828125 31.5625 C35.05610809 32.7844104 35.05610809 32.7844104 36.30889893 34.03100586 C37.43071564 35.16227905 37.43071564 35.16227905 38.57519531 36.31640625 C39.23819641 36.98099854 39.90119751 37.64559082 40.58428955 38.33032227 C42 40 42 40 42 42 C37.89256255 41.47229811 35.9807005 39.3541329 33.12109375 36.484375 C32.20005859 35.56269531 31.27902344 34.64101562 30.33007812 33.69140625 C29.85513916 33.20816895 29.3802002 32.72493164 28.89086914 32.22705078 C27.44761097 30.76027572 25.99158011 29.30719548 24.53320312 27.85546875 C20.44182168 23.73254897 16.94639885 20.01315409 14 15 C12.40140305 13.14698123 12.40140305 13.14698123 10.64453125 11.484375 C9.71157227 10.56785156 9.71157227 10.56785156 8.75976562 9.6328125 C8.11716797 9.01148437 7.47457031 8.39015625 6.8125 7.75 C5.52522343 6.49696625 4.23994698 5.24187322 2.95703125 3.984375 C2.38960205 3.43491211 1.82217285 2.88544922 1.23754883 2.31933594 C0 1 0 1 0 0 Z " fill="#1673B7" transform="translate(200,114)"/>
<path d="M0 0 C0.33 0.66 0.66 1.32 1 2 C1.639375 2.0825 2.27875 2.165 2.9375 2.25 C3.618125 2.4975 4.29875 2.745 5 3 C5.66666667 5 6.33333333 7 7 9 C10.14750615 13.5848673 14.22077858 17.1216431 18.43359375 20.69140625 C24.54241758 26.18655828 30.2281506 32.15487516 36 38 C33 38 33 38 31.1340332 36.45874023 C30.44656006 35.74919189 29.75908691 35.03964355 29.05078125 34.30859375 C28.28443359 33.52806641 27.51808594 32.74753906 26.72851562 31.94335938 C25.93123047 31.11642578 25.13394531 30.28949219 24.3125 29.4375 C18.73251321 23.70033048 13.1023519 18.1811105 7 13 C0.1336256 7.04991543 0.1336256 7.04991543 -0.4375 2.5625 C-0.293125 1.716875 -0.14875 0.87125 0 0 Z " fill="#2E84C6" transform="translate(160,68)"/>
<path d="M0 0 C-0.6071358 3.64281481 -2.14230634 5.77151599 -4.4375 8.625 C-5.36369141 9.78902344 -5.36369141 9.78902344 -6.30859375 10.9765625 C-8 13 -8 13 -10 15 C-10.33 11.37 -10.66 7.74 -11 4 C-7.25407744 1.67145354 -4.50822542 0 0 0 Z " fill="#A1B8C0" transform="translate(254,350)"/>
<path d="M0 0 C12.21 0 24.42 0 37 0 C37 0.66 37 1.32 37 2 C25.86438211 2.77165796 15.12815896 3.17998423 4 2 C3.67 2.66 3.34 3.32 3 4 C2.01 2.68 1.02 1.36 0 0 Z " fill="#398CCB" transform="translate(176,45)"/>
<path d="M0 0 C2.31 1.98 4.62 3.96 7 6 C7 6.33 7 6.66 7 7 C5.35 7.33 3.7 7.66 2 8 C2 8.66 2 9.32 2 10 C3.65 10 5.3 10 7 10 C7.33 11.32 7.66 12.64 8 14 C5.69 13.67 3.38 13.34 1 13 C1 17.29 1 21.58 1 26 C0.67 26 0.34 26 0 26 C0 17.42 0 8.84 0 0 Z " fill="#78B6ED" transform="translate(159,51)"/>
<path d="M0 0 C0.66 0.33 1.32 0.66 2 1 C2 4.96 2 8.92 2 13 C1.67 11.68 1.34 10.36 1 9 C0.34 9 -0.32 9 -1 9 C-1.28875 8.38125 -1.5775 7.7625 -1.875 7.125 C-2.93720042 4.86674235 -2.93720042 4.86674235 -5 3 C-2.625 1.4375 -2.625 1.4375 0 0 Z " fill="#BACBD1" transform="translate(242,353)"/>
<path d="M0 0 C0 4.29 0 8.58 0 13 C-4 9 -4 9 -4.4375 5.9375 C-4 3 -4 3 -2.5625 1.125 C-1 0 -1 0 0 0 Z " fill="#747171" transform="translate(291,161)"/>
<path d="M0 0 C1.16959987 0.97566112 2.33561177 1.955625 3.5 2.9375 C4.1496875 3.48277344 4.799375 4.02804688 5.46875 4.58984375 C5.9740625 5.05519531 6.479375 5.52054688 7 6 C7 6.33 7 6.66 7 7 C5.02 7 3.04 7 1 7 C0.67 7.66 0.34 8.32 0 9 C0 6.03 0 3.06 0 0 Z " fill="#99CBFB" transform="translate(159,51)"/>
<path d="M0 0 C0.33 0.66 0.66 1.32 1 2 C3.02463255 2.65213292 3.02463255 2.65213292 5 3 C5 4.65 5 6.3 5 8 C2.5 5.6875 2.5 5.6875 0 3 C0 2.01 0 1.02 0 0 Z " fill="#4192D4" transform="translate(160,68)"/>
</svg>
